index-italic.glyphspackage
{
glyphname = exclam;
layers = (
{
background = {
shapes = (
{
closed = 1;
nodes = (
(660,-25,o),
(725,43,o),
(740,129,cs),
(750,191,o),
(751,211,o),
(751,228,cs),
(751,299,o),
(698,356,o),
(572,356,cs),
(436,356,o),
(371,289,o),
(356,203,cs),
(346,141,o),
(344,121,o),
(344,105,cs),
(344,33,o),
(397,-25,o),
(524,-25,cs)
);
}
);
};
layerId = "586BE664-8D6A-4867-BE1B-390608DE01EA";
shapes = (
{
closed = 1;
nodes = (
(854,1014,l),
(924,1430,l),
(594,1430,l),
(527,1014,l),
(551,497,l),
(657,497,l,{
name = hr00;
})
);
},
{
pos = (31,-1);
ref = period;
scale = (0.9602,0.9602);
}
);
width = 1229;
},
{
background = {
shapes = (
{
closed = 1;
nodes = (
(635,-18,o),
(680,28,o),
(692,103,cs),
(698,139,o),
(700,158,o),
(700,170,cs),
(700,221,o),
(663,260,o),
(567,260,cs),
(459,260,o),
(414,213,o),
(401,139,cs),
(395,103,o),
(393,84,o),
(393,72,cs),
(393,20,o),
(430,-18,o),
(527,-18,cs)
);
}
);
};
layerId = "9AAD14F8-FE06-4230-ACE0-3E9D6F8A5A9E";
shapes = (
{
closed = 1;
nodes = (
(785,1014,l),
(854,1430,l),
(678,1430,l),
(608,1014,l),
(573,477,l),
(637,477,l,{
name = hr00;
})
);
},
{
pos = (15,0);
ref = period;
}
);
width = 1229;
},
{
background = {
shapes = (
{
closed = 1;
nodes = (
(567,-10,o),
(594,10,o),
(600,43,cs),
(602,53,o),
(604,63,o),
(604,72,cs),
(604,100,o),
(585,117,o),
(545,117,cs),
(502,117,o),
(475,96,o),
(469,63,cs),
(467,53,o),
(465,43,o),
(465,35,cs),
(465,6,o),
(484,-10,o),
(524,-10,cs)
);
}
);
};
layerId = "B042A474-670A-4404-9662-903C467C1F9E";
shapes = (
{
closed = 1;
nodes = (
(690,850,l),
(786,1430,l),
(741,1430,l),
(645,850,l),
(573,361,l),
(598,361,l,{
name = hr00;
})
);
},
{
ref = period;
}
);
width = 1229;
}
);
unicode = 33;
}
{
glyphname = numbersign;
layers = (
{
layerId = "586BE664-8D6A-4867-BE1B-390608DE01EA";
shapes = (
{
closed = 1;
nodes = (
(442,0,l),
(1115,1966,l),
(791,1966,l),
(603,1416,l),
(248,1416,l),
(197,1112,l),
(498,1112,l),
(411,853,l),
(48,853,l),
(-3,549,l),
(307,549,l),
(118,0,l,{
name = hr00;
})
);
},
{
closed = 1;
nodes = (
(988,0,l),
(1177,549,l),
(1532,549,l),
(1583,853,l),
(1281,853,l),
(1369,1112,l),
(1732,1112,l),
(1783,1416,l),
(1473,1416,l),
(1661,1966,l),
(1338,1966,l),
(665,0,l)
);
}
);
width = 1690;
},
{
layerId = "9AAD14F8-FE06-4230-ACE0-3E9D6F8A5A9E";
shapes = (
{
closed = 1;
nodes = (
(397,0,l),
(1067,1966,l),
(862,1966,l),
(653,1354,l),
(259,1354,l),
(228,1174,l),
(591,1174,l),
(462,791,l),
(65,791,l),
(34,611,l),
(400,611,l),
(191,0,l,{
name = hr00;
})
);
},
{
closed = 1;
nodes = (
(915,0,l),
(1124,611,l),
(1518,611,l),
(1549,791,l),
(1186,791,l),
(1315,1174,l),
(1712,1174,l),
(1743,1354,l),
(1377,1354,l),
(1585,1966,l),
(1380,1966,l),
(710,0,l)
);
}
);
width = 1690;
},
{
layerId = "B042A474-670A-4404-9662-903C467C1F9E";
shapes = (
{
closed = 1;
nodes = (
(335,0,l),
(1008,1966,l),
(946,1966,l),
(715,1293,l),
(256,1293,l),
(248,1239,l),
(698,1239,l),
(524,727,l),
(62,727,l),
(54,673,l),
(504,673,l),
(273,0,l,{
name = hr00;
})
);
},
{
closed = 1;
nodes = (
(828,0,l),
(1059,673,l),
(1518,673,l),
(1526,727,l),
(1076,727,l),
(1250,1239,l),
(1712,1239,l),
(1721,1293,l),
(1270,1293,l),
(1501,1966,l),
(1439,1966,l),
(766,0,l)
);
}
);
width = 1690;
}
);
unicode = 35;
}
{
glyphname = dollar;
layers = (
{
background = {
shapes = (
{
closed = 1;
nodes = (
(623,-231,l),
(657,-20,l),
(973,10,o),
(1151,199,o),
(1151,465,cs),
(1151,660,o),
(1014,764,o),
(809,828,cs),
(780,836,l),
(840,1192,l),
(918,1172,o),
(975,1130,o),
(1022,1067,c),
(1210,1252,l),
(1147,1341,o),
(1036,1409,o),
(901,1438,c),
(938,1661,l),
(708,1661,l),
(673,1450,l),
(369,1425,o),
(184,1249,o),
(184,993,cs),
(184,815,o),
(295,692,o),
(514,629,cs),
(555,617,l),
(489,228,l),
(387,248,o),
(284,299,o),
(221,389,c),
(37,201,l),
(106,86,o),
(252,10,o),
(430,-15,c),
(393,-231,l,{
name = hr00;
})
);
},
{
closed = 1;
nodes = (
(475,1106,o),
(530,1174,o),
(651,1196,c),
(602,893,l),
(567,905,l),
(504,932,o),
(475,963,o),
(475,1026,cs)
);
},
{
closed = 1;
nodes = (
(858,328,o),
(801,258,o),
(680,231,c),
(733,563,l),
(776,545,l),
(831,518,o),
(858,485,o),
(858,432,cs)
);
}
);
};
layerId = "586BE664-8D6A-4867-BE1B-390608DE01EA";
shapes = (
{
ref = S;
},
{
closed = 1;
nodes = (
(391,-231,l),
(585,-231,l),
(900,1661,l),
(707,1661,l)
);
}
);
width = 1229;
},
{
background = {
shapes = (
{
closed = 1;
nodes = (
(545,-231,l),
(580,-25,l),
(895,-12,o),
(1094,172,o),
(1094,434,cs),
(1094,608,o),
(997,729,o),
(766,783,cs),
(713,795,l),
(799,1305,l),
(919,1288,o),
(1009,1227,o),
(1075,1127,c),
(1198,1217,l),
(1135,1329,o),
(1012,1423,o),
(823,1448,c),
(860,1661,l),
(737,1661,l),
(703,1454,l),
(407,1446,o),
(209,1286,o),
(209,1028,cs),
(209,844,o),
(319,727,o),
(539,678,cs),
(572,670,l),
(481,125,l),
(346,143,o),
(252,213,o),
(174,332,c),
(47,231,l),
(121,103,o),
(262,4,o),
(457,-18,c),
(422,-231,l,{
name = hr00;
})
);
},
{
closed = 1;
nodes = (
(381,1196,o),
(494,1297,o),
(678,1308,c),
(598,821,l),
(572,829,l),
(447,866,o),
(381,924,o),
(381,1041,cs)
);
},
{
closed = 1;
nodes = (
(921,252,o),
(799,139,o),
(602,123,c),
(688,643,l),
(708,639,l),
(863,602,o),
(921,532,o),
(921,420,cs)
);
}
);
};
layerId = "9AAD14F8-FE06-4230-ACE0-3E9D6F8A5A9E";
shapes = (
{
ref = S;
},
{
closed = 1;
nodes = (
(420,-231,l),
(541,-231,l),
(857,1661,l),
(736,1661,l)
);
}
);
width = 1229;
},
{
background = {
shapes = (
{
closed = 1;
nodes = (
(497,-231,l),
(532,-25,l),
(828,-25,o),
(1036,98,o),
(1036,401,cs),
(1036,575,o),
(938,686,o),
(733,733,cs),
(662,750,l),
(772,1411,l),
(952,1403,o),
(1051,1350,o),
(1120,1231,c),
(1157,1253,l),
(1089,1370,o),
(985,1440,o),
(778,1452,c),
(813,1661,l),
(772,1661,l),
(737,1454,l),
(461,1454,o),
(250,1348,o),
(250,1063,cs),
(250,889,o),
(342,780,o),
(545,733,cs),
(615,717,l),
(497,18,l),
(291,31,o),
(188,111,o),
(111,233,c),
(76,207,l),
(156,80,o),
(273,-8,o),
(492,-23,c),
(457,-231,l,{
name = hr00;
})
);
},
{
closed = 1;
nodes = (
(295,1331,o),
(492,1413,o),
(731,1413,c),
(623,760,l),
(561,774,ls),
(377,817,o),
(295,903,o),
(295,1063,cs)
);
},
{
closed = 1;
nodes = (
(989,127,o),
(805,17,o),
(539,17,c),
(653,708,l),
(721,692,ls),
(909,647,o),
(989,561,o),
(989,401,cs)
);
}
);
};
layerId = "B042A474-670A-4404-9662-903C467C1F9E";
shapes = (
{
ref = S;
},
{
closed = 1;
nodes = (
(457,-231,l),
(497,-231,l),
(813,1661,l),
(772,1661,l)
);
}
);
width = 1229;
}
);
unicode = 36;
}
{
glyphname = percent;
layers = (
{
layerId = "586BE664-8D6A-4867-BE1B-390608DE01EA";
shapes = (
{
closed = 1;
nodes = (
(845,955,o),
(1048,1211,o),
(1048,1588,cs),
(1048,1842,o),
(910,1999,o),
(662,1999,cs),
(344,1999,o),
(141,1743,o),
(141,1366,cs),
(141,1112,o),
(279,955,o),
(527,955,cs)
);
},
{
closed = 1;
nodes = (
(465,1197,o),
(425,1242,o),
(425,1340,cs),
(425,1385,o),
(451,1507,o),
(459,1557,cs),
(479,1676,o),
(521,1757,o),
(636,1757,cs),
(724,1757,o),
(763,1712,o),
(763,1614,cs),
(763,1569,o),
(738,1447,o),
(729,1397,cs),
(710,1278,o),
(667,1197,o),
(552,1197,cs)
);
},
{
closed = 1;
nodes = (
(1326,1121,l),
(1892,1966,l,{
name = hr01;
}),
(1580,1966,l),
(1014,1121,l)
);
},
{
closed = 1;
nodes = (
(203,0,l),
(769,845,l),
(456,845,l),
(-110,0,l)
);
},
{
closed = 1;
nodes = (
(1439,-34,o),
(1642,222,o),
(1642,600,cs),
(1642,853,o),
(1504,1011,o),
(1256,1011,cs),
(938,1011,o),
(735,755,o),
(735,377,cs),
(735,124,o),
(873,-34,o),
(1121,-34,cs,{
name = hr02;
})
);
},
{
closed = 1;
nodes = (
(1059,208,o),
(1019,253,o),
(1019,352,cs),
(1019,397,o),
(1045,518,o),
(1053,569,cs),
(1073,687,o),
(1115,769,o),
(1231,769,cs),
(1318,769,o),
(1357,724,o),
(1357,625,cs),
(1357,580,o),
(1332,459,o),
(1324,408,cs),
(1304,290,o),
(1262,208,o),
(1146,208,cs)
);
}
);
width = 1690;
},
{
layerId = "9AAD14F8-FE06-4230-ACE0-3E9D6F8A5A9E";
shapes = (
{
closed = 1;
nodes = (
(814,1005,o),
(1033,1245,o),
(1033,1597,cs),
(1033,1864,o),
(890,1999,o),
(670,1999,cs),
(397,1999,o),
(177,1760,o),
(177,1408,cs),
(177,1140,o),
(321,1005,o),
(541,1005,cs)
);
},
{
closed = 1;
nodes = (
(422,1155,o),
(360,1228,o),
(360,1360,cs),
(360,1391,o),
(366,1422,o),
(391,1574,cs),
(420,1743,o),
(507,1850,o),
(665,1850,cs),
(788,1850,o),
(850,1777,o),
(850,1645,cs),
(850,1614,o),
(845,1583,o),
(819,1431,cs),
(791,1262,o),
(704,1155,o),
(546,1155,cs)
);
},
{
closed = 1;
nodes = (
(1259,1121,l),
(1847,1966,l,{
name = hr01;
}),
(1645,1966,l),
(1056,1121,l)
);
},
{
closed = 1;
nodes = (
(135,0,l),
(724,845,l),
(521,845,l),
(-68,0,l)
);
},
{
closed = 1;
nodes = (
(1383,-34,o),
(1602,206,o),
(1602,558,cs),
(1602,825,o),
(1459,960,o),
(1239,960,cs),
(966,960,o),
(746,721,o),
(746,369,cs),
(746,101,o),
(890,-34,o),
(1110,-34,cs,{
name = hr02;
})
);
},
{
closed = 1;
nodes = (
(991,115,o),
(929,189,o),
(929,321,cs),
(929,352,o),
(935,383,o),
(960,535,cs),
(988,704,o),
(1076,811,o),
(1233,811,cs),
(1357,811,o),
(1419,738,o),
(1419,605,cs),
(1419,574,o),
(1414,543,o),
(1388,391,cs),
(1360,222,o),
(1273,115,o),
(1115,115,cs)
);
}
);
width = 1690;
},
{
layerId = "B042A474-670A-4404-9662-903C467C1F9E";
shapes = (
{
closed = 1;
nodes = (
(786,1062,o),
(1014,1233,o),
(1014,1653,cs),
(1014,1873,o),
(867,1999,o),
(681,1999,cs),
(453,1999,o),
(225,1828,o),
(225,1408,cs),
(225,1188,o),
(372,1062,o),
(558,1062,cs)
);
},
{
closed = 1;
nodes = (
(408,1110,o),
(279,1200,o),
(279,1408,cs),
(279,1439,o),
(282,1473,o),
(301,1585,cs),
(349,1853,o),
(510,1951,o),
(681,1951,cs),
(831,1951,o),
(960,1861,o),
(960,1653,cs),
(960,1622,o),
(957,1588,o),
(938,1476,cs),
(890,1211,o),
(729,1110,o),
(558,1110,cs)
);
},
{
closed = 1;
nodes = (
(1171,1121,l),
(1816,1966,l,{
name = hr01;
}),
(1754,1966,l),
(1110,1121,l)
);
},
{
closed = 1;
nodes = (
(20,0,l),
(665,845,l),
(603,845,l),
(-42,0,l)
);
},
{
closed = 1;
nodes = (
(1321,-34,o),
(1549,138,o),
(1549,558,cs),
(1549,777,o),
(1402,904,o),
(1217,904,cs),
(988,904,o),
(760,732,o),
(760,313,cs),
(760,93,o),
(907,-34,o),
(1093,-34,cs,{
name = hr02;
})
);
},
{
closed = 1;
nodes = (
(943,14,o),
(814,104,o),
(814,313,cs),
(814,344,o),
(817,377,o),
(836,490,cs),
(884,758,o),
(1045,856,o),
(1217,856,cs),
(1366,856,o),
(1495,766,o),
(1495,558,cs),
(1495,527,o),
(1492,493,o),
(1473,380,cs),
(1425,115,o),
(1264,14,o),
(1093,14,cs)
);
}
);
width = 1690;
}
);
unicode = 37;
}
{
color = 4;
glyphname = ampersand;
layers = (
{
layerId = "586BE664-8D6A-4867-BE1B-390608DE01EA";
shapes = (
{
closed = 1;
nodes = (
(687,-34,o),
(864,82,o),
(921,273,c),
(941,273,l),
(1120,0,l,{
name = hr01;
}),
(1565,0,l),
(1274,445,l),
(1355,577,o),
(1412,704,o),
(1452,822,c),
(1649,822,l),
(1701,1132,l),
(1200,1132,l),
(1179,1008,o),
(1138,811,o),
(1094,684,c),
(1077,684,l),
(977,893,l),
(850,1095,ls),
(727,1289,o),
(679,1363,o),
(679,1448,cs),
(679,1465,o),
(679,1474,o),
(686,1507,cs),
(706,1626,o),
(744,1690,o),
(921,1690,cs),
(1053,1690,o),
(1113,1654,o),
(1117,1509,cs),
(1117,1505,o),
(1117,1500,o),
(1117,1495,c),
(1405,1495,l),
(1411,1531,o),
(1414,1565,o),
(1414,1597,cs),
(1414,1864,o),
(1212,1999,o),
(916,1999,cs),
(530,1999,o),
(365,1781,o),
(328,1553,cs),
(316,1482,o),
(313,1453,o),
(313,1425,cs),
(313,1309,o),
(355,1206,o),
(430,1073,c),
(212,946,o),
(47,772,o),
(9,545,cs,{
name = hr02;
}),
(-4,468,o),
(-10,412,o),
(-10,359,cs),
(-10,138,o),
(91,-34,o),
(456,-34,cs)
);
},
{
closed = 1;
nodes = (
(435,284,o),
(384,344,o),
(384,456,cs),
(384,490,o),
(387,516,o),
(395,563,cs),
(413,670,o),
(452,766,o),
(563,859,c),
(849,397,l),
(784,313,o),
(699,284,o),
(592,284,cs)
);
}
);
width = 1690;
},
{
layerId = "9AAD14F8-FE06-4230-ACE0-3E9D6F8A5A9E";
shapes = (
{
closed = 1;
nodes = (
(748,-34,o),
(914,80,o),
(1011,290,c),
(1025,290,l),
(1221,0,l,{
name = hr01;
}),
(1489,0,l),
(1213,406,l),
(1307,580,o),
(1339,704,o),
(1395,884,c),
(1606,884,l),
(1638,1073,l),
(1241,1073,l),
(1202,893,o),
(1165,693,o),
(1116,546,c),
(1102,546,l),
(938,800,l),
(738,1112,ls),
(642,1261,o),
(593,1354,o),
(593,1466,cs),
(593,1496,o),
(594,1507,o),
(603,1562,cs),
(630,1727,o),
(687,1808,o),
(892,1808,cs),
(1080,1808,o),
(1143,1740,o),
(1147,1590,cs),
(1147,1585,o),
(1147,1580,o),
(1147,1575,c),
(1370,1575,l),
(1374,1598,o),
(1376,1620,o),
(1376,1641,cs),
(1376,1854,o),
(1190,1999,o),
(896,1999,cs),
(538,1999,o),
(422,1808,o),
(384,1582,cs),
(373,1517,o),
(370,1484,o),
(370,1452,cs),
(370,1305,o),
(427,1190,o),
(493,1081,c),
(185,937,o),
(75,757,o),
(43,565,cs,{
name = hr02;
}),
(25,456,o),
(20,407,o),
(20,361,cs),
(20,142,o),
(125,-34,o),
(470,-34,cs)
);
},
{
closed = 1;
nodes = (
(313,166,o),
(255,264,o),
(255,389,cs),
(255,429,o),
(259,455,o),
(273,541,cs),
(308,751,o),
(388,842,o),
(578,949,c),
(969,358,l),
(863,223,o),
(737,166,o),
(553,166,cs)
);
}
);
width = 1690;
},
{
layerId = "B042A474-670A-4404-9662-903C467C1F9E";
shapes = (
{
closed = 1;
nodes = (
(868,-34,o),
(977,101,o),
(1112,304,c),
(1120,304,l),
(1331,0,l,{
name = hr01;
}),
(1404,0,l),
(1151,369,l),
(1231,560,o),
(1265,672,o),
(1339,952,c),
(1570,952,l),
(1579,1008,l),
(1292,1008,l),
(1215,708,o),
(1187,602,o),
(1118,420,c),
(1109,420,l),
(930,679,l),
(631,1115,ls),
(559,1220,o),
(506,1341,o),
(506,1461,cs),
(506,1496,o),
(509,1517,o),
(517,1566,cs),
(558,1811,o),
(622,1943,o),
(969,1943,cs),
(1201,1943,o),
(1283,1884,o),
(1283,1722,cs),
(1283,1700,o),
(1281,1677,o),
(1278,1651,c),
(1332,1651,l),
(1338,1685,o),
(1341,1717,o),
(1341,1746,cs),
(1341,1927,o),
(1224,1999,o),
(973,1999,cs),
(650,1999,o),
(509,1899,o),
(456,1582,cs),
(448,1535,o),
(445,1493,o),
(445,1453,cs),
(445,1312,o),
(491,1209,o),
(571,1090,c),
(246,940,o),
(133,818,o),
(80,498,cs),
(70,436,o),
(63,377,o),
(63,324,cs),
(63,104,o),
(168,-34,o),
(520,-34,cs)
);
},
{
closed = 1;
nodes = (
(211,23,o),
(125,149,o),
(125,323,cs),
(125,372,o),
(129,403,o),
(149,521,cs),
(196,807,o),
(289,904,o),
(597,1048,c),
(1080,352,l),
(958,154,o),
(861,23,o),
(533,23,cs)
);
}
);
width = 1690;
}
);
unicode = 38;
}
{
glyphname = quotesingle;
layers = (
{
layerId = "586BE664-8D6A-4867-BE1B-390608DE01EA";
shapes = (
{
closed = 1;
nodes = (
(913,1516,l),
(647,1516,l),
(537,850,l),
(803,850,l,{
name = hr00;
})
);
}
);
width = 1229;
},
{
layerId = "9AAD14F8-FE06-4230-ACE0-3E9D6F8A5A9E";
shapes = (
{
closed = 1;
nodes = (
(854,1516,l),
(703,1516,l),
(608,951,l),
(760,951,l,{
name = hr00;
})
);
}
);
width = 1229;
},
{
layerId = "B042A474-670A-4404-9662-903C467C1F9E";
shapes = (
{
closed = 1;
nodes = (
(805,1516,l),
(756,1516,l),
(670,1004,l),
(719,1004,l,{
name = hr00;
})
);
}
);
width = 1229;
}
);
unicode = 39;
}
{
glyphname = parenleft;
layers = (
{
layerId = "586BE664-8D6A-4867-BE1B-390608DE01EA";
shapes = (
{
closed = 1;
nodes = (
(348,168,o),
(481,-119,o),
(647,-281,c),
(916,-281,l),
(751,-117,o),
(596,168,o),
(596,436,cs),
(596,479,o),
(598,514,o),
(607,563,cs),
(639,758,ls),
(690,1065,o),
(928,1350,o),
(1220,1556,c),
(928,1556,l),
(617,1350,o),
(348,944,o),
(348,489,cs,{
name = hr00;
})
);
}
);
width = 1229;
},
{
layerId = "9AAD14F8-FE06-4230-ACE0-3E9D6F8A5A9E";
shapes = (
{
closed = 1;
nodes = (
(422,125,o),
(553,-139,o),
(721,-283,c),
(879,-283,l),
(700,-131,o),
(563,113,o),
(563,399,cs),
(563,449,o),
(567,502,o),
(575,551,cs),
(604,725,ls),
(662,1069,o),
(909,1370,o),
(1184,1556,c),
(1009,1556,l),
(711,1358,o),
(422,916,o),
(422,442,cs,{
name = hr00;
})
);
}
);
width = 1229;
},
{
layerId = "B042A474-670A-4404-9662-903C467C1F9E";
shapes = (
{
closed = 1;
nodes = (
(484,156,o),
(612,-96,o),
(766,-283,c),
(809,-283,l),
(629,-65,o),
(522,170,o),
(522,475,cs),
(522,535,o),
(524,592,o),
(537,653,cs),
(549,723,ls),
(610,1069,o),
(850,1370,o),
(1119,1556,c),
(1065,1556,l),
(756,1340,o),
(484,969,o),
(484,475,cs,{
name = hr00;
})
);
}
);
width = 1229;
}
);
unicode = 40;
}
{
glyphname = parenright;
layers = (
{
layerId = "586BE664-8D6A-4867-BE1B-390608DE01EA";
shapes = (
{
closed = 1;
nodes = (
(1273,1523,o),
(1090,1918,o),
(862,2140,c),
(493,2140,l),
(718,1915,o),
(932,1523,o),
(932,1155,cs),
(932,1095,o),
(929,1048,o),
(918,980,cs),
(873,712,ls),
(803,290,o),
(476,-101,o),
(73,-386,c),
(476,-386,l),
(904,-101,o),
(1273,456,o),
(1273,1081,cs,{
name = hr00;
})
);
}
);
width = 1690;
},
{
layerId = "9AAD14F8-FE06-4230-ACE0-3E9D6F8A5A9E";
shapes = (
{
closed = 1;
nodes = (
(1163,1580,o),
(983,1943,o),
(752,2140,c),
(535,2140,l),
(780,1932,o),
(969,1597,o),
(969,1202,cs),
(969,1135,o),
(963,1062,o),
(952,994,cs),
(912,755,ls),
(834,282,o),
(493,-132,o),
(115,-389,c),
(355,-389,l),
(766,-115,o),
(1163,493,o),
(1163,1143,cs,{
name = hr00;
})
);
}
);
width = 1690;
},
{
layerId = "B042A474-670A-4404-9662-903C467C1F9E";
shapes = (
{
closed = 1;
nodes = (
(1079,1538,o),
(901,1884,o),
(690,2140,c),
(631,2140,l),
(879,1842,o),
(1025,1518,o),
(1025,1098,cs),
(1025,1017,o),
(1022,938,o),
(1005,853,cs),
(988,758,ls),
(904,282,o),
(574,-132,o),
(206,-389,c),
(279,-389,l),
(704,-90,o),
(1079,420,o),
(1079,1098,cs,{
name = hr00;
})
);
}
);
width = 1690;
}
);
unicode = 41;
}
{
glyphname = asterisk;
layers = (
{
layerId = "586BE664-8D6A-4867-BE1B-390608DE01EA";
shapes = (
{
closed = 1;
nodes = (
(1059,113,l),
(1366,307,l),
(1118,710,l),
(1628,893,l),
(1569,1214,l),
(1067,1042,l),
(1152,1543,l),
(797,1543,l),
(712,1042,l),
(268,1214,l),
(113,901,l),
(558,729,l),
(172,307,l),
(442,113,l),
(811,535,l,{
name = hr00;
})
);
}
);
width = 1690;
},
{
layerId = "9AAD14F8-FE06-4230-ACE0-3E9D6F8A5A9E";
shapes = (
{
closed = 1;
nodes = (
(1104,155,l),
(1267,270,l),
(1000,743,l),
(1583,935,l),
(1557,1115,l),
(980,935,l),
(1081,1543,l),
(879,1543,l),
(777,935,l),
(242,1115,l),
(158,946,l),
(681,752,l),
(259,279,l),
(408,155,l),
(834,639,l,{
name = hr00;
})
);
}
);
width = 1690;
},
{
layerId = "B042A474-670A-4404-9662-903C467C1F9E";
shapes = (
{
closed = 1;
nodes = (
(1200,144,l),
(1250,172,l),
(907,783,l),
(1608,994,l),
(1597,1048,l),
(895,839,l),
(1014,1546,l),
(955,1546,l),
(836,836,l),
(206,1045,l),
(180,997,l),
(808,788,l),
(262,177,l),
(307,144,l),
(853,758,l,{
name = hr00;
})
);
}
);
width = 1690;
}
);
unicode = 42;
}
{
glyphname = plus;
layers = (
{
layerId = "586BE664-8D6A-4867-BE1B-390608DE01EA";
shapes = (
{
closed = 1;
nodes = (
(1019,696,l),
(1512,696,l),
(1569,1022,l),
(1073,1022,l),
(1160,1543,l),
(805,1543,l),
(718,1022,l),
(228,1022,l),
(172,696,l),
(665,696,l),
(577,175,l),
(932,175,l,{
name = hr00;
})
);
}
);
width = 1690;
},
{
layerId = "9AAD14F8-FE06-4230-ACE0-3E9D6F8A5A9E";
shapes = (
{
closed = 1;
nodes = (
(955,766,l),
(1512,766,l),
(1543,952,l),
(986,952,l),
(1084,1543,l),
(876,1543,l),
(777,952,l),
(220,952,l),
(189,766,l),
(746,766,l),
(648,175,l),
(856,175,l,{
name = hr00;
})
);
}
);
width = 1690;
},
{
layerId = "B042A474-670A-4404-9662-903C467C1F9E";
shapes = (
{
closed = 1;
nodes = (
(893,834,l),
(1535,834,l),
(1543,887,l),
(901,887,l),
(1011,1546,l),
(952,1546,l),
(842,887,l),
(200,887,l),
(191,834,l),
(834,834,l),
(724,175,l),
(783,175,l,{
name = hr00;
})
);
}
);
width = 1690;
}
);
unicode = 43;
}
{
glyphname = comma;
layers = (
{
layerId = "586BE664-8D6A-4867-BE1B-390608DE01EA";
shapes = (
{
closed = 1;
nodes = (
(605,-425,l),
(1121,487,l),
(594,487,l),
(287,-425,l,{
name = hr00;
})
);
}
);
width = 1690;
},
{
layerId = "9AAD14F8-FE06-4230-ACE0-3E9D6F8A5A9E";
shapes = (
{
closed = 1;
nodes = (
(577,-397,l),
(1025,380,l),
(667,380,l),
(391,-397,l,{
name = hr00;
})
);
}
);
width = 1690;
},
{
layerId = "B042A474-670A-4404-9662-903C467C1F9E";
shapes = (
{
closed = 1;
nodes = (
(496,-484,l),
(831,220,l),
(712,220,l),
(445,-484,l,{
name = hr00;
})
);
}
);
width = 1690;
}
);
unicode = 44;
}
{
glyphname = hyphen;
layers = (
{
layerId = "586BE664-8D6A-4867-BE1B-390608DE01EA";
shapes = (
{
closed = 1;
nodes = (
(1349,1056,l),
(456,1056,l),
(391,662,l),
(1284,662,l,{
name = hr00;
})
);
}
);
width = 1690;
},
{
layerId = "9AAD14F8-FE06-4230-ACE0-3E9D6F8A5A9E";
shapes = (
{
closed = 1;
nodes = (
(1287,972,l),
(482,972,l),
(442,741,l),
(1247,741,l,{
name = hr00;
})
);
}
);
width = 1690;
},
{
layerId = "B042A474-670A-4404-9662-903C467C1F9E";
shapes = (
{
closed = 1;
nodes = (
(1242,887,l),
(498,887,l),
(490,831,l),
(1233,831,l,{
name = hr00;
})
);
}
);
width = 1690;
}
);
unicode = 45;
}
{
glyphname = period;
layers = (
{
layerId = "586BE664-8D6A-4867-BE1B-390608DE01EA";
shapes = (
{
closed = 1;
nodes = (
(927,-34,o),
(1060,99,o),
(1060,264,cs),
(1060,428,o),
(927,561,o),
(763,561,cs),
(598,561,o),
(465,428,o),
(465,264,cs),
(465,99,o),
(598,-34,o),
(763,-34,cs)
);
}
);
width = 1690;
},
{
layerId = "9AAD14F8-FE06-4230-ACE0-3E9D6F8A5A9E";
shapes = (
{
closed = 1;
nodes = (
(868,-34,o),
(962,60,o),
(962,176,cs),
(962,291,o),
(868,385,o),
(753,385,cs),
(637,385,o),
(543,291,o),
(543,176,cs),
(543,60,o),
(637,-34,o),
(753,-34,cs)
);
}
);
width = 1690;
},
{
layerId = "B042A474-670A-4404-9662-903C467C1F9E";
shapes = (
{
closed = 1;
nodes = (
(790,-16,o),
(833,27,o),
(833,81,cs),
(833,134,o),
(790,177,o),
(737,177,cs),
(683,177,o),
(640,134,o),
(640,81,cs),
(640,27,o),
(683,-16,o),
(737,-16,cs)
);
}
);
width = 1690;
}
);
unicode = 46;
}
{
glyphname = slash;
layers = (
{
layerId = "586BE664-8D6A-4867-BE1B-390608DE01EA";
shapes = (
{
closed = 1;
nodes = (
(1687,2140,l),
(1309,2140,l),
(3,-389,l),
(380,-389,l,{
name = hr00;
})
);
}
);
width = 1690;
},
{
layerId = "9AAD14F8-FE06-4230-ACE0-3E9D6F8A5A9E";
shapes = (
{
closed = 1;
nodes = (
(1673,2140,l),
(1467,2140,l),
(70,-389,l),
(273,-389,l,{
name = hr00;
})
);
}
);
width = 1690;
},
{
layerId = "B042A474-670A-4404-9662-903C467C1F9E";
shapes = (
{
closed = 1;
nodes = (
(1605,2140,l),
(1549,2140,l),
(110,-389,l),
(166,-389,l,{
name = hr00;
})
);
}
);
width = 1690;
}
);
unicode = 47;
}
{
color = 1;
glyphname = zero;
layers = (
{
background = {
shapes = (
{
closed = 1;
nodes = (
(1411,-34,o),
(1667,597,o),
(1667,1245,cs),
(1667,1715,o),
(1459,1999,o),
(986,1999,cs),
(358,1999,o),
(101,1369,o),
(101,721,cs),
(101,251,o),
(315,-34,o),
(783,-34,cs,{
name = hr00;
})
);
},
{
closed = 1;
nodes = (
(597,290,o),
(510,408,o),
(510,605,cs),
(510,670,o),
(515,729,o),
(529,814,cs),
(589,1171,ls),
(642,1492,o),
(729,1676,o),
(986,1676,cs),
(1171,1676,o),
(1259,1557,o),
(1259,1360,cs),
(1259,1295,o),
(1253,1236,o),
(1239,1152,cs),
(1180,794,ls),
(1126,473,o),
(1039,290,o),
(783,290,cs)
);
},
{
closed = 1;
nodes = (
(988,817,o),
(1045,867,o),
(1059,952,cs),
(1064,986,o),
(1067,1014,o),
(1067,1031,cs),
(1067,1098,o),
(1019,1149,o),
(904,1149,cs),
(780,1149,o),
(724,1098,o),
(710,1014,cs),
(704,980,o),
(701,952,o),
(701,935,cs),
(701,867,o),
(749,817,o),
(865,817,cs)
);
}
);
};
layerId = "586BE664-8D6A-4867-BE1B-390608DE01EA";
shapes = (
{
ref = O;
}
);
width = 1690;
},
{
background = {
shapes = (
{
closed = 1;
nodes = (
(1431,-34,o),
(1605,836,o),
(1605,1332,cs),
(1605,1760,o),
(1431,1999,o),
(1048,1999,cs),
(349,1999,o),
(175,1129,o),
(175,634,cs),
(175,206,o),
(349,-34,o),
(732,-34,cs,{
name = hr00;
})
);
},
{
closed = 1;
nodes = (
(501,169,o),
(397,324,o),
(397,591,cs),
(397,656,o),
(403,738,o),
(417,822,cs),
(470,1143,ls),
(538,1546,o),
(729,1797,o),
(1031,1797,cs),
(1278,1797,o),
(1383,1642,o),
(1383,1374,cs),
(1383,1309,o),
(1377,1228,o),
(1363,1143,cs),
(1309,822,ls),
(1242,420,o),
(1050,169,o),
(749,169,cs)
);
},
{
closed = 1;
nodes = (
(997,819,o),
(1048,879,o),
(1062,963,cs),
(1067,997,o),
(1073,1025,o),
(1073,1042,cs),
(1073,1101,o),
(1028,1146,o),
(915,1146,cs),
(783,1146,o),
(732,1087,o),
(718,1002,cs),
(712,969,o),
(707,941,o),
(707,924,cs),
(707,865,o),
(752,819,o),
(865,819,cs)
);
}
);
};
layerId = "9AAD14F8-FE06-4230-ACE0-3E9D6F8A5A9E";
shapes = (
{
ref = O;
}
);
width = 1690;
},
{
background = {
shapes = (
{
closed = 1;
nodes = (
(1312,-34,o),
(1549,667,o),
(1549,1349,cs),
(1549,1802,o),
(1366,1999,o),
(1025,1999,cs),
(451,1999,o),
(214,1298,o),
(214,617,cs),
(214,163,o),
(397,-34,o),
(738,-34,cs,{
name = hr00;
})
);
},
{
closed = 1;
nodes = (
(411,23,o),
(273,222,o),
(273,617,cs),
(273,712,o),
(276,819,o),
(296,932,cs),
(324,1098,ls),
(417,1639,o),
(667,1943,o),
(1025,1943,cs),
(1352,1943,o),
(1490,1743,o),
(1490,1349,cs),
(1490,1253,o),
(1487,1146,o),
(1467,1033,cs),
(1439,867,ls),
(1346,327,o),
(1095,23,o),
(738,23,cs)
);
},
{
closed = 1;
nodes = (
(921,912,o),
(943,932,o),
(952,969,cs),
(957,988,o),
(957,997,o),
(957,1008,cs),
(957,1031,o),
(941,1053,o),
(893,1053,cs),
(842,1053,o),
(819,1033,o),
(811,997,cs),
(805,977,o),
(805,969,o),
(805,957,cs),
(805,935,o),
(822,912,o),
(870,912,cs)
);
}
);
};
layerId = "B042A474-670A-4404-9662-903C467C1F9E";
shapes = (
{
ref = O;
}
);
width = 1690;
}
);
unicode = 48;
}
{
glyphname = one;
layers = (
{
layerId = "586BE664-8D6A-4867-BE1B-390608DE01EA";
shapes = (
{
closed = 1;
nodes = (
(1129,246,l),
(823,246,l),
(1020,1430,l),
(545,1430,l),
(135,979,l),
(316,825,l),
(662,1207,l),
(680,1207,l),
(520,246,l),
(137,246,l),
(96,0,l),
(1087,0,l,{
name = hr00;
})
);
}
);
width = 1229;
},
{
layerId = "9AAD14F8-FE06-4230-ACE0-3E9D6F8A5A9E";
shapes = (
{
closed = 1;
nodes = (
(1067,148,l),
(688,148,l),
(903,1430,l),
(635,1430,l),
(199,1075,l),
(283,967,l),
(698,1303,l),
(715,1303,l),
(520,148,l),
(111,148,l),
(86,0,l),
(1042,0,l,{
name = hr00;
})
);
}
);
width = 1229;
},
{
layerId = "B042A474-670A-4404-9662-903C467C1F9E";
shapes = (
{
closed = 1;
nodes = (
(1034,41,l),
(602,41,l),
(833,1430,l),
(751,1430,l),
(252,1059,l),
(274,1026,l),
(776,1397,l),
(783,1397,l),
(557,41,l),
(108,41,l),
(103,0,l),
(1028,0,l,{
name = hr00;
})
);
}
);
width = 1229;
}
);
unicode = 49;
}
{
color = 4;
glyphname = two;
layers = (
{
background = {
shapes = (
{
closed = 1;
nodes = (
(271,145,l),
(735,502,ls),
(985,692,o),
(1129,863,o),
(1129,1089,cs),
(1129,1305,o),
(975,1454,o),
(719,1454,cs),
(451,1454,o),
(301,1305,o),
(219,1120,c),
(367,1063,l),
(430,1198,o),
(527,1308,o),
(700,1308,cs),
(860,1308,o),
(952,1219,o),
(952,1087,cs),
(952,1067,o),
(951,1047,o),
(946,1022,cs),
(919,863,o),
(866,786,o),
(637,607,cs),
(88,174,l),
(60,0,l),
(1009,0,l),
(1034,145,l,{
name = hr00;
})
);
}
);
};
layerId = "9AAD14F8-FE06-4230-ACE0-3E9D6F8A5A9E";
shapes = (
{
closed = 1;
nodes = (
(1011,0,l),
(1036,150,l,{
name = hr00;
}),
(260,150,l),
(725,495,ls),
(1079,757,o),
(1140,937,o),
(1140,1106,cs),
(1140,1313,o),
(1003,1454,o),
(737,1454,cs),
(451,1454,o),
(276,1333,o),
(225,1042,c),
(402,1042,l),
(448,1235,o),
(525,1305,o),
(718,1305,cs),
(879,1305,o),
(959,1225,o),
(959,1089,cs),
(959,965,o),
(913,811,o),
(643,604,cs),
(87,176,l),
(57,0,l)
);
}
);
width = 1229;
},
{
layerId = "B042A474-670A-4404-9662-903C467C1F9E";
shapes = (
{
closed = 1;
nodes = (
(978,0,l),
(985,41,l,{
name = hr00;
}),
(148,41,l),
(775,593,ls),
(1084,867,o),
(1113,1031,o),
(1113,1175,cs),
(1113,1368,o),
(972,1454,o),
(761,1454,cs),
(488,1454,o),
(340,1353,o),
(297,1097,c),
(345,1097,l),
(388,1334,o),
(516,1413,o),
(756,1413,cs),
(948,1413,o),
(1065,1338,o),
(1065,1177,cs),
(1065,1059,o),
(1068,908,o),
(751,625,cs),
(97,47,l),
(89,0,l)
);
}
);
width = 1229;
},
{
associatedMasterId = "586BE664-8D6A-4867-BE1B-390608DE01EA";
background = {
shapes = (
{
closed = 1;
nodes = (
(428,254,l),
(735,475,ls),
(1014,676,o),
(1188,811,o),
(1188,1055,cs),
(1188,1295,o),
(1014,1454,o),
(717,1454,cs),
(440,1454,o),
(268,1297,o),
(172,1092,c),
(434,989,l),
(479,1096,o),
(557,1192,o),
(692,1192,cs),
(803,1192,o),
(864,1130,o),
(864,1047,cs),
(864,1024,o),
(863,1006,o),
(860,993,cs),
(841,883,o),
(768,795,o),
(588,662,cs),
(70,279,l),
(25,0,l),
(1049,0,l),
(1092,254,l,{
name = hr00;
})
);
}
);
};
layerId = "3F7C8E07-5896-409B-9AAE-A69760EF8932";
name = "1. Mai 24, 17:21";
shapes = (
{
closed = 1;
nodes = (
(1048,0,l),
(1092,258,l,{
name = hr00;
}),
(404,258,l),
(714,483,ls),
(908,623,o),
(1146,771,o),
(1183,1006,cs),
(1222,1260,o),
(1082,1454,o),
(745,1454,cs),
(431,1454,o),
(202,1327,o),
(148,1003,c),
(464,1003,l),
(504,1158,o),
(583,1188,o),
(703,1188,cs),
(822,1188,o),
(884,1158,o),
(858,1006,cs),
(855,985,ls),
(836,876,o),
(761,804,o),
(583,671,cs),
(67,281,l),
(20,0,l)
);
}
);
width = 1229;
},
{
layerId = "586BE664-8D6A-4867-BE1B-390608DE01EA";
name = Bold;
shapes = (
{
closed = 1;
nodes = (
(1048,0,l),
(1092,258,l,{
name = hr00;
}),
(404,258,l),
(742,473,ls),
(1123,716,o),
(1193,891,o),
(1193,1071,cs),
(1193,1283,o),
(1048,1454,o),
(724,1454,cs),
(431,1454,o),
(196,1314,o),
(148,1003,c),
(464,1003,l),
(500,1150,o),
(583,1188,o),
(687,1188,cs),
(801,1188,o),
(862,1143,o),
(862,1033,cs),
(862,948,o),
(855,817,o),
(580,631,cs),
(67,281,l),
(20,0,l)
);
}
);
width = 1229;
},
{
associatedMasterId = "9AAD14F8-FE06-4230-ACE0-3E9D6F8A5A9E";
background = {
shapes = (
{
closed = 1;
nodes = (
(271,145,l),
(735,502,ls),
(985,692,o),
(1129,863,o),
(1129,1089,cs),
(1129,1305,o),
(975,1454,o),
(719,1454,cs),
(451,1454,o),
(301,1305,o),
(219,1120,c),
(367,1063,l),
(430,1198,o),
(527,1308,o),
(700,1308,cs),
(860,1308,o),
(952,1219,o),
(952,1087,cs),
(952,1067,o),
(951,1047,o),
(946,1022,cs),
(919,863,o),
(866,786,o),
(637,607,cs),
(88,174,l),
(60,0,l),
(1009,0,l),
(1034,145,l,{
name = hr00;
})
);
}
);
};
layerId = "F840B6DA-8A3A-43AE-9290-2024B0A60DD7";
name = "1. Mai 24, 17:22";
shapes = (
{
closed = 1;
nodes = (
(1011,0,l),
(1036,150,l,{
name = hr00;
}),
(260,150,l),
(725,540,ls),
(948,728,o),
(1097,855,o),
(1132,1065,cs),
(1172,1307,o),
(1060,1454,o),
(766,1454,cs),
(487,1454,o),
(282,1347,o),
(224,1042,c),
(402,1042,l),
(454,1249,o),
(554,1305,o),
(739,1305,cs),
(922,1305,o),
(980,1231,o),
(951,1059,cs),
(947,1034,ls),
(924,895,o),
(798,781,o),
(643,649,cs),
(87,176,l),
(57,0,l)
);
}
);
width = 1229;
},
{
associatedMasterId = "586BE664-8D6A-4867-BE1B-390608DE01EA";
background = {
shapes = (
{
closed = 1;
nodes = (
(428,254,l),
(735,475,ls),
(1014,676,o),
(1188,811,o),
(1188,1055,cs),
(1188,1295,o),
(1014,1454,o),
(717,1454,cs),
(440,1454,o),
(268,1297,o),
(172,1092,c),
(434,989,l),
(479,1096,o),
(557,1192,o),
(692,1192,cs),
(803,1192,o),
(864,1130,o),
(864,1047,cs),
(864,1024,o),
(863,1006,o),
(860,993,cs),
(841,883,o),
(768,795,o),
(588,662,cs),
(70,279,l),
(25,0,l),
(1049,0,l),
(1092,254,l,{
name = hr00;
})
);
}
);
};
layerId = "9D30A919-BBF3-4E1B-8274-9279CB1F9F7D";
name = "1. Mai 24, 17:23";
shapes = (
{
closed = 1;
nodes = (
(1048,0,l),
(1092,258,l,{
name = hr00;
}),
(404,258,l),
(714,483,ls),
(908,623,o),
(1148,777,o),
(1194,1053,cs),
(1236,1307,o),
(1082,1454,o),
(745,1454,cs),
(431,1454,o),
(202,1327,o),
(148,1003,c),
(464,1003,l),
(504,1158,o),
(583,1188,o),
(703,1188,cs),
(822,1188,o),
(884,1158,o),
(858,1006,cs),
(855,985,ls),
(836,876,o),
(761,804,o),
(583,671,cs),
(67,281,l),
(20,0,l)
);
}
);
width = 1229;
}
);
unicode = 50;
}
{
glyphname = three;
layers = (
{
layerId = "586BE664-8D6A-4867-BE1B-390608DE01EA";
shapes = (
{
closed = 1;
nodes = (
(580,839,l),
(791,839,ls),
(966,839,o),
(1079,758,o),
(1079,622,cs),
(1079,597,o),
(1076,566,o),
(1073,549,cs),
(1048,397,o),
(932,307,o),
(735,307,cs),
(513,307,o),
(403,411,o),
(332,560,c),
(34,344,l),
(124,144,o),
(321,-34,o),
(718,-34,cs),
(1239,-34,o),
(1518,239,o),
(1518,605,cs),
(1518,839,o),
(1377,983,o),
(1169,1019,c),
(1171,1033,l),
(1459,1098,o),
(1633,1276,o),
(1633,1532,cs,{
name = hr01;
}),
(1633,1816,o),
(1385,1999,o),
(997,1999,cs),
(650,1999,o),
(445,1873,o),
(270,1687,c),
(501,1428,l),
(625,1594,o),
(766,1659,o),
(924,1659,cs),
(1081,1659,o),
(1183,1583,o),
(1183,1459,cs),
(1183,1433,o),
(1180,1416,o),
(1174,1383,cs),
(1157,1281,o),
(1056,1188,o),
(828,1188,cs),
(639,1188,l)
);
}
);
width = 1690;
},
{
layerId = "9AAD14F8-FE06-4230-ACE0-3E9D6F8A5A9E";
shapes = (
{
closed = 1;
nodes = (
(574,932,l),
(808,932,ls),
(1064,932,o),
(1186,819,o),
(1186,628,cs),
(1186,600,o),
(1180,560,o),
(1174,524,cs),
(1138,290,o),
(969,166,o),
(698,166,cs),
(434,166,o),
(335,282,o),
(259,431,c),
(68,313,l),
(161,141,o),
(310,-34,o),
(673,-34,cs),
(1146,-34,o),
(1428,265,o),
(1428,603,cs),
(1428,850,o),
(1276,997,o),
(1079,1028,c),
(1081,1039,l),
(1383,1107,o),
(1549,1318,o),
(1549,1563,cs,{
name = hr01;
}),
(1549,1844,o),
(1329,1999,o),
(1005,1999,cs),
(690,1999,o),
(507,1850,o),
(375,1678,c),
(529,1546,l),
(628,1684,o),
(769,1799,o),
(983,1799,cs),
(1174,1799,o),
(1304,1706,o),
(1304,1549,cs),
(1304,1521,o),
(1298,1490,o),
(1293,1459,cs),
(1256,1259,o),
(1095,1129,o),
(825,1129,cs),
(608,1129,l)
);
}
);
width = 1690;
},
{
layerId = "B042A474-670A-4404-9662-903C467C1F9E";
shapes = (
{
closed = 1;
nodes = (
(583,1002,l),
(850,1002,ls),
(1146,1002,o),
(1304,839,o),
(1304,600,cs),
(1304,574,o),
(1304,549,o),
(1287,451,cs),
(1245,186,o),
(1031,23,o),
(724,23,cs),
(456,23,o),
(276,101,o),
(183,296,c),
(135,268,l),
(231,59,o),
(445,-34,o),
(721,-34,cs),
(1107,-34,o),
(1366,194,o),
(1366,600,cs),
(1366,831,o),
(1211,997,o),
(1017,1022,c),
(1017,1031,l),
(1312,1076,o),
(1481,1259,o),
(1481,1571,cs),
(1481,1839,o),
(1264,1999,o),
(991,1999,cs),
(696,1999,o),
(515,1884,o),
(411,1687,c),
(462,1661,l),
(569,1856,o),
(721,1943,o),
(983,1943,cs),
(1245,1943,o),
(1419,1802,o),
(1419,1569,cs),
(1419,1546,o),
(1416,1518,o),
(1405,1442,cs),
(1366,1194,o),
(1160,1059,o),
(856,1059,cs),
(591,1059,l,{
name = hr00;
})
);
}
);
width = 1690;
}
);
unicode = 51;
}
{
glyphname = four;
layers = (
{
layerId = "586BE664-8D6A-4867-BE1B-390608DE01EA";
shapes = (
{
closed = 1;
nodes = (
(951,274,l),
(1132,274,l),
(1172,510,l),
(989,510,l),
(1143,1430,l),
(776,1430,l),
(57,540,l),
(12,274,l),
(655,274,l),
(610,0,l),
(905,0,l,{
name = hr00;
})
);
},
{
closed = 1;
nodes = (
(791,1085,l),
(695,510,l),
(309,510,l),
(774,1085,l)
);
}
);
width = 1229;
},
{
layerId = "9AAD14F8-FE06-4230-ACE0-3E9D6F8A5A9E";
shapes = (
{
closed = 1;
nodes = (
(897,281,l),
(1112,281,l),
(1135,420,l),
(919,420,l),
(1089,1430,l),
(863,1430,l),
(57,439,l),
(31,281,l),
(737,281,l),
(690,0,l),
(850,0,l,{
name = hr00;
})
);
},
{
closed = 1;
nodes = (
(901,1257,l),
(760,420,l),
(211,420,l),
(893,1257,l)
);
}
);
width = 1229;
},
{
layerId = "B042A474-670A-4404-9662-903C467C1F9E";
shapes = (
{
closed = 1;
nodes = (
(854,328,l),
(1094,328,l),
(1100,367,l),
(860,367,l),
(1039,1430,l),
(983,1430,l),
(70,371,l),
(63,328,l),
(811,328,l),
(756,0,l),
(799,0,l,{
name = hr00;
})
);
},
{
closed = 1;
nodes = (
(983,1366,l),
(817,367,l),
(119,367,l),
(977,1366,l)
);
}
);
width = 1229;
}
);
unicode = 52;
}
{
color = 4;
glyphname = five;
layers = (
{
layerId = "586BE664-8D6A-4867-BE1B-390608DE01EA";
shapes = (
{
closed = 1;
nodes = (
(324,1430,l),
(144,623,l),
(396,585,l),
(446,637,o),
(519,686,o),
(650,686,cs),
(756,686,o),
(835,654,o),
(835,543,cs),
(835,521,o),
(832,489,o),
(826,456,cs),
(795,275,o),
(707,225,o),
(574,225,cs),
(416,225,o),
(367,295,o),
(367,401,cs),
(367,409,o),
(367,417,o),
(368,426,c),
(76,426,l),
(71,397,o),
(68,369,o),
(68,343,cs),
(68,81,o),
(298,-25,o),
(572,-25,cs),
(903,-25,o),
(1094,131,o),
(1143,443,cs),
(1150,489,o),
(1153,536,o),
(1153,575,cs),
(1153,830,o),
(996,934,o),
(798,934,cs),
(617,934,o),
(516,847,o),
(429,708,c),
(411,708,l),
(520,1161,l),
(1181,1161,l),
(1225,1430,l,{
name = hr00;
})
);
}
);
width = 1229;
},
{
layerId = "9AAD14F8-FE06-4230-ACE0-3E9D6F8A5A9E";
shapes = (
{
closed = 1;
nodes = (
(394,1430,l),
(211,643,l),
(358,623,l),
(439,697,o),
(505,743,o),
(649,743,cs),
(808,743,o),
(908,687,o),
(908,538,cs),
(908,513,o),
(905,472,o),
(897,426,cs),
(855,184,o),
(722,125,o),
(547,125,cs),
(367,125,o),
(284,188,o),
(284,330,cs),
(284,335,o),
(284,339,o),
(284,344,c),
(111,344,l),
(108,324,o),
(106,304,o),
(106,287,cs),
(106,76,o),
(308,-25,o),
(549,-25,cs),
(836,-25,o),
(1019,119,o),
(1073,413,cs),
(1081,461,o),
(1087,513,o),
(1087,556,cs),
(1087,791,o),
(932,889,o),
(725,889,cs),
(568,889,o),
(484,833,o),
(395,733,c),
(380,733,l),
(513,1280,l),
(1152,1280,l),
(1177,1430,l,{
name = hr00;
})
);
}
);
width = 1229;
},
{
background = {
shapes = (
{
closed = 1;
nodes = (
(434,1430,l),
(254,668,l),
(303,662,l),
(401,758,o),
(485,805,o),
(647,805,cs),
(864,805,o),
(975,684,o),
(975,495,cs),
(975,471,o),
(975,447,o),
(961,364,cs),
(926,153,o),
(788,17,o),
(532,17,cs),
(377,17,o),
(223,68,o),
(156,215,c),
(121,195,l),
(188,43,o),
(354,-25,o),
(535,-25,cs),
(833,-25,o),
(1020,160,o),
(1020,495,cs),
(1020,708,o),
(889,846,o),
(649,846,cs),
(504,846,o),
(397,805,o),
(309,703,c),
(303,705,l),
(465,1388,l),
(1129,1388,l),
(1135,1430,l,{
name = hr00;
})
);
}
);
};
layerId = "B042A474-670A-4404-9662-903C467C1F9E";
shapes = (
{
closed = 1;
nodes = (
(433,1430,l),
(255,673,l),
(305,668,l),
(402,766,o),
(504,813,o),
(661,813,cs),
(867,813,o),
(979,732,o),
(979,532,cs),
(979,500,o),
(976,476,o),
(961,385,cs),
(918,127,o),
(768,17,o),
(511,17,cs),
(249,17,o),
(175,131,o),
(175,276,cs),
(175,305,o),
(177,332,o),
(182,361,c),
(135,361,l),
(130,332,o),
(128,302,o),
(128,276,cs),
(128,94,o),
(243,-25,o),
(511,-25,cs),
(799,-25,o),
(969,111,o),
(1015,412,cs),
(1023,460,o),
(1026,505,o),
(1026,542,cs),
(1026,762,o),
(892,854,o),
(666,854,cs),
(517,854,o),
(408,814,o),
(311,708,c),
(305,711,l),
(468,1388,l),
(1129,1388,l),
(1135,1430,l,{
name = hr00;
})
);
}
);
width = 1229;
}
);
unicode = 53;
}
{
glyphname = six;
layers = (
{
layerId = "586BE664-8D6A-4867-BE1B-390608DE01EA";
shapes = (
{
closed = 1;
nodes = (
(1301,-34,o),
(1591,327,o),
(1591,727,cs),
(1591,1050,o),
(1400,1267,o),
(1095,1267,cs),
(845,1267,o),
(710,1121,o),
(611,972,c),
(589,980,l),
(735,1360,o),
(1070,1639,o),
(1599,1966,c),
(1005,1966,l),
(543,1701,o),
(101,1202,o),
(101,631,cs),
(101,225,o),
(338,-34,o),
(772,-34,cs,{
name = hr00;
})
);
},
{
closed = 1;
nodes = (
(622,293,o),
(524,383,o),
(524,563,cs),
(524,589,o),
(527,622,o),
(532,656,cs),
(563,842,o),
(687,946,o),
(876,946,cs),
(1056,946,o),
(1155,856,o),
(1155,676,cs),
(1155,650,o),
(1152,617,o),
(1146,583,cs),
(1115,397,o),
(991,293,o),
(803,293,cs)
);
}
);
width = 1690;
},
{
layerId = "9AAD14F8-FE06-4230-ACE0-3E9D6F8A5A9E";
shapes = (
{
closed = 1;
nodes = (
(1217,-34,o),
(1507,324,o),
(1507,710,cs),
(1507,1025,o),
(1307,1222,o),
(994,1222,cs),
(755,1222,o),
(597,1098,o),
(476,941,c),
(462,946,l),
(653,1400,o),
(932,1656,o),
(1414,1966,c),
(1104,1966,l),
(676,1715,o),
(172,1169,o),
(172,566,cs),
(172,194,o),
(372,-34,o),
(729,-34,cs,{
name = hr00;
})
);
},
{
closed = 1;
nodes = (
(524,163,o),
(400,282,o),
(400,496,cs),
(400,535,o),
(406,574,o),
(411,608,cs),
(456,879,o),
(642,1031,o),
(907,1031,cs),
(1146,1031,o),
(1270,912,o),
(1270,698,cs),
(1270,659,o),
(1264,620,o),
(1259,586,cs),
(1214,315,o),
(1028,163,o),
(763,163,cs)
);
}
);
width = 1690;
},
{
layerId = "B042A474-670A-4404-9662-903C467C1F9E";
shapes = (
{
closed = 1;
nodes = (
(1169,-34,o),
(1439,273,o),
(1439,684,cs),
(1439,983,o),
(1228,1171,o),
(921,1171,cs),
(681,1171,o),
(459,1081,o),
(335,834,c),
(327,836,l),
(482,1309,o),
(780,1647,o),
(1332,1966,c),
(1236,1966,l),
(673,1650,o),
(225,1115,o),
(225,482,cs),
(225,183,o),
(397,-34,o),
(755,-34,cs,{
name = hr00;
})
);
},
{
closed = 1;
nodes = (
(445,23,o),
(287,203,o),
(287,453,cs),
(287,482,o),
(287,513,o),
(304,622,cs),
(352,901,o),
(580,1115,o),
(912,1115,cs),
(1219,1115,o),
(1377,935,o),
(1377,684,cs),
(1377,656,o),
(1377,625,o),
(1360,515,cs),
(1312,237,o),
(1084,23,o),
(752,23,cs)
);
}
);
width = 1690;
}
);
unicode = 54;
}
{
glyphname = seven;
layers = (
{
layerId = "586BE664-8D6A-4867-BE1B-390608DE01EA";
shapes = (
{
closed = 1;
nodes = (
(1219,1165,l),
(1263,1430,l),
(236,1430,l),
(151,921,l),
(409,921,l),
(452,1182,l),
(913,1182,l),
(225,0,l),
(553,0,l,{
name = hr00;
})
);
}
);
width = 1229;
},
{
layerId = "9AAD14F8-FE06-4230-ACE0-3E9D6F8A5A9E";
shapes = (
{
closed = 1;
nodes = (
(1208,1282,l),
(1233,1430,l),
(281,1430,l),
(213,1018,l),
(364,1018,l),
(407,1284,l),
(1030,1284,l),
(268,0,l),
(455,0,l,{
name = hr00;
})
);
}
);
width = 1229;
},
{
layerId = "B042A474-670A-4404-9662-903C467C1F9E";
shapes = (
{
closed = 1;
nodes = (
(1192,1388,l),
(1198,1430,l),
(307,1430,l),
(244,1049,l),
(287,1049,l),
(344,1388,l),
(1143,1388,l),
(295,0,l),
(344,0,l,{
name = hr00;
})
);
}
);
width = 1229;
}
);
unicode = 55;
}
{
glyphname = eight;
layers = (
{
background = {
shapes = (
{
closed = 1;
nodes = (
(1295,-34,o),
(1566,290,o),
(1566,600,cs),
(1566,811,o),
(1442,957,o),
(1245,1014,c),
(1247,1033,l),
(1501,1124,o),
(1656,1295,o),
(1656,1529,cs,{
name = hr01;
}),
(1656,1808,o),
(1445,1999,o),
(1033,1999,cs),
(513,1999,o),
(282,1701,o),
(282,1425,cs),
(282,1231,o),
(383,1101,o),
(546,1036,c),
(543,1017,l),
(248,949,o),
(68,741,o),
(68,467,cs,{
name = hr02;
}),
(68,172,o),
(307,-34,o),
(758,-34,cs)
);
},
{
closed = 1;
nodes = (
(594,287,o),
(501,369,o),
(501,498,cs),
(501,529,o),
(501,546,o),
(510,597,cs),
(535,749,o),
(650,850,o),
(853,850,cs),
(1033,850,o),
(1126,769,o),
(1126,639,cs),
(1126,608,o),
(1126,591,o),
(1118,541,cs),
(1093,389,o),
(977,287,o),
(774,287,cs)
);
},
{
closed = 1;
nodes = (
(758,1157,o),
(667,1231,o),
(667,1352,cs,{
name = hr03;
}),
(667,1374,o),
(670,1405,o),
(676,1439,cs),
(701,1591,o),
(808,1678,o),
(991,1678,cs),
(1160,1678,o),
(1250,1605,o),
(1250,1484,cs),
(1250,1462,o),
(1247,1431,o),
(1242,1397,cs),
(1217,1245,o),
(1110,1157,o),
(926,1157,cs)
);
}
);
};
layerId = "586BE664-8D6A-4867-BE1B-390608DE01EA";
shapes = (
{
closed = 1;
nodes = (
(1191,-34,o),
(1495,168,o),
(1557,541,cs),
(1606,834,o),
(1463,952,o),
(1245,1014,c),
(1249,1036,l),
(1455,1107,o),
(1610,1213,o),
(1655,1481,cs,{
name = hr01;
}),
(1712,1823,o),
(1497,1999,o),
(1058,1999,cs),
(619,1999,o),
(344,1823,o),
(287,1481,cs),
(242,1213,o),
(362,1107,o),
(545,1036,c),
(541,1014,l),
(303,952,o),
(119,834,o),
(70,541,cs,{
name = hr02;
}),
(8,168,o),
(245,-34,o),
(718,-34,cs)
);
},
{
closed = 1;
nodes = (
(577,290,o),
(480,349,o),
(512,541,cs),
(521,597,ls),
(554,792,o),
(668,848,o),
(865,848,cs),
(1062,848,o),
(1157,792,o),
(1124,597,cs),
(1115,541,ls),
(1083,349,o),
(966,290,o),
(772,290,cs)
);
},
{
closed = 1;
nodes = (
(731,1157,o),
(639,1210,o),
(670,1397,cs,{
name = hr03;
}),
(677,1439,ls),
(708,1625,o),
(821,1676,o),
(1004,1676,cs),
(1187,1676,o),
(1282,1625,o),
(1251,1439,cs),
(1244,1397,ls),
(1213,1210,o),
(1103,1157,o),
(917,1157,cs)
);
}
);
width = 1690;
},
{
background = {
shapes = (
{
closed = 1;
nodes = (
(1231,-34,o),
(1507,253,o),
(1507,583,cs),
(1507,834,o),
(1388,963,o),
(1180,1022,c),
(1183,1045,l),
(1456,1132,o),
(1605,1343,o),
(1605,1566,cs,{
name = hr01;
}),
(1605,1830,o),
(1411,1999,o),
(1053,1999,cs),
(586,1999,o),
(338,1715,o),
(338,1431,cs),
(338,1247,o),
(434,1110,o),
(608,1048,c),
(605,1025,l),
(296,943,o),
(115,727,o),
(115,451,cs,{
name = hr02;
}),
(115,169,o),
(310,-34,o),
(718,-34,cs)
);
},
{
closed = 1;
nodes = (
(501,163,o),
(358,270,o),
(358,462,cs),
(358,501,o),
(363,532,o),
(372,583,cs),
(408,803,o),
(583,941,o),
(876,941,cs),
(1126,941,o),
(1270,834,o),
(1270,642,cs),
(1270,603,o),
(1264,572,o),
(1256,521,cs),
(1219,301,o),
(1045,163,o),
(752,163,cs)
);
},
{
closed = 1;
nodes = (
(690,1129,o),
(566,1225,o),
(566,1394,cs,{
name = hr03;
}),
(566,1422,o),
(569,1453,o),
(574,1487,cs),
(605,1673,o),
(760,1802,o),
(1019,1802,cs),
(1242,1802,o),
(1366,1706,o),
(1366,1538,cs),
(1366,1509,o),
(1363,1478,o),
(1357,1445,cs),
(1326,1259,o),
(1171,1129,o),
(912,1129,cs)
);
}
);
};
layerId = "9AAD14F8-FE06-4230-ACE0-3E9D6F8A5A9E";
shapes = (
{
closed = 1;
nodes = (
(1174,-34,o),
(1440,161,o),
(1503,535,cs),
(1556,853,o),
(1413,957,o),
(1184,1022,c),
(1188,1045,l),
(1408,1115,o),
(1562,1241,o),
(1607,1507,cs,{
name = hr01;
}),
(1663,1845,o),
(1455,1999,o),
(1058,1999,cs),
(661,1999,o),
(401,1845,o),
(345,1507,cs),
(300,1241,o),
(411,1115,o),
(608,1045,c),
(604,1022,l),
(354,957,o),
(176,853,o),
(123,535,cs,{
name = hr02;
}),
(60,161,o),
(262,-34,o),
(718,-34,cs)
);
},
{
closed = 1;
nodes = (
(475,166,o),
(320,248,o),
(366,521,cs),
(376,583,ls),
(422,858,o),
(598,938,o),
(880,938,cs),
(1161,938,o),
(1312,858,o),
(1266,583,cs),
(1256,521,ls),
(1210,248,o),
(1027,166,o),
(751,166,cs)
);
},
{
closed = 1;
nodes = (
(658,1129,o),
(533,1205,o),
(573,1445,cs,{
name = hr03;
}),
(580,1484,ls),
(620,1724,o),
(776,1799,o),
(1024,1799,cs),
(1272,1799,o),
(1403,1724,o),
(1363,1484,cs),
(1356,1445,ls),
(1316,1205,o),
(1165,1129,o),
(912,1129,cs)
);
}
);
width = 1690;
},
{
background = {
shapes = (
{
closed = 1;
nodes = (
(1166,-34,o),
(1459,211,o),
(1459,580,cs),
(1459,808,o),
(1332,960,o),
(1112,1019,c),
(1112,1031,l),
(1380,1084,o),
(1557,1284,o),
(1557,1571,cs),
(1557,1828,o),
(1360,1999,o),
(1036,1999,cs),
(656,1999,o),
(397,1780,o),
(397,1433,cs),
(397,1231,o),
(510,1093,o),
(698,1045,c),
(698,1033,l),
(375,983,o),
(169,755,o),
(169,439,cs),
(169,158,o),
(383,-34,o),
(741,-34,cs,{
name = hr00;
})
);
},
{
closed = 1;
nodes = (
(422,23,o),
(234,189,o),
(234,425,cs),
(234,448,o),
(234,467,o),
(248,563,cs),
(290,825,o),
(543,1002,o),
(884,1002,cs),
(1205,1002,o),
(1394,836,o),
(1394,600,cs),
(1394,577,o),
(1394,558,o),
(1380,462,cs),
(1338,200,o),
(1084,23,o),
(743,23,cs)
);
},
{
closed = 1;
nodes = (
(634,1059,o),
(462,1197,o),
(462,1414,cs),
(462,1436,o),
(462,1459,o),
(476,1549,cs),
(515,1791,o),
(724,1943,o),
(1031,1943,cs),
(1321,1943,o),
(1492,1805,o),
(1492,1588,cs),
(1492,1566,o),
(1492,1543,o),
(1478,1453,cs),
(1439,1211,o),
(1231,1059,o),
(924,1059,cs)
);
}
);
};
layerId = "B042A474-670A-4404-9662-903C467C1F9E";
shapes = (
{
closed = 1;
nodes = (
(1112,-34,o),
(1386,120,o),
(1450,507,cs),
(1507,846,o),
(1363,980,o),
(1103,1025,c),
(1105,1036,l),
(1337,1081,o),
(1497,1193,o),
(1550,1507,cs),
(1610,1868,o),
(1410,1999,o),
(1058,1999,cs),
(706,1999,o),
(461,1868,o),
(401,1507,cs),
(348,1193,o),
(470,1081,o),
(688,1036,c),
(686,1025,l),
(411,980,o),
(223,846,o),
(166,507,cs),
(102,120,o),
(324,-34,o),
(718,-34,cs)
);
},
{
closed = 1;
nodes = (
(378,23,o),
(173,148,o),
(228,476,cs),
(240,549,ls),
(295,877,o),
(542,1002,o),
(891,1002,cs),
(1240,1002,o),
(1444,877,o),
(1389,549,cs),
(1377,476,ls),
(1322,148,o),
(1076,23,o),
(727,23,cs)
);
},
{
closed = 1;
nodes = (
(594,1059,o),
(411,1162,o),
(462,1467,cs,{
name = hr01;
}),
(473,1535,ls),
(524,1840,o),
(742,1943,o),
(1049,1943,cs),
(1356,1943,o),
(1538,1840,o),
(1487,1535,cs),
(1476,1467,ls),
(1425,1162,o),
(1208,1059,o),
(901,1059,cs)
);
}
);
width = 1690;
}
);
unicode = 56;
}
{
color = 1;
glyphname = nine;
layers = (
{
background = {
shapes = (
{
closed = 1;
nodes = (
(1667,1740,o),
(1431,1999,o),
(997,1999,cs),
(467,1999,o),
(177,1639,o),
(177,1239,cs),
(177,915,o),
(369,698,o),
(673,698,cs),
(924,698,o),
(1059,845,o),
(1157,994,c),
(1180,986,l),
(1033,605,o),
(698,327,o),
(169,0,c),
(763,0,l),
(1225,265,o),
(1667,763,o),
(1667,1335,cs,{
name = hr00;
})
);
},
{
closed = 1;
nodes = (
(712,1019,o),
(614,1110,o),
(614,1290,cs),
(614,1315,o),
(617,1349,o),
(622,1383,cs),
(653,1569,o),
(777,1673,o),
(966,1673,cs),
(1146,1673,o),
(1245,1583,o),
(1245,1402,cs),
(1245,1377,o),
(1242,1343,o),
(1236,1309,cs),
(1205,1124,o),
(1081,1019,o),
(893,1019,cs)
);
}
);
};
layerId = "586BE664-8D6A-4867-BE1B-390608DE01EA";
shapes = (
{
angle = 180;
pos = (1776,1966);
ref = six;
}
);
width = 1690;
},
{
background = {
shapes = (
{
closed = 1;
nodes = (
(1580,1771,o),
(1380,1999,o),
(1022,1999,cs),
(535,1999,o),
(245,1642,o),
(245,1256,cs),
(245,941,o),
(445,743,o),
(758,743,cs),
(997,743,o),
(1152,867,o),
(1276,1025,c),
(1290,1019,l),
(1095,566,o),
(817,310,o),
(335,0,c),
(648,0,l),
(1076,251,o),
(1580,797,o),
(1580,1400,cs,{
name = hr00;
})
);
},
{
closed = 1;
nodes = (
(605,935,o),
(482,1053,o),
(482,1267,cs),
(482,1307,o),
(487,1346,o),
(493,1380,cs),
(538,1650,o),
(724,1802,o),
(988,1802,cs),
(1228,1802,o),
(1352,1684,o),
(1352,1470,cs),
(1352,1431,o),
(1346,1391,o),
(1340,1357,cs),
(1295,1087,o),
(1110,935,o),
(845,935,cs)
);
}
);
};
layerId = "9AAD14F8-FE06-4230-ACE0-3E9D6F8A5A9E";
shapes = (
{
angle = 180;
pos = (1776,1966);
ref = six;
}
);
width = 1690;
},
{
background = {
shapes = (
{
closed = 1;
nodes = (
(1512,1783,o),
(1340,1999,o),
(983,1999,cs),
(569,1999,o),
(298,1692,o),
(298,1281,cs),
(298,983,o),
(510,794,o),
(817,794,cs),
(1056,794,o),
(1278,884,o),
(1402,1132,c),
(1411,1129,l),
(1256,656,o),
(957,318,o),
(406,0,c),
(501,0,l),
(1064,315,o),
(1512,850,o),
(1512,1484,cs,{
name = hr00;
})
);
},
{
closed = 1;
nodes = (
(518,850,o),
(360,1031,o),
(360,1281,cs),
(360,1309,o),
(360,1340,o),
(377,1450,cs),
(425,1729,o),
(653,1943,o),
(986,1943,cs),
(1293,1943,o),
(1450,1763,o),
(1450,1512,cs),
(1450,1484,o),
(1450,1453,o),
(1433,1343,cs),
(1385,1064,o),
(1157,850,o),
(825,850,cs)
);
}
);
};
layerId = "B042A474-670A-4404-9662-903C467C1F9E";
shapes = (
{
angle = 180;
pos = (1776,1966);
ref = six;
}
);
width = 1690;
}
);
unicode = 57;
}
{
glyphname = less;
layers = (
{
layerId = "586BE664-8D6A-4867-BE1B-390608DE01EA";
shapes = (
{
closed = 1;
nodes = (
(1014,283,l),
(459,607,l),
(461,623,l),
(1122,944,l),
(1172,1237,l),
(213,768,l),
(166,485,l),
(969,15,l,{
name = hr00;
})
);
}
);
width = 1229;
},
{
layerId = "9AAD14F8-FE06-4230-ACE0-3E9D6F8A5A9E";
shapes = (
{
closed = 1;
nodes = (
(996,195,l),
(342,608,l),
(344,625,l),
(1137,1041,l),
(1165,1215,l),
(207,705,l),
(180,549,l),
(969,41,l,{
name = hr00;
})
);
}
);
width = 1229;
},
{
layerId = "B042A474-670A-4404-9662-903C467C1F9E";
shapes = (
{
closed = 1;
nodes = (
(987,121,l),
(238,620,l),
(238,625,l),
(1153,1120,l),
(1161,1172,l),
(193,643,l),
(186,607,l),
(979,78,l,{
name = hr00;
})
);
}
);
width = 1229;
}
);
unicode = 60;
}
{
glyphname = equal;
layers = (
{
layerId = "586BE664-8D6A-4867-BE1B-390608DE01EA";
shapes = (
{
closed = 1;
nodes = (
(1622,1346,l),
(282,1346,l),
(225,1019,l),
(1566,1019,l,{
name = hr00;
})
);
},
{
closed = 1;
nodes = (
(1515,698,l),
(175,698,l),
(118,372,l),
(1459,372,l)
);
}
);
width = 1690;
},
{
layerId = "9AAD14F8-FE06-4230-ACE0-3E9D6F8A5A9E";
shapes = (
{
closed = 1;
nodes = (
(1594,1236,l),
(268,1236,l),
(237,1050,l),
(1563,1050,l,{
name = hr00;
})
);
},
{
closed = 1;
nodes = (
(1501,676,l),
(175,676,l),
(144,490,l),
(1470,490,l)
);
}
);
width = 1690;
},
{
layerId = "B042A474-670A-4404-9662-903C467C1F9E";
shapes = (
{
closed = 1;
nodes = (
(1585,1138,l),
(242,1138,l),
(234,1084,l),
(1577,1084,l,{
name = hr00;
})
);
},
{
closed = 1;
nodes = (
(1501,636,l),
(158,636,l),
(149,583,l),
(1492,583,l)
);
}
);
width = 1690;
}
);
unicode = 61;
}
{
glyphname = greater;
layers = (
{
layerId = "586BE664-8D6A-4867-BE1B-390608DE01EA";
shapes = (
{
closed = 1;
nodes = (
(1447,667,l),
(1512,1056,l),
(406,1701,l),
(344,1332,l),
(1110,890,l),
(1107,867,l),
(194,425,l),
(127,17,l,{
name = hr00;
})
);
}
);
width = 1690;
},
{
layerId = "9AAD14F8-FE06-4230-ACE0-3E9D6F8A5A9E";
shapes = (
{
closed = 1;
nodes = (
(1456,758,l),
(1492,972,l),
(408,1670,l),
(372,1462,l),
(1270,890,l),
(1267,867,l),
(177,298,l),
(138,56,l,{
name = hr00;
})
);
}
);
width = 1690;
},
{
layerId = "B042A474-670A-4404-9662-903C467C1F9E";
shapes = (
{
closed = 1;
nodes = (
(1467,834,l),
(1476,884,l),
(386,1611,l),
(375,1552,l),
(1405,865,l),
(1405,859,l),
(146,177,l),
(135,107,l,{
name = hr00;
})
);
}
);
width = 1690;
}
);
unicode = 62;
}
{
color = 4;
glyphname = question;
layers = (
{
background = {
shapes = (
{
closed = 1;
nodes = (
(729,625,l),
(964,660,o),
(1159,821,o),
(1159,1073,cs),
(1159,1307,o),
(991,1454,o),
(717,1454,cs),
(447,1454,o),
(289,1311,o),
(217,1137,c),
(451,1028,l),
(494,1132,o),
(569,1200,o),
(672,1200,cs),
(764,1200,o),
(838,1153,o),
(838,1061,cs),
(838,1055,o),
(838,1028,o),
(833,1004,cs),
(809,856,o),
(688,801,o),
(457,791,c),
(406,479,l),
(705,479,l,{
name = hr00;
})
);
},
{
closed = 1;
nodes = (
(620,-25,o),
(686,43,o),
(700,129,cs),
(711,191,o),
(713,211,o),
(713,228,cs),
(713,299,o),
(660,356,o),
(532,356,cs),
(397,356,o),
(332,289,o),
(317,203,cs),
(307,141,o),
(305,121,o),
(305,105,cs),
(305,33,o),
(359,-25,o),
(485,-25,cs)
);
}
);
};
layerId = "586BE664-8D6A-4867-BE1B-390608DE01EA";
shapes = (
{
closed = 1;
nodes = (
(721,625,l),
(919,656,o),
(1105,730,o),
(1156,1030,cs),
(1161,1063,o),
(1164,1095,o),
(1164,1124,cs),
(1164,1366,o),
(974,1454,o),
(712,1454,cs),
(433,1454,o),
(256,1355,o),
(200,1020,c),
(457,1022,l),
(501,1165,o),
(564,1196,o),
(681,1196,cs),
(764,1196,o),
(841,1181,o),
(841,1079,cs),
(841,1062,o),
(841,1057,o),
(833,1007,cs),
(799,801,o),
(690,799,o),
(463,791,c),
(410,477,l),
(697,477,l)
);
},
{
pos = (-39,0);
ref = period;
}
);
width = 1229;
},
{
background = {
shapes = (
{
closed = 1;
nodes = (
(670,645,l),
(929,682,o),
(1137,836,o),
(1137,1112,cs),
(1137,1319,o),
(989,1454,o),
(743,1454,cs),
(477,1454,o),
(328,1298,o),
(262,1127,c),
(407,1065,l),
(461,1207,o),
(555,1308,o),
(729,1308,cs),
(871,1308,o),
(963,1233,o),
(963,1114,cs),
(963,1110,o),
(963,1079,o),
(959,1055,cs),
(928,871,o),
(819,799,o),
(530,762,c),
(477,440,l),
(635,440,l,{
name = hr00;
})
);
},
{
closed = 1;
nodes = (
(594,-18,o),
(643,28,o),
(655,103,cs),
(660,127,o),
(663,151,o),
(663,168,cs),
(663,219,o),
(627,260,o),
(530,260,cs),
(426,260,o),
(377,213,o),
(364,139,cs),
(361,115,o),
(356,90,o),
(356,73,cs),
(356,23,o),
(393,-18,o),
(489,-18,cs)
);
}
);
};
layerId = "9AAD14F8-FE06-4230-ACE0-3E9D6F8A5A9E";
shapes = (
{
closed = 1;
nodes = (
(671,647,l),
(867,665,o),
(1079,733,o),
(1127,1021,cs),
(1136,1076,o),
(1142,1103,o),
(1142,1153,cs),
(1142,1369,o),
(989,1454,o),
(750,1454,cs),
(489,1454,o),
(296,1353,o),
(247,1065,c),
(415,1065,l),
(462,1268,o),
(570,1305,o),
(735,1305,cs),
(874,1305,o),
(962,1279,o),
(962,1142,cs),
(962,1115,o),
(959,1089,o),
(951,1036,cs),
(909,787,o),
(764,772,o),
(529,762,c),
(475,440,l),
(636,440,l)
);
},
{
pos = (-34,0);
ref = period;
}
);
width = 1229;
},
{
background = {
shapes = (
{
closed = 1;
nodes = (
(618,678,l),
(961,708,o),
(1114,876,o),
(1114,1135,cs),
(1114,1327,o),
(977,1454,o),
(760,1454,cs),
(529,1454,o),
(385,1335,o),
(311,1147,c),
(351,1135,l),
(424,1311,o),
(543,1415,o),
(758,1415,cs),
(961,1415,o),
(1069,1308,o),
(1069,1135,cs),
(1069,1116,o),
(1063,1069,o),
(1059,1041,cs),
(1030,841,o),
(879,737,o),
(580,715,c),
(520,361,l),
(565,361,l,{
name = hr00;
})
);
},
{
closed = 1;
nodes = (
(524,-10,o),
(551,10,o),
(557,43,cs),
(559,53,o),
(561,63,o),
(561,72,cs),
(561,100,o),
(543,117,o),
(502,117,cs),
(459,117,o),
(432,96,o),
(426,63,cs),
(424,53,o),
(422,43,o),
(422,35,cs),
(422,6,o),
(440,-10,o),
(481,-10,cs)
);
}
);
};
layerId = "B042A474-670A-4404-9662-903C467C1F9E";
shapes = (
{
closed = 1;
nodes = (
(619,676,l),
(895,676,o),
(1056,736,o),
(1110,1057,cs),
(1117,1099,o),
(1120,1137,o),
(1120,1171,cs),
(1120,1380,o),
(979,1454,o),
(755,1454,cs),
(514,1454,o),
(346,1385,o),
(300,1105,c),
(346,1105,l),
(391,1351,o),
(524,1415,o),
(751,1415,cs),
(948,1415,o),
(1076,1352,o),
(1076,1177,cs),
(1076,1143,o),
(1075,1129,o),
(1060,1037,cs),
(1010,744,o),
(849,719,o),
(580,715,c),
(521,361,l),
(566,361,l)
);
},
{
pos = (-31,0);
ref = period;
}
);
width = 1229;
},
{
associatedMasterId = "9AAD14F8-FE06-4230-ACE0-3E9D6F8A5A9E";
background = {
shapes = (
{
closed = 1;
nodes = (
(670,645,l),
(929,682,o),
(1137,836,o),
(1137,1112,cs),
(1137,1319,o),
(989,1454,o),
(743,1454,cs),
(477,1454,o),
(328,1298,o),
(262,1127,c),
(407,1065,l),
(461,1207,o),
(555,1308,o),
(729,1308,cs),
(871,1308,o),
(963,1233,o),
(963,1114,cs),
(963,1110,o),
(963,1079,o),
(959,1055,cs),
(928,871,o),
(819,799,o),
(530,762,c),
(477,440,l),
(635,440,l,{
name = hr00;
})
);
},
{
closed = 1;
nodes = (
(594,-18,o),
(643,28,o),
(655,103,cs),
(660,127,o),
(663,151,o),
(663,168,cs),
(663,219,o),
(627,260,o),
(530,260,cs),
(426,260,o),
(377,213,o),
(364,139,cs),
(361,115,o),
(356,90,o),
(356,73,cs),
(356,23,o),
(393,-18,o),
(489,-18,cs)
);
}
);
};
layerId = "F47F5C65-7850-4561-9269-E170CC3ED403";
name = "1. Mai 24, 21:53";
shapes = (
{
closed = 1;
nodes = (
(671,647,l),
(867,665,o),
(1079,733,o),
(1133,1057,cs),
(1181,1344,o),
(1036,1454,o),
(764,1454,cs),
(504,1454,o),
(296,1353,o),
(247,1065,c),
(415,1065,l),
(469,1268,o),
(570,1305,o),
(735,1305,cs),
(897,1305,o),
(990,1269,o),
(957,1072,cs),
(953,1044,ls),
(909,787,o),
(764,772,o),
(529,762,c),
(475,440,l),
(636,440,l)
);
},
{
pos = (-34,0);
ref = period;
}
);
width = 1229;
}
);
unicode = 63;
}
{
color = 4;
glyphname = at;
layers = (
{
layerId = "B042A474-670A-4404-9662-903C467C1F9E";
shapes = (
{
closed = 1;
nodes = (
(1163,-217,l),
(1169,-178,l,{
name = hr00;
}),
(573,-178,ls),
(324,-178,o),
(233,-65,o),
(233,186,cs),
(233,297,o),
(247,404,o),
(288,649,cs),
(392,1271,o),
(527,1415,o),
(1097,1415,cs),
(1494,1415,o),
(1639,1331,o),
(1639,1014,cs),
(1639,903,o),
(1623,803,o),
(1575,491,cs),
(1543,282,o),
(1391,233,o),
(1266,233,cs),
(1137,233,l),
(1265,1008,l),
(1224,1008,l),
(1204,887,l),
(1199,887,l),
(1172,976,o),
(1119,1025,o),
(991,1025,cs),
(820,1025,o),
(700,935,o),
(644,603,cs),
(633,537,o),
(628,480,o),
(628,432,cs),
(628,239,o),
(713,181,o),
(850,181,cs),
(977,181,o),
(1047,230,o),
(1103,318,c),
(1109,318,l),
(1104,286,o),
(1100,257,o),
(1097,239,cs),
(1093,212,o),
(1103,194,o),
(1139,194,cs),
(1266,194,ls),
(1426,194,o),
(1582,271,o),
(1615,487,cs),
(1660,786,o),
(1679,903,o),
(1679,1022,cs),
(1679,1355,o),
(1528,1454,o),
(1081,1454,cs),
(480,1454,o),
(348,1280,o),
(233,595,cs),
(207,433,o),
(190,296,o),
(190,185,cs),
(190,-92,o),
(289,-217,o),
(567,-217,cs)
);
},
{
closed = 1;
nodes = (
(751,218,o),
(671,260,o),
(671,431,cs),
(671,479,o),
(673,508,o),
(695,636,cs),
(743,924,o),
(855,988,o),
(986,988,cs),
(1117,988,o),
(1186,925,o),
(1186,809,cs),
(1186,791,o),
(1185,772,o),
(1181,751,cs),
(1132,455,ls),
(1106,303,o),
(1009,218,o),
(857,218,cs)
);
}
);
width = 1844;
},
{
layerId = "586BE664-8D6A-4867-BE1B-390608DE01EA";
shapes = (
{
closed = 1;
nodes = (
(1146,-231,l),
(1179,-35,l,{
name = hr00;
}),
(673,-35,ls),
(449,-35,o),
(345,37,o),
(345,262,cs),
(345,346,o),
(347,356,o),
(410,733,cs),
(490,1212,o),
(620,1260,o),
(1056,1260,cs),
(1398,1260,o),
(1536,1230,o),
(1536,970,cs),
(1536,886,o),
(1529,833,o),
(1481,553,cs),
(1455,394,o),
(1407,368,o),
(1308,368,cs),
(1225,368,l),
(1337,1036,l),
(1119,1036,l),
(1097,911,l),
(1083,911,l),
(1068,1018,o),
(1009,1061,o),
(909,1061,cs),
(742,1061,o),
(641,940,o),
(588,620,cs),
(575,544,o),
(569,479,o),
(569,425,cs),
(569,250,o),
(633,180,o),
(761,180,cs),
(862,180,o),
(935,223,o),
(985,329,c),
(1000,329,l),
(1000,327,o),
(1000,324,o),
(1000,321,cs),
(1009,209,o),
(1074,186,o),
(1180,186,cs),
(1356,186,ls),
(1561,186,o),
(1676,406,o),
(1707,593,cs),
(1732,745,o),
(1745,856,o),
(1745,956,cs),
(1745,1338,o),
(1552,1454,o),
(1048,1454,cs),
(481,1454,o),
(277,1308,o),
(162,619,cs),
(139,480,o),
(127,361,o),
(127,261,cs),
(127,-104,o),
(285,-231,o),
(640,-231,cs)
);
},
{
closed = 1;
nodes = (
(829,356,o),
(796,372,o),
(796,455,cs),
(796,493,o),
(799,505,o),
(829,688,cs),
(857,857,o),
(903,884,o),
(969,884,cs),
(1041,884,o),
(1076,852,o),
(1076,794,cs),
(1076,785,o),
(1075,775,o),
(1073,764,cs),
(1025,477,ls),
(1012,400,o),
(964,356,o),
(880,356,cs)
);
}
);
width = 1844;
},
{
layerId = "9AAD14F8-FE06-4230-ACE0-3E9D6F8A5A9E";
shapes = (
{
closed = 1;
nodes = (
(991,-229,l),
(1013,-98,l,{
name = hr00;
}),
(573,-98,ls),
(329,-98,o),
(244,1,o),
(244,214,cs),
(244,311,o),
(250,349,o),
(315,733,cs),
(397,1222,o),
(583,1323,o),
(1051,1323,cs),
(1444,1323,o),
(1575,1262,o),
(1575,1004,cs),
(1575,911,o),
(1565,852,o),
(1510,518,cs),
(1491,409,o),
(1479,292,o),
(1318,292,c),
(1159,292,l),
(1280,1015,l),
(1135,1015,l),
(1115,897,l),
(1105,897,l),
(1087,977,o),
(1042,1039,o),
(918,1039,cs),
(729,1039,o),
(628,897,o),
(577,600,cs),
(566,532,o),
(560,471,o),
(560,419,cs),
(560,244,o),
(625,160,o),
(770,160,cs),
(895,160,o),
(961,223,o),
(1005,302,c),
(1015,302,l),
(1015,300,o),
(1015,299,o),
(1015,298,cs),
(1015,196,o),
(1052,161,o),
(1175,161,cs),
(1312,161,ls),
(1541,161,o),
(1616,284,o),
(1649,485,cs),
(1716,877,o),
(1720,910,o),
(1720,1019,cs),
(1720,1359,o),
(1539,1454,o),
(1036,1454,cs),
(501,1454,o),
(260,1320,o),
(141,611,cs),
(116,458,o),
(102,330,o),
(102,224,cs),
(102,-110,o),
(236,-229,o),
(551,-229,cs)
);
},
{
closed = 1;
nodes = (
(743,283,o),
(708,327,o),
(708,420,cs),
(708,468,o),
(710,478,o),
(740,662,cs),
(769,838,o),
(815,916,o),
(948,916,cs),
(1044,916,o),
(1095,875,o),
(1095,796,cs),
(1095,783,o),
(1093,770,o),
(1091,756,cs),
(1039,443,ls),
(1021,338,o),
(953,283,o),
(842,283,cs)
);
}
);
width = 1844;
}
);
unicode = 64;
}
{
glyphname = A;
layers = (
{
anchors = (
{
name = bottom;
pos = (535,0);
},
{
name = bottomright;
pos = (1130,0);
},
{
name = top;
pos = (758,1430);
}
);
layerId = "586BE664-8D6A-4867-BE1B-390608DE01EA";
shapes = (
{
closed = 1;
nodes = (
(975,1430,l),
(553,1430,l),
(-76,0,l),
(241,0,l),
(383,346,l),
(785,346,l),
(819,0,l),
(1130,0,l,{
name = hr00;
})
);
},
{
closed = 1;
nodes = (
(485,592,l),
(711,1132,l),
(729,1132,l),
(772,592,l)
);
}
);
width = 1229;
},
{
anchors = (
{
name = bottom;
pos = (540,0);
},
{
name = bottomright;
pos = (1081,0);
},
{
name = top;
pos = (766,1430);
}
);
layerId = "9AAD14F8-FE06-4230-ACE0-3E9D6F8A5A9E";
shapes = (
{
closed = 1;
nodes = (
(883,1430,l),
(657,1430,l),
(-18,0,l),
(161,0,l),
(351,407,l),
(854,407,l),
(905,0,l),
(1081,0,l,{
name = hr00;
})
);
},
{
closed = 1;
nodes = (
(414,557,l),
(731,1257,l),
(750,1257,l),
(838,557,l)
);
}
);
width = 1229;
},
{
anchors = (
{
name = bottom;
pos = (527,0);
},
{
name = bottomright;
pos = (1034,0);
},
{
name = top;
pos = (766,1430);
}
);
layerId = "B042A474-670A-4404-9662-903C467C1F9E";
shapes = (
{
closed = 1;
nodes = (
(795,1430,l),
(733,1430,l),
(18,0,l),
(68,0,l),
(307,479,l),
(909,479,l),
(989,0,l),
(1034,0,l,{
name = hr00;
})
);
},
{
closed = 1;
nodes = (
(326,518,l),
(753,1378,l),
(760,1378,l),
(903,518,l)
);
}
);
width = 1229;
}
);
unicode = 65;
}
{
color = 4;
glyphname = B;
layers = (
{
anchors = (
{
name = bottom;
pos = (732,0);
},
{
name = top;
pos = (1028,1966);
}
);
guides = (
{
angle = 80.5;
pos = (100,0);
}
);
layerId = "586BE664-8D6A-4867-BE1B-390608DE01EA";
shapes = (
{
closed = 1;
nodes = (
(930,0,ls),
(1449,0,o),
(1549,454,o),
(1549,672,cs),
(1549,888,o),
(1426,962,o),
(1231,1011,c),
(1233,1028,l),
(1538,1102,o),
(1636,1296,o),
(1636,1554,cs),
(1636,1826,o),
(1446,1966,o),
(1161,1966,cs),
(420,1966,l),
(91,0,l)
);
},
{
closed = 1;
nodes = (
(650,850,l),
(939,850,ls),
(1056,850,o),
(1119,809,o),
(1119,692,cs),
(1119,657,o),
(1118,651,o),
(1098,532,cs),
(1068,352,o),
(986,296,o),
(846,296,cs),
(557,296,l)
);
},
{
closed = 1;
nodes = (
(787,1670,l),
(1022,1670,ls),
(1137,1670,o),
(1196,1633,o),
(1196,1521,cs),
(1196,1490,o),
(1195,1483,o),
(1175,1360,cs),
(1146,1188,o),
(1070,1132,o),
(932,1132,cs),
(697,1132,l)
);
}
);
width = 1690;
},
{
anchors = (
{
name = bottom;
pos = (749,0);
},
{
name = top;
pos = (1014,1966);
}
);
guides = (
{
angle = 80.5;
pos = (130,0);
}
);
layerId = "9AAD14F8-FE06-4230-ACE0-3E9D6F8A5A9E";
shapes = (
{
closed = 1;
nodes = (
(878,0,ls),
(1378,0,o),
(1509,428,o),
(1509,658,cs),
(1509,876,o),
(1382,984,o),
(1199,1028,c),
(1201,1036,l),
(1563,1126,o),
(1586,1423,o),
(1586,1553,cs),
(1586,1812,o),
(1416,1966,o),
(1122,1966,cs),
(462,1966,l),
(133,0,l)
);
},
{
closed = 1;
nodes = (
(518,918,l),
(961,918,ls),
(1153,918,o),
(1264,839,o),
(1264,684,cs),
(1264,655,o),
(1263,650,o),
(1239,504,cs),
(1205,304,o),
(1059,206,o),
(842,206,cs),
(399,206,l)
);
},
{
closed = 1;
nodes = (
(659,1760,l),
(1063,1760,ls),
(1238,1760,o),
(1339,1689,o),
(1339,1548,cs),
(1339,1515,o),
(1339,1526,o),
(1315,1380,cs),
(1285,1200,o),
(1152,1112,o),
(955,1112,cs),
(551,1112,l)
);
}
);
width = 1690;
},
{
anchors = (
{
name = bottom;
pos = (704,0);
},
{
name = top;
pos = (974,1966);
}
);
guides = (
{
angle = 80.5;
pos = (166,0);
}
);
layerId = "B042A474-670A-4404-9662-903C467C1F9E";
shapes = (
{
closed = 1;
nodes = (
(862,0,ls),
(1371,0,o),
(1441,449,o),
(1441,653,cs),
(1441,859,o),
(1342,968,o),
(1148,1005,c),
(1149,1011,l),
(1489,1116,o),
(1511,1488,o),
(1511,1611,cs),
(1511,1863,o),
(1366,1966,o),
(1119,1966,cs),
(494,1966,l),
(165,0,l,{
name = hr00;
})
);
},
{
closed = 1;
nodes = (
(390,969,l),
(1015,969,ls),
(1266,969,o),
(1378,847,o),
(1378,662,cs),
(1378,618,o),
(1377,615,o),
(1350,453,cs),
(1311,223,o),
(1152,56,o),
(862,56,cs),
(237,56,l)
);
},
{
closed = 1;
nodes = (
(547,1909,l),
(1110,1909,ls),
(1342,1909,o),
(1448,1798,o),
(1448,1618,cs),
(1448,1572,o),
(1448,1574,o),
(1420,1408,cs),
(1383,1185,o),
(1232,1025,o),
(962,1025,cs),
(399,1025,l)
);
}
);
width = 1690;
}
);
unicode = 66;
}
{
glyphname = C;
layers = (
{
anchors = (
{
name = bottom;
pos = (825,0);
},
{
name = top;
pos = (1050,1966);
}
);
layerId = "586BE664-8D6A-4867-BE1B-390608DE01EA";
shapes = (
{
closed = 1;
nodes = (
(1197,-34,o),
(1419,163,o),
(1574,532,c),
(1217,639,l),
(1140,453,o),
(1025,304,o),
(845,304,cs),
(639,304,o),
(560,425,o),
(560,622,cs),
(560,712,o),
(572,774,o),
(583,842,cs),
(634,1149,ls),
(687,1464,o),
(803,1661,o),
(1033,1661,cs),
(1236,1661,o),
(1287,1526,o),
(1298,1340,c),
(1701,1422,l),
(1681,1763,o),
(1487,1999,o),
(1050,1999,cs),
(496,1999,o),
(141,1478,o),
(141,715,cs),
(141,245,o),
(355,-34,o),
(817,-34,cs,{
name = hr00;
})
);
}
);
width = 1690;
},
{
anchors = (
{
name = bottom;
pos = (817,0);
},
{
name = top;
pos = (1104,1966);
}
);
layerId = "9AAD14F8-FE06-4230-ACE0-3E9D6F8A5A9E";
shapes = (
{
closed = 1;
nodes = (
(1160,-34,o),
(1349,155,o),
(1498,465,c),
(1315,558,l),
(1166,293,o),
(1059,169,o),
(834,169,cs),
(563,169,o),
(451,346,o),
(451,617,cs),
(451,696,o),
(459,780,o),
(473,865,cs),
(518,1135,ls),
(586,1540,o),
(769,1797,o),
(1084,1797,cs),
(1318,1797,o),
(1391,1656,o),
(1431,1487,c),
(1639,1554,l),
(1597,1771,o),
(1464,1999,o),
(1101,1999,cs),
(389,1999,o),
(220,1129,o),
(220,676,cs),
(220,220,o),
(400,-34,o),
(808,-34,cs,{
name = hr00;
})
);
}
);
width = 1690;
},
{
anchors = (
{
name = bottom;
pos = (783,0);
},
{
name = top;
pos = (1084,1966);
}
);
layerId = "B042A474-670A-4404-9662-903C467C1F9E";
shapes = (
{
closed = 1;
nodes = (
(1059,-34,o),
(1236,96,o),
(1402,400,c),
(1349,425,l),
(1208,158,o),
(1039,23,o),
(788,23,cs),
(487,23,o),
(313,222,o),
(313,617,cs),
(313,712,o),
(315,819,o),
(335,932,cs),
(363,1098,ls),
(456,1639,o),
(729,1943,o),
(1070,1943,cs),
(1329,1943,o),
(1447,1808,o),
(1512,1585,c),
(1569,1602,l),
(1498,1847,o),
(1357,1999,o),
(1073,1999,cs),
(513,1999,o),
(253,1298,o),
(253,617,cs),
(253,163,o),
(473,-34,o),
(788,-34,cs,{
name = hr00;
})
);
}
);
width = 1690;
}
);
unicode = 67;
}
{
glyphname = D;
layers = (
{
anchors = (
{
name = bottom;
pos = (670,0);
},
{
name = top;
pos = (972,1966);
}
);
layerId = "586BE664-8D6A-4867-BE1B-390608DE01EA";
shapes = (
{
closed = 1;
nodes = (
(710,0,ls),
(1321,0,o),
(1656,467,o),
(1656,1242,cs),
(1656,1706,o),
(1416,1966,o),
(977,1966,cs),
(400,1966,l),
(70,0,l,{
name = hr00;
})
);
},
{
closed = 1;
nodes = (
(758,1636,l),
(941,1636,ls),
(1140,1636,o),
(1236,1535,o),
(1236,1321,cs),
(1236,1267,o),
(1231,1197,o),
(1219,1129,cs),
(1160,774,ls),
(1110,470,o),
(969,329,o),
(718,329,cs),
(541,329,l)
);
}
);
width = 1690;
},
{
anchors = (
{
name = bottom;
pos = (681,0);
},
{
name = top;
pos = (966,1966);
}
);
layerId = "9AAD14F8-FE06-4230-ACE0-3E9D6F8A5A9E";
shapes = (
{
closed = 1;
nodes = (
(698,0,ls),
(1247,0,o),
(1591,417,o),
(1591,1332,cs),
(1591,1695,o),
(1377,1966,o),
(966,1966,cs),
(484,1966,l),
(155,0,l,{
name = hr00;
})
);
},
{
closed = 1;
nodes = (
(681,1763,l),
(938,1763,ls),
(1214,1763,o),
(1360,1611,o),
(1360,1326,cs),
(1360,1247,o),
(1352,1152,o),
(1340,1084,cs),
(1295,814,ls),
(1228,411,o),
(1031,203,o),
(718,203,cs),
(420,203,l)
);
}
);
width = 1690;
},
{
anchors = (
{
name = bottom;
pos = (681,0);
},
{
name = top;
pos = (972,1966);
}
);
layerId = "B042A474-670A-4404-9662-903C467C1F9E";
shapes = (
{
closed = 1;
nodes = (
(732,0,ls),
(1329,0,o),
(1554,642,o),
(1554,1321,cs),
(1554,1746,o),
(1312,1966,o),
(966,1966,cs),
(510,1966,l),
(183,0,l,{
name = hr00;
})
);
},
{
closed = 1;
nodes = (
(563,1909,l),
(969,1909,ls),
(1295,1909,o),
(1495,1698,o),
(1495,1318,cs),
(1495,1222,o),
(1492,1118,o),
(1473,1005,cs),
(1445,839,ls),
(1357,324,o),
(1095,56,o),
(732,56,cs),
(253,56,l)
);
}
);
width = 1690;
}
);
unicode = 68;
}
{
glyphname = E;
layers = (
{
anchors = (
{
name = bottom;
pos = (580,0);
},
{
name = bottomright;
pos = (991,0);
},
{
name = top;
pos = (764,1430);
}
);
guides = (
{
angle = 80.5;
pos = (107,0);
}
);
layerId = "586BE664-8D6A-4867-BE1B-390608DE01EA";
shapes = (
{
closed = 1;
nodes = (
(1032,250,l),
(420,250,l),
(477,598,l),
(1065,598,l),
(1106,848,l),
(520,848,l),
(575,1180,l),
(1190,1180,l),
(1231,1430,l),
(317,1430,l),
(78,0,l),
(991,0,l,{
name = hr00;
})
);
}
);
width = 1229;
},
{
anchors = (
{
name = bottom;
pos = (572,0);
},
{
name = bottomright;
pos = (977,0);
},
{
name = top;
pos = (776,1430);
}
);
guides = (
{
angle = 80.5;
pos = (132,0);
}
);
layerId = "9AAD14F8-FE06-4230-ACE0-3E9D6F8A5A9E";
shapes = (
{
closed = 1;
nodes = (
(1001,148,l),
(289,148,l),
(372,651,l),
(1058,651,l),
(1083,799,l),
(396,799,l),
(479,1282,l),
(1187,1282,l),
(1212,1430,l),
(335,1430,l),
(96,0,l),
(977,0,l,{
name = hr00;
})
);
}
);
width = 1229;
},
{
anchors = (
{
name = bottom;
pos = (549,0);
},
{
name = bottomright;
pos = (964,0);
},
{
name = top;
pos = (788,1430);
}
);
guides = (
{
angle = 80.5;
pos = (183,0);
}
);
layerId = "B042A474-670A-4404-9662-903C467C1F9E";
shapes = (
{
closed = 1;
nodes = (
(971,41,l),
(184,41,l),
(296,705,l),
(1053,705,l),
(1062,745,l),
(304,745,l),
(410,1388,l),
(1197,1388,l),
(1203,1430,l),
(372,1430,l),
(133,0,l),
(964,0,l,{
name = hr00;
})
);
}
);
width = 1229;
}
);
unicode = 69;
}
{
glyphname = F;
layers = (
{
anchors = (
{
name = bottom;
pos = (315,0);
},
{
name = top;
pos = (1087,1966);
}
);
layerId = "586BE664-8D6A-4867-BE1B-390608DE01EA";
shapes = (
{
closed = 1;
nodes = (
(659,822,l),
(1453,822,l),
(1509,1166,l),
(715,1166,l),
(791,1622,l),
(1681,1622,l),
(1737,1966,l),
(436,1966,l),
(107,0,l),
(521,0,l,{
name = hr00;
})
);
}
);
width = 1690;
},
{
anchors = (
{
name = bottom;
pos = (245,0);
},
{
name = top;
pos = (1076,1966);
}
);
layerId = "9AAD14F8-FE06-4230-ACE0-3E9D6F8A5A9E";
shapes = (
{
closed = 1;
nodes = (
(513,893,l),
(1433,893,l),
(1467,1095,l),
(546,1095,l),
(659,1763,l),
(1661,1763,l),
(1695,1966,l),
(462,1966,l),
(132,0,l),
(363,0,l,{
name = hr00;
})
);
}
);
width = 1690;
},
{
anchors = (
{
name = bottom;
pos = (214,0);
},
{
name = top;
pos = (1084,1966);
}
);
layerId = "B042A474-670A-4404-9662-903C467C1F9E";
shapes = (
{
closed = 1;
nodes = (
(406,969,l),
(1419,969,l),
(1431,1025,l),
(417,1025,l),
(563,1909,l),
(1656,1909,l),
(1664,1966,l),
(510,1966,l),
(183,0,l),
(245,0,l,{
name = hr00;
})
);
}
);
width = 1690;
}
);
unicode = 70;
}
{
glyphname = G;
layers = (
{
anchors = (
{
name = bottom;
pos = (839,0);
},
{
name = top;
pos = (1031,1966);
}
);
layerId = "586BE664-8D6A-4867-BE1B-390608DE01EA";
shapes = (
{
closed = 1;
nodes = (
(1419,0,l),
(1594,1048,l),
(879,1048,l),
(831,752,l),
(1177,752,l),
(1155,617,ls),
(1126,448,o),
(1011,304,o),
(814,304,cs,{
name = hr01;
}),
(634,304,o),
(552,434,o),
(552,631,cs),
(552,707,o),
(563,808,o),
(574,876,cs),
(622,1163,ls),
(673,1467,o),
(786,1661,o),
(1000,1661,cs),
(1194,1661,o),
(1242,1509,o),
(1256,1340,c),
(1659,1419,l),
(1633,1760,o),
(1445,1999,o),
(1036,1999,cs),
(434,1999,o),
(127,1436,o),
(127,690,cs),
(127,217,o),
(327,-34,o),
(648,-34,cs),
(876,-34,o),
(974,110,o),
(1073,284,c,{
name = hr02;
}),
(1098,284,l),
(1050,0,l)
);
}
);
width = 1690;
},
{
anchors = (
{
name = bottom;
pos = (811,0);
},
{
name = top;
pos = (1033,1966);
}
);
layerId = "9AAD14F8-FE06-4230-ACE0-3E9D6F8A5A9E";
shapes = (
{
closed = 1;
nodes = (
(1352,0,l),
(1512,969,l),
(887,969,l),
(856,783,l),
(1267,783,l),
(1242,631,ls),
(1200,377,o),
(1033,163,o),
(766,163,cs,{
name = hr01;
}),
(518,163,o),
(422,346,o),
(422,634,cs),
(422,681,o),
(425,777,o),
(439,862,cs),
(484,1132,ls),
(552,1535,o),
(729,1797,o),
(1050,1797,cs),
(1284,1797,o),
(1357,1656,o),
(1397,1487,c),
(1605,1554,l),
(1563,1771,o),
(1431,1999,o),
(1067,1999,cs),
(358,1999,o),
(186,1129,o),
(186,676,cs),
(186,208,o),
(360,-34,o),
(693,-34,cs),
(949,-34,o),
(1067,113,o),
(1171,287,c,{
name = hr02;
}),
(1186,287,l),
(1138,0,l)
);
}
);
width = 1690;
},
{
anchors = (
{
name = bottom;
pos = (763,0);
},
{
name = top;
pos = (1064,1966);
}
);
layerId = "B042A474-670A-4404-9662-903C467C1F9E";
shapes = (
{
closed = 1;
nodes = (
(1324,0,l),
(1473,887,l),
(910,887,l),
(898,831,l),
(1402,831,l),
(1354,549,ls),
(1301,242,o),
(1093,23,o),
(800,23,cs,{
name = hr01;
}),
(453,23,o),
(310,222,o),
(310,617,cs),
(310,712,o),
(313,819,o),
(332,932,cs),
(360,1098,ls),
(453,1639,o),
(701,1943,o),
(1059,1943,cs),
(1318,1943,o),
(1456,1808,o),
(1521,1585,c),
(1577,1602,l),
(1507,1847,o),
(1349,1999,o),
(1059,1999,cs),
(484,1999,o),
(251,1298,o),
(251,617,cs),
(251,163,o),
(439,-34,o),
(800,-34,cs),
(1064,-34,o),
(1200,110,o),
(1304,290,c,{
name = hr02;
}),
(1312,290,l),
(1262,0,l)
);
}
);
width = 1690;
}
);
unicode = 71;
}
{
glyphname = H;
layers = (
{
anchors = (
{
name = bottom;
pos = (524,0);
},
{
name = top;
pos = (766,1430);
}
);
guides = (
{
angle = 80.5;
pos = (56,0);
}
);
layerId = "586BE664-8D6A-4867-BE1B-390608DE01EA";
shapes = (
{
closed = 1;
nodes = (
(344,0,l),
(583,1430,l),
(280,1430,l),
(41,0,l)
);
},
{
closed = 1;
nodes = (
(1016,0,l),
(1255,1430,l),
(952,1430,l),
(713,0,l,{
name = hr00;
})
);
},
{
closed = 1;
nodes = (
(825,600,l),
(865,848,l),
(473,848,l),
(433,600,l)
);
}
);
width = 1229;
},
{
anchors = (
{
name = bottom;
pos = (522,0);
},
{
name = top;
pos = (762,1430);
}
);
guides = (
{
angle = 80.5;
pos = (110,0);
}
);
layerId = "9AAD14F8-FE06-4230-ACE0-3E9D6F8A5A9E";
shapes = (
{
closed = 1;
nodes = (
(248,0,l),
(487,1430,l),
(319,1430,l),
(80,0,l)
);
},
{
closed = 1;
nodes = (
(973,0,l),
(1212,1430,l),
(1044,1430,l),
(805,0,l,{
name = hr00;
})
);
},
{
closed = 1;
nodes = (
(925,651,l),
(950,799,l),
(369,799,l),
(345,651,l)
);
}
);
width = 1229;
},
{
anchors = (
{
name = bottom;
pos = (530,0);
},
{
name = top;
pos = (766,1430);
}
);
guides = (
{
angle = 80.5;
pos = (155,0);
}
);
layerId = "B042A474-670A-4404-9662-903C467C1F9E";
shapes = (
{
closed = 1;
nodes = (
(158,0,l),
(396,1430,l),
(352,1430,l),
(113,0,l)
);
},
{
closed = 1;
nodes = (
(940,0,l),
(1179,1430,l),
(1134,1430,l),
(895,0,l,{
name = hr00;
})
);
},
{
closed = 1;
nodes = (
(1022,705,l),
(1030,745,l),
(273,745,l),
(264,705,l)
);
}
);
width = 1229;
}
);
unicode = 72;
}
{
glyphname = I;
layers = (
{
anchors = (
{
name = bottom;
pos = (529,0);
},
{
name = bottomright;
pos = (989,0);
},
{
name = top;
pos = (766,1430);
}
);
guides = (
{
angle = 80.5;
pos = (514,0);
}
);
layerId = "586BE664-8D6A-4867-BE1B-390608DE01EA";
shapes = (
{
closed = 1;
nodes = (
(1024,225,l),
(715,225,l),
(879,1204,l),
(1188,1204,l),
(1225,1430,l),
(303,1430,l),
(266,1204,l),
(575,1204,l),
(412,225,l),
(103,225,l),
(65,0,l),
(987,0,l,{
name = hr00;
})
);
}
);
width = 1229;
},
{
anchors = (
{
name = bottom;
pos = (535,0);
},
{
name = bottomright;
pos = (969,0);
},
{
name = top;
pos = (762,1430);
}
);
guides = (
{
angle = 80.5;
pos = (608,0);
}
);
layerId = "9AAD14F8-FE06-4230-ACE0-3E9D6F8A5A9E";
shapes = (
{
closed = 1;
nodes = (
(991,135,l),
(633,135,l),
(827,1295,l),
(1185,1295,l),
(1207,1430,l),
(323,1430,l),
(300,1295,l),
(659,1295,l),
(465,135,l),
(106,135,l),
(84,0,l),
(969,0,l,{
name = hr00;
})
);
}
);
width = 1229;
},
{
anchors = (
{
name = bottom;
pos = (527,0);
},
{
name = bottomright;
pos = (952,0);
},
{
name = top;
pos = (766,1430);
}
);
guides = (
{
angle = 80.5;
pos = (692,0);
}
);
layerId = "B042A474-670A-4404-9662-903C467C1F9E";
shapes = (
{
closed = 1;
nodes = (
(959,39,l),
(555,39,l),
(781,1391,l),
(1185,1391,l),
(1191,1430,l),
(339,1430,l),
(332,1391,l),
(736,1391,l),
(510,39,l),
(106,39,l),
(100,0,l),
(952,0,l,{
name = hr00;
})
);
}
);
width = 1229;
}
);
unicode = 73;
}
{
color = 4;
glyphname = J;
layers = (
{
anchors = (
{
name = bottom;
pos = (494,0);
},
{
name = top;
pos = (803,1430);
}
);
background = {
shapes = (
{
closed = 1;
nodes = (
(371,1180,l),
(850,1180,l),
(723,422,ls),
(700,287,o),
(629,221,o),
(520,221,cs),
(389,221,o),
(351,311,o),
(344,432,c),
(60,379,l),
(65,139,o),
(211,-25,o),
(497,-25,cs),
(796,-25,o),
(975,123,o),
(1024,414,cs),
(1194,1430,l),
(412,1430,l,{
name = hr00;
})
);
}
);
};
guides = (
{
angle = 80.5;
pos = (1312,0);
}
);
layerId = "586BE664-8D6A-4867-BE1B-390608DE01EA";
shapes = (
{
ref = _J;
},
{
closed = 1;
nodes = (
(1094,1180,l),
(1135,1430,l),
(412,1430,l),
(371,1180,l)
);
}
);
width = 1229;
},
{
anchors = (
{
name = bottom;
pos = (516,0);
},
{
name = top;
pos = (786,1430);
}
);
background = {
shapes = (
{
closed = 1;
nodes = (
(420,1282,l),
(940,1282,l),
(793,399,ls),
(762,215,o),
(668,125,o),
(514,125,cs),
(340,125,o),
(295,223,o),
(281,344,c),
(119,309,l),
(141,88,o),
(291,-25,o),
(510,-25,cs),
(741,-25,o),
(909,92,o),
(952,348,cs),
(1132,1430,l),
(444,1430,l,{
name = hr00;
})
);
}
);
};
guides = (
{
angle = 80.5;
pos = (1229,0);
}
);
layerId = "9AAD14F8-FE06-4230-ACE0-3E9D6F8A5A9E";
shapes = (
{
ref = _J;
},
{
closed = 1;
nodes = (
(1037,1282,l),
(1062,1430,l),
(447,1430,l),
(422,1282,l)
);
}
);
width = 1229;
},
{
anchors = (
{
name = bottom;
pos = (484,0);
},
{
name = top;
pos = (793,1430);
}
);
background = {
shapes = (
{
closed = 1;
nodes = (
(465,1388,l),
(1044,1388,l),
(879,395,ls),
(838,153,o),
(695,17,o),
(477,17,cs),
(317,17,o),
(203,92,o),
(193,252,c),
(150,244,l),
(158,86,o),
(274,-25,o),
(479,-25,cs),
(713,-25,o),
(879,123,o),
(921,383,cs),
(1096,1430,l),
(471,1430,l,{
name = hr00;
})
);
}
);
};
guides = (
{
angle = 80.5;
pos = (1178,0);
}
);
layerId = "B042A474-670A-4404-9662-903C467C1F9E";
shapes = (
{
ref = _J;
},
{
closed = 1;
nodes = (
(1067,1391,l),
(1073,1430,l),
(468,1430,l),
(462,1391,l)
);
}
);
width = 1229;
}
);
unicode = 74;
}
{
glyphname = K;
layers = (
{
anchors = (
{
name = bottom;
pos = (774,0);
},
{
name = top;
pos = (1081,1966);
}
);
layerId = "586BE664-8D6A-4867-BE1B-390608DE01EA";
shapes = (
{
closed = 1;
nodes = (
(1583,0,l),
(1146,1093,l),
(1878,1966,l),
(1388,1966,l),
(1017,1509,l),
(701,1124,l),
(679,1124,l),
(819,1966,l),
(403,1966,l),
(76,0,l),
(493,0,l),
(583,538,l),
(814,794,l),
(1121,0,l,{
name = hr00;
})
);
}
);
width = 1690;
},
{
anchors = (
{
name = bottom;
pos = (749,0);
},
{
name = top;
pos = (1062,1966);
}
);
layerId = "9AAD14F8-FE06-4230-ACE0-3E9D6F8A5A9E";
shapes = (
{
closed = 1;
nodes = (
(1492,0,l),
(977,1132,l),
(1816,1966,l),
(1523,1966,l),
(898,1343,l),
(521,943,l),
(510,943,l),
(681,1966,l),
(451,1966,l),
(121,0,l),
(352,0,l),
(456,622,l),
(808,972,l),
(1239,0,l,{
name = hr00;
})
);
}
);
width = 1690;
},
{
anchors = (
{
name = bottom;
pos = (755,0);
},
{
name = top;
pos = (1053,1966);
}
);
layerId = "B042A474-670A-4404-9662-903C467C1F9E";
shapes = (
{
closed = 1;
nodes = (
(1416,0,l),
(850,1132,l),
(1740,1966,l),
(1661,1966,l),
(831,1191,l),
(380,769,l),
(372,769,l),
(572,1966,l),
(510,1966,l),
(183,0,l),
(245,0,l),
(358,676,l),
(803,1090,l),
(1349,0,l,{
name = hr00;
})
);
}
);
width = 1690;
}
);
unicode = 75;
}
{
glyphname = L;
layers = (
{
anchors = (
{
name = bottom;
pos = (567,0);
},
{
name = top;
pos = (485,1430);
},
{
name = topright;
pos = (819,1516);
}
);
guides = (
{
angle = 80.5;
pos = (144,0);
}
);
layerId = "586BE664-8D6A-4867-BE1B-390608DE01EA";
shapes = (
{
closed = 1;
nodes = (
(1067,250,l),
(449,250,l),
(647,1430,l),
(344,1430,l),
(105,0,l),
(1026,0,l,{
name = hr00;
})
);
}
);
width = 1229;
},
{
anchors = (
{
name = bottom;
pos = (580,0);
},
{
name = top;
pos = (481,1430);
},
{
name = topright;
pos = (760,1516);
}
);
guides = (
{
angle = 80.5;
pos = (220,0);
}
);
layerId = "9AAD14F8-FE06-4230-ACE0-3E9D6F8A5A9E";
shapes = (
{
closed = 1;
nodes = (
(1030,148,l),
(352,148,l),
(565,1430,l),
(399,1430,l),
(160,0,l),
(1006,0,l,{
name = hr00;
})
);
}
);
width = 1229;
},
{
anchors = (
{
name = bottom;
pos = (610,0);
},
{
name = top;
pos = (471,1430);
},
{
name = topright;
pos = (727,1516);
}
);
guides = (
{
angle = 80.5;
pos = (290,0);
}
);
layerId = "B042A474-670A-4404-9662-903C467C1F9E";
shapes = (
{
closed = 1;
nodes = (
(999,41,l),
(262,41,l),
(495,1430,l),
(450,1430,l),
(211,0,l),
(993,0,l,{
name = hr00;
})
);
}
);
width = 1229;
}
);
unicode = 76;
}
{
glyphname = M;
layers = (
{
anchors = (
{
name = bottom;
pos = (806,0);
},
{
name = top;
pos = (1045,1430);
}
);
guides = (
{
angle = 80.5;
pos = (203,0);
}
);
layerId = "B042A474-670A-4404-9662-903C467C1F9E";
shapes = (
{
closed = 1;
nodes = (
(191,0,l),
(351,956,l),
(419,1366,l),
(425,1366,l),
(781,0,l),
(830,0,l),
(1643,1366,l),
(1649,1366,l),
(1585,987,l),
(1420,0,l,{
name = hr00;
}),
(1463,0,l),
(1703,1430,l),
(1634,1430,l),
(819,59,l),
(813,59,l),
(456,1430,l),
(387,1430,l),
(148,0,l)
);
}
);
width = 1844;
},
{
anchors = (
{
name = bottom;
pos = (922,0);
},
{
name = top;
pos = (1161,1430);
}
);
guides = (
{
angle = 80.5;
pos = (83,0);
}
);
layerId = "586BE664-8D6A-4867-BE1B-390608DE01EA";
shapes = (
{
closed = 1;
nodes = (
(363,0,l),
(489,752,l),
(518,1057,l),
(537,1057,l),
(687,0,l),
(895,0,l),
(1400,1057,l),
(1418,1057,l),
(1345,752,l),
(1219,0,l,{
name = hr00;
}),
(1521,0,l),
(1761,1430,l),
(1305,1430,l),
(891,548,l),
(874,548,l),
(755,1430,l),
(300,1430,l),
(60,0,l)
);
}
);
width = 1844;
},
{
anchors = (
{
name = bottom;
pos = (791,0);
},
{
name = top;
pos = (1031,1430);
}
);
guides = (
{
angle = 80.5;
pos = (184,0);
}
);
layerId = "9AAD14F8-FE06-4230-ACE0-3E9D6F8A5A9E";
shapes = (
{
closed = 1;
nodes = (
(292,0,l),
(412,717,l),
(487,1169,l),
(504,1169,l),
(730,0,l),
(852,0,l),
(1470,1169,l),
(1486,1169,l),
(1410,717,l),
(1290,0,l,{
name = hr00;
}),
(1448,0,l),
(1687,1430,l),
(1451,1430,l),
(845,284,l),
(832,284,l),
(609,1430,l),
(373,1430,l),
(134,0,l)
);
}
);
width = 1844;
}
);
unicode = 77;
}
{
glyphname = N;
layers = (
{
anchors = (
{
name = bottom;
pos = (529,0);
},
{
name = top;
pos = (766,1430);
}
);
guides = (
{
angle = 80.5;
pos = (56,0);
}
);
layerId = "586BE664-8D6A-4867-BE1B-390608DE01EA";
shapes = (
{
closed = 1;
nodes = (
(1016,0,l),
(1255,1430,l),
(991,1430,l),
(829,471,l),
(809,471,l),
(644,1430,l),
(280,1430,l),
(41,0,l),
(305,0,l),
(466,959,l),
(487,959,l),
(651,0,l,{
name = hr00;
})
);
}
);
width = 1229;
},
{
anchors = (
{
name = bottom;
pos = (520,0);
},
{
name = top;
pos = (760,1430);
}
);
guides = (
{
angle = 80.5;
pos = (110,0);
}
);
layerId = "9AAD14F8-FE06-4230-ACE0-3E9D6F8A5A9E";
shapes = (
{
closed = 1;
nodes = (
(973,0,l),
(1212,1430,l),
(1057,1430,l),
(850,196,l),
(836,196,l),
(563,1430,l),
(319,1430,l),
(80,0,l),
(236,0,l),
(442,1233,l),
(457,1233,l),
(729,0,l,{
name = hr00;
})
);
}
);
width = 1229;
},
{
anchors = (
{
name = bottom;
pos = (529,0);
},
{
name = top;
pos = (766,1430);
}
);
guides = (
{
angle = 80.5;
pos = (155,0);
}
);
layerId = "B042A474-670A-4404-9662-903C467C1F9E";
shapes = (
{
closed = 1;
nodes = (
(940,0,l),
(1179,1430,l),
(1136,1430,l),
(905,53,l),
(899,53,l),
(419,1430,l),
(352,1430,l),
(113,0,l),
(156,0,l),
(386,1376,l),
(393,1376,l),
(873,0,l,{
name = hr00;
})
);
}
);
width = 1229;
}
);
unicode = 78;
}
{
glyphname = O;
layers = (
{
anchors = (
{
name = bottom;
pos = (624,0);
},
{
name = top;
pos = (1052,1966);
}
);
background = {
shapes = (
{
closed = 1;
nodes = (
(1411,-34,o),
(1667,591,o),
(1667,1259,cs),
(1667,1718,o),
(1459,1999,o),
(983,1999,cs),
(358,1999,o),
(101,1374,o),
(101,707,cs),
(101,248,o),
(310,-34,o),
(786,-34,cs,{
name = hr00;
})
);
},
{
closed = 1;
nodes = (
(608,304,o),
(527,420,o),
(527,614,cs),
(527,684,o),
(532,749,o),
(543,817,cs),
(600,1155,ls),
(653,1476,o),
(746,1661,o),
(983,1661,cs),
(1160,1661,o),
(1242,1546,o),
(1242,1352,cs),
(1242,1281,o),
(1236,1217,o),
(1225,1149,cs),
(1169,811,ls),
(1115,490,o),
(1022,304,o),
(786,304,cs)
);
}
);
};
layerId = "586BE664-8D6A-4867-BE1B-390608DE01EA";
shapes = (
{
closed = 1;
nodes = (
(1240,-34,o),
(1534,271,o),
(1653,983,cs),
(1770,1685,o),
(1580,1999,o),
(1054,1999,cs),
(527,1999,o),
(232,1685,o),
(115,983,cs),
(-4,271,o),
(187,-34,o),
(714,-34,cs,{
name = hr00;
})
);
},
{
closed = 1;
nodes = (
(531,307,o),
(473,426,o),
(537,811,cs),
(595,1155,ls),
(657,1530,o),
(757,1659,o),
(997,1659,cs),
(1236,1659,o),
(1293,1530,o),
(1231,1155,cs),
(1174,814,l),
(1109,426,o),
(1010,307,o),
(771,307,cs)
);
}
);
width = 1690;
},
{
anchors = (
{
name = bottom;
pos = (741,0);
},
{
name = top;
pos = (1054,1966);
}
);
background = {
shapes = (
{
closed = 1;
nodes = (
(1436,-34,o),
(1605,836,o),
(1605,1332,cs),
(1605,1760,o),
(1431,1999,o),
(1048,1999,cs),
(344,1999,o),
(175,1129,o),
(175,634,cs),
(175,206,o),
(349,-34,o),
(732,-34,cs,{
name = hr00;
})
);
},
{
closed = 1;
nodes = (
(501,169,o),
(403,324,o),
(403,591,cs),
(403,656,o),
(408,738,o),
(422,822,cs),
(476,1143,ls),
(543,1546,o),
(729,1797,o),
(1031,1797,cs),
(1278,1797,o),
(1377,1642,o),
(1377,1374,cs),
(1377,1309,o),
(1371,1228,o),
(1357,1143,cs),
(1304,822,ls),
(1236,420,o),
(1050,169,o),
(749,169,cs)
);
}
);
};
layerId = "9AAD14F8-FE06-4230-ACE0-3E9D6F8A5A9E";
shapes = (
{
closed = 1;
nodes = (
(1217,-34,o),
(1454,261,o),
(1575,983,cs),
(1694,1695,o),
(1557,1999,o),
(1058,1999,cs),
(559,1999,o),
(320,1695,o),
(201,983,cs),
(80,261,o),
(219,-34,o),
(718,-34,cs,{
name = hr00;
})
);
},
{
closed = 1;
nodes = (
(419,172,o),
(345,348,o),
(424,822,cs),
(478,1143,ls),
(556,1608,o),
(691,1794,o),
(1024,1794,cs),
(1356,1794,o),
(1429,1608,o),
(1351,1143,cs),
(1297,822,l),
(1218,348,o),
(1084,172,o),
(752,172,cs)
);
}
);
width = 1690;
},
{
anchors = (
{
name = bottom;
pos = (738,0);
},
{
name = top;
pos = (1046,1966);
}
);
background = {
shapes = (
{
closed = 1;
nodes = (
(1312,-34,o),
(1549,667,o),
(1549,1349,cs),
(1549,1802,o),
(1366,1999,o),
(1025,1999,cs),
(451,1999,o),
(214,1298,o),
(214,617,cs),
(214,163,o),
(397,-34,o),
(738,-34,cs,{
name = hr00;
})
);
},
{
closed = 1;
nodes = (
(411,23,o),
(273,222,o),
(273,617,cs),
(273,712,o),
(276,819,o),
(296,932,cs),
(324,1098,ls),
(417,1639,o),
(667,1943,o),
(1025,1943,cs),
(1352,1943,o),
(1490,1743,o),
(1490,1349,cs),
(1490,1253,o),
(1487,1146,o),
(1467,1033,cs),
(1439,867,ls),
(1346,327,o),
(1095,23,o),
(738,23,cs)
);
}
);
};
layerId = "B042A474-670A-4404-9662-903C467C1F9E";
shapes = (
{
closed = 1;
nodes = (
(1122,-34,o),
(1397,212,o),
(1526,983,cs),
(1655,1754,o),
(1462,1999,o),
(1051,1999,cs),
(640,1999,o),
(365,1754,o),
(236,983,cs),
(107,212,o),
(300,-34,o),
(711,-34,cs,{
name = hr00;
})
);
},
{
closed = 1;
nodes = (
(345,23,o),
(184,265,o),
(289,893,cs),
(319,1073,ls),
(424,1700,o),
(667,1943,o),
(1042,1943,cs),
(1416,1943,o),
(1578,1700,o),
(1473,1073,cs),
(1443,893,ls),
(1338,265,o),
(1094,23,o),
(720,23,cs)
);
}
);
width = 1690;
}
);
unicode = 79;
}
{
color = 4;
glyphname = P;
layers = (
{
anchors = (
{
name = bottom;
pos = (188,0);
},
{
name = top;
pos = (1229,1966);
}
);
guides = (
{
angle = 80.5;
pos = (103,0);
}
);
layerId = "586BE664-8D6A-4867-BE1B-390608DE01EA";
shapes = (
{
closed = 1;
nodes = (
(429,1966,l),
(100,0,l),
(517,0,l,{
name = hr00;
}),
(846,1966,l)
);
},
{
ref = _P;
}
);
width = 1690;
},
{
anchors = (
{
name = bottom;
pos = (248,0);
},
{
name = top;
pos = (1062,1966);
}
);
background = {
shapes = (
{
closed = 1;
nodes = (
(1000,836,ls),
(1411,836,o),
(1645,1087,o),
(1645,1504,cs),
(1645,1777,o),
(1492,1966,o),
(1163,1966,cs),
(609,1966,l),
(576,1763,l),
(1135,1763,ls),
(1307,1763,o),
(1408,1684,o),
(1408,1529,cs),
(1408,1492,o),
(1405,1453,o),
(1400,1419,cs),
(1383,1318,ls),
(1354,1149,o),
(1233,1039,o),
(1022,1039,cs),
(522,1039,l),
(488,836,l)
);
},
{
closed = 1;
nodes = (
(363,0,l,{
name = hr00;
}),
(692,1966,l),
(461,1966,l),
(132,0,l)
);
}
);
};
guides = (
{
angle = 80.5;
pos = (132,0);
}
);
layerId = "9AAD14F8-FE06-4230-ACE0-3E9D6F8A5A9E";
shapes = (
{
closed = 1;
nodes = (
(468,1966,l),
(139,0,l),
(370,0,l,{
name = hr00;
}),
(700,1966,l)
);
},
{
ref = _P;
}
);
width = 1690;
},
{
anchors = (
{
name = bottom;
pos = (214,0);
},
{
name = top;
pos = (1059,1966);
}
);
guides = (
{
angle = 80.5;
pos = (183,0);
}
);
layerId = "B042A474-670A-4404-9662-903C467C1F9E";
shapes = (
{
closed = 1;
nodes = (
(511,1966,l),
(182,0,l),
(244,0,l,{
name = hr00;
}),
(574,1966,l)
);
},
{
ref = _P;
}
);
width = 1690;
},
{
anchors = (
{
name = bottom;
pos = (214,0);
},
{
name = top;
pos = (1059,1966);
}
);
associatedMasterId = "B042A474-670A-4404-9662-903C467C1F9E";
background = {
shapes = (
{
closed = 1;
nodes = (
(1047,907,ls),
(1416,907,o),
(1613,1157,o),
(1613,1540,cs),
(1613,1783,o),
(1447,1966,o),
(1171,1966,cs),
(559,1966,l),
(549,1909,l),
(1171,1909,ls),
(1433,1909,o),
(1551,1735,o),
(1551,1540,cs),
(1551,1515,o),
(1548,1492,o),
(1545,1467,cs),
(1528,1363,ls),
(1492,1132,o),
(1337,963,o),
(1047,963,cs),
(393,963,l),
(384,907,l)
);
},
{
closed = 1;
nodes = (
(246,0,l,{
name = hr00;
}),
(575,1966,l),
(512,1966,l),
(183,0,l)
);
}
);
};
guides = (
{
angle = 80.5;
pos = (183,0);
}
);
layerId = "FDF6B0B7-09B9-48B4-A037-815C2F522B51";
name = "1. Mai 24, 16:08";
shapes = (
{
closed = 1;
nodes = (
(396,907,l),
(1051,907,ls),
(1392,907,o),
(1547,1115,o),
(1601,1436,cs),
(1654,1757,o),
(1559,1966,o),
(1228,1966,cs),
(511,1966,l),
(182,0,l),
(244,0,l,{
name = hr00;
})
);
},
{
closed = 1;
nodes = (
(1219,1909,ls),
(1519,1909,o),
(1578,1709,o),
(1543,1495,cs),
(1523,1377,ls),
(1487,1163,o),
(1361,963,o),
(1061,963,cs),
(406,963,l),
(564,1909,l)
);
}
);
width = 1690;
}
);
unicode = 80;
}
{
glyphname = Q;
layers = (
{
anchors = (
{
name = top;
pos = (1008,1966);
}
);
layerId = "586BE664-8D6A-4867-BE1B-390608DE01EA";
shapes = (
{
ref = O;
},
{
closed = 1;
nodes = (
(596,-4,l),
(867,-411,ls),
(929,-501,o),
(1002,-577,o),
(1143,-577,cs,{
name = hr00;
}),
(1270,-577,o),
(1354,-538,o),
(1521,-355,cs),
(1656,-206,l),
(1442,-11,l),
(1202,-248,l),
(1157,-237,l),
(996,7,l)
);
}
);
width = 1690;
},
{
anchors = (
{
name = top;
pos = (1028,1966);
}
);
layerId = "9AAD14F8-FE06-4230-ACE0-3E9D6F8A5A9E";
shapes = (
{
ref = O;
},
{
closed = 1;
nodes = (
(636,-15,l),
(890,-386,ls),
(941,-459,o),
(994,-513,o),
(1081,-513,cs,{
name = hr00;
}),
(1186,-513,o),
(1242,-459,o),
(1363,-344,cs),
(1535,-180,l),
(1411,-76,l),
(1129,-329,l),
(1093,-321,l),
(881,-4,l)
);
}
);
width = 1690;
},
{
anchors = (
{
name = top;
pos = (1039,1966);
}
);
layerId = "B042A474-670A-4404-9662-903C467C1F9E";
shapes = (
{
ref = O;
},
{
closed = 1;
nodes = (
(712,-21,l),
(997,-439,ls),
(1014,-465,o),
(1033,-476,o),
(1056,-476,cs,{
name = hr00;
}),
(1073,-476,o),
(1093,-470,o),
(1112,-453,cs),
(1447,-166,l),
(1411,-132,l),
(1064,-422,l),
(1056,-422,l),
(782,-18,l)
);
}
);
width = 1690;
}
);
unicode = 81;
}
{
glyphname = R;
layers = (
{
anchors = (
{
name = bottom;
pos = (774,0);
},
{
name = top;
pos = (997,1966);
}
);
layerId = "586BE664-8D6A-4867-BE1B-390608DE01EA";
shapes = (
{
closed = 1;
nodes = (
(814,732,l),
(1031,0,l),
(1470,0,l),
(1202,774,l),
(1239,786,l),
(1509,879,o),
(1673,1110,o),
(1673,1442,cs),
(1673,1754,o),
(1487,1966,o),
(1138,1966,cs),
(428,1966,l),
(99,0,l),
(510,0,l),
(634,732,l,{
name = hr00;
})
);
},
{
closed = 1;
nodes = (
(783,1630,l),
(1017,1630,ls),
(1155,1630,o),
(1239,1574,o),
(1239,1445,cs),
(1239,1416,o),
(1236,1385,o),
(1231,1352,cs),
(1219,1284,ls),
(1194,1121,o),
(1115,1059,o),
(912,1059,cs),
(687,1059,l)
);
}
);
width = 1690;
},
{
anchors = (
{
name = bottom;
pos = (746,0);
},
{
name = top;
pos = (997,1966);
}
);
layerId = "9AAD14F8-FE06-4230-ACE0-3E9D6F8A5A9E";
shapes = (
{
closed = 1;
nodes = (
(825,842,l),
(1160,0,l),
(1411,0,l),
(1053,850,l),
(1107,856,l),
(1445,898,o),
(1645,1132,o),
(1645,1504,cs),
(1645,1777,o),
(1492,1966,o),
(1163,1966,cs),
(462,1966,l),
(132,0,l),
(363,0,l),
(504,842,l,{
name = hr00;
})
);
},
{
closed = 1;
nodes = (
(659,1763,l),
(1135,1763,ls),
(1307,1763,o),
(1408,1684,o),
(1408,1529,cs),
(1408,1492,o),
(1405,1453,o),
(1400,1419,cs),
(1383,1318,ls),
(1352,1132,o),
(1214,1039,o),
(1022,1039,cs),
(538,1039,l)
);
}
);
width = 1690;
},
{
anchors = (
{
name = bottom;
pos = (727,0);
},
{
name = top;
pos = (1025,1966);
}
);
layerId = "B042A474-670A-4404-9662-903C467C1F9E";
shapes = (
{
closed = 1;
nodes = (
(853,907,l),
(1281,0,l),
(1346,0,l),
(915,907,l),
(1045,907,ls),
(1414,907,o),
(1611,1157,o),
(1611,1540,cs),
(1611,1783,o),
(1445,1966,o),
(1169,1966,cs),
(510,1966,l),
(183,0,l),
(245,0,l),
(397,907,l,{
name = hr00;
})
);
},
{
closed = 1;
nodes = (
(563,1909,l),
(1169,1909,ls),
(1431,1909,o),
(1549,1735,o),
(1549,1540,cs),
(1549,1515,o),
(1546,1492,o),
(1543,1467,cs),
(1526,1363,ls),
(1490,1132,o),
(1335,963,o),
(1045,963,cs),
(406,963,l)
);
}
);
width = 1690;
}
);
unicode = 82;
}
{
color = 1;
glyphname = S;
layers = (
{
anchors = (
{
name = bottom;
pos = (728,0);
},
{
name = top;
pos = (1029,1966);
}
);
background = {
shapes = (
{
closed = 1;
nodes = (
(1239,-34,o),
(1484,146,o),
(1484,498,cs),
(1484,729,o),
(1385,952,o),
(972,1019,cs),
(746,1056,ls),
(501,1095,o),
(293,1200,o),
(293,1507,cs),
(293,1799,o),
(498,1943,o),
(836,1943,cs),
(1118,1943,o),
(1290,1856,o),
(1405,1687,c),
(1453,1726,l),
(1343,1887,o),
(1163,1999,o),
(842,1999,cs),
(473,1999,o),
(231,1839,o),
(231,1507,cs),
(231,1276,o),
(338,1062,o),
(735,997,cs),
(960,960,ls),
(1202,921,o),
(1422,822,o),
(1422,496,cs),
(1422,186,o),
(1214,23,o),
(856,23,cs),
(535,23,o),
(375,144,o),
(237,324,c),
(186,287,l),
(327,101,o),
(510,-34,o),
(856,-34,cs,{
name = hr00;
})
);
}
);
};
layerId = "B042A474-670A-4404-9662-903C467C1F9E";
shapes = (
{
closed = 1;
nodes = (
(1136,-34,o),
(1397,146,o),
(1456,500,cs),
(1494,729,o),
(1434,959,o),
(1031,1019,cs),
(781,1056,ls),
(543,1091,o),
(352,1200,o),
(403,1505,cs),
(452,1799,o),
(672,1943,o),
(1044,1943,cs),
(1370,1943,o),
(1551,1803,o),
(1503,1517,c),
(1565,1517,l),
(1620,1843,o),
(1401,1999,o),
(1049,1999,cs),
(652,1999,o),
(397,1839,o),
(341,1505,cs),
(303,1276,o),
(375,1054,o),
(760,997,cs),
(1009,960,ls),
(1245,925,o),
(1448,822,o),
(1393,496,cs),
(1341,182,o),
(1110,23,o),
(708,23,cs),
(340,23,o),
(149,182,o),
(200,486,c),
(138,486,l),
(79,136,o),
(318,-34,o),
(705,-34,cs,{
name = hr00;
})
);
}
);
width = 1690;
},
{
anchors = (
{
name = bottom;
pos = (700,0);
},
{
name = top;
pos = (1066,1966);
}
);
background = {
shapes = (
{
closed = 1;
nodes = (
(1307,-34,o),
(1566,237,o),
(1566,605,cs),
(1566,915,o),
(1383,1101,o),
(1067,1157,cs),
(862,1194,ls),
(670,1228,o),
(591,1287,o),
(591,1422,cs),
(591,1577,o),
(687,1656,o),
(876,1656,cs),
(1053,1656,o),
(1200,1585,o),
(1304,1470,c),
(1543,1737,l),
(1405,1898,o),
(1174,1999,o),
(873,1999,cs),
(428,1999,o),
(166,1780,o),
(166,1402,cs),
(166,1115,o),
(315,898,o),
(667,839,cs),
(873,805,ls),
(1064,774,o),
(1138,710,o),
(1138,572,cs),
(1138,403,o),
(1028,310,o),
(828,310,cs),
(653,310,o),
(476,383,o),
(332,541,c),
(87,270,l),
(237,84,o),
(487,-34,o),
(814,-34,cs,{
name = hr00;
})
);
}
);
};
layerId = "586BE664-8D6A-4867-BE1B-390608DE01EA";
shapes = (
{
closed = 1;
nodes = (
(1294,-34,o),
(1505,237,o),
(1566,602,cs),
(1617,905,o),
(1478,1092,o),
(1179,1149,cs),
(883,1205,ls),
(703,1239,o),
(636,1286,o),
(659,1427,cs),
(686,1587,o),
(795,1656,o),
(984,1656,cs),
(1152,1656,o),
(1241,1582,o),
(1237,1412,c),
(1632,1412,l),
(1699,1812,o),
(1428,1999,o),
(1017,1999,cs),
(551,1999,o),
(294,1785,o),
(231,1410,cs),
(182,1114,o),
(304,906,o),
(638,848,cs),
(926,798,ls),
(1105,767,o),
(1155,701,o),
(1132,563,cs),
(1099,367,o),
(965,310,o),
(779,310,cs),
(573,310,o),
(466,377,o),
(474,572,c),
(76,572,l),
(8,164,o),
(328,-34,o),
(767,-34,cs,{
name = hr00;
})
);
}
);
width = 1690;
},
{
anchors = (
{
name = bottom;
pos = (836,0);
},
{
name = top;
pos = (839,1966);
}
);
associatedMasterId = "9AAD14F8-FE06-4230-ACE0-3E9D6F8A5A9E";
layerId = "05F86AA5-83DD-45A4-82BD-99B32B429F18";
name = "25. März 24, 16:32";
shapes = (
{
closed = 1;
nodes = (
(1276,-34,o),
(1526,186,o),
(1526,549,cs),
(1526,805,o),
(1400,1019,o),
(1014,1087,cs),
(803,1124,ls),
(524,1171,o),
(434,1284,o),
(434,1459,cs),
(434,1681,o),
(583,1797,o),
(848,1797,cs),
(1093,1797,o),
(1233,1698,o),
(1343,1554,c),
(1509,1698,l),
(1377,1887,o),
(1163,1999,o),
(850,1999,cs),
(451,1999,o),
(194,1814,o),
(194,1453,cs),
(194,1205,o),
(315,983,o),
(701,918,cs),
(921,881,ls),
(1188,836,o),
(1287,735,o),
(1287,543,cs),
(1287,307,o),
(1132,169,o),
(848,169,cs),
(611,169,o),
(451,262,o),
(298,453,c),
(127,313,l),
(273,110,o),
(487,-34,o),
(839,-34,cs,{
name = hr00;
})
);
}
);
width = 1690;
},
{
anchors = (
{
name = bottom;
pos = (822,0);
},
{
name = top;
pos = (859,1966);
}
);
associatedMasterId = "586BE664-8D6A-4867-BE1B-390608DE01EA";
layerId = "534E3475-6CB4-442D-AE6D-04DAF00EB1D1";
name = "25. März 24, 16:35";
shapes = (
{
closed = 1;
nodes = (
(1307,-34,o),
(1566,237,o),
(1566,605,cs),
(1566,915,o),
(1383,1101,o),
(1067,1157,cs),
(862,1194,ls),
(670,1228,o),
(591,1287,o),
(591,1422,cs),
(591,1577,o),
(687,1656,o),
(876,1656,cs),
(1053,1656,o),
(1200,1585,o),
(1304,1470,c),
(1543,1737,l),
(1405,1898,o),
(1174,1999,o),
(873,1999,cs),
(428,1999,o),
(166,1780,o),
(166,1402,cs),
(166,1115,o),
(315,898,o),
(667,839,cs),
(873,805,ls),
(1064,774,o),
(1138,710,o),
(1138,572,cs),
(1138,403,o),
(1028,310,o),
(828,310,cs),
(653,310,o),
(476,383,o),
(332,541,c),
(87,270,l),
(237,84,o),
(487,-34,o),
(814,-34,cs,{
name = hr00;
})
);
}
);
width = 1690;
},
{
anchors = (
{
name = bottom;
pos = (850,0);
},
{
name = top;
pos = (822,1966);
}
);
associatedMasterId = "B042A474-670A-4404-9662-903C467C1F9E";
layerId = "097E4828-921B-4589-9F57-954A5F7BE7D4";
name = "25. März 24, 16:38";
shapes = (
{
closed = 1;
nodes = (
(1239,-34,o),
(1484,146,o),
(1484,498,cs),
(1484,729,o),
(1385,952,o),
(972,1019,cs),
(746,1056,ls),
(501,1095,o),
(293,1200,o),
(293,1507,cs),
(293,1799,o),
(498,1943,o),
(836,1943,cs),
(1118,1943,o),
(1290,1856,o),
(1405,1687,c),
(1453,1726,l),
(1343,1887,o),
(1163,1999,o),
(842,1999,cs),
(473,1999,o),
(231,1839,o),
(231,1507,cs),
(231,1276,o),
(338,1062,o),
(735,997,cs),
(960,960,ls),
(1202,921,o),
(1422,822,o),
(1422,496,cs),
(1422,186,o),
(1214,23,o),
(856,23,cs),
(535,23,o),
(375,144,o),
(237,324,c),
(186,287,l),
(327,101,o),
(510,-34,o),
(856,-34,cs,{
name = hr00;
})
);
}
);
width = 1690;
},
{
anchors = (
{
name = bottom;
pos = (836,0);
},
{
name = top;
pos = (839,1966);
}
);
associatedMasterId = "9AAD14F8-FE06-4230-ACE0-3E9D6F8A5A9E";
background = {
shapes = (
{
closed = 1;
nodes = (
(1276,-34,o),
(1526,186,o),
(1526,549,cs),
(1526,805,o),
(1400,1019,o),
(1014,1087,cs),
(803,1124,ls),
(524,1171,o),
(434,1284,o),
(434,1459,cs),
(434,1681,o),
(583,1797,o),
(848,1797,cs),
(1093,1797,o),
(1233,1698,o),
(1343,1554,c),
(1509,1698,l),
(1377,1887,o),
(1163,1999,o),
(850,1999,cs),
(451,1999,o),
(194,1814,o),
(194,1453,cs),
(194,1205,o),
(315,983,o),
(701,918,cs),
(921,881,ls),
(1188,836,o),
(1287,735,o),
(1287,543,cs),
(1287,307,o),
(1132,169,o),
(848,169,cs),
(611,169,o),
(451,262,o),
(298,453,c),
(127,313,l),
(273,110,o),
(487,-34,o),
(839,-34,cs,{
name = hr00;
})
);
}
);
};
layerId = "267E92DB-F43C-4486-9B5F-9B74266325FC";
name = "25. März 24, 23:11";
shapes = (
{
closed = 1;
nodes = (
(1285,-34,o),
(1536,186,o),
(1536,550,cs),
(1536,805,o),
(1412,1022,o),
(1024,1087,cs),
(803,1124,ls),
(524,1171,o),
(434,1284,o),
(434,1459,cs),
(434,1681,o),
(583,1797,o),
(830,1797,cs),
(1077,1797,o),
(1216,1681,o),
(1236,1459,c),
(1466,1459,l),
(1466,1814,o),
(1209,1999,o),
(830,1999,cs),
(451,1999,o),
(194,1814,o),
(194,1453,cs),
(194,1205,o),
(315,980,o),
(701,918,cs),
(931,881,ls),
(1198,838,o),
(1297,734,o),
(1297,545,cs),
(1297,307,o),
(1141,169,o),
(842,169,cs),
(546,169,o),
(402,304,o),
(381,549,c),
(152,549,l),
(152,186,o),
(401,-34,o),
(843,-34,cs,{
name = hr00;
})
);
}
);
width = 1690;
},
{
anchors = (
{
name = bottom;
pos = (850,0);
},
{
name = top;
pos = (822,1966);
}
);
associatedMasterId = "B042A474-670A-4404-9662-903C467C1F9E";
background = {
shapes = (
{
closed = 1;
nodes = (
(1239,-34,o),
(1484,146,o),
(1484,498,cs),
(1484,729,o),
(1385,952,o),
(972,1019,cs),
(746,1056,ls),
(501,1095,o),
(293,1200,o),
(293,1507,cs),
(293,1799,o),
(498,1943,o),
(836,1943,cs),
(1118,1943,o),
(1290,1856,o),
(1405,1687,c),
(1453,1726,l),
(1343,1887,o),
(1163,1999,o),
(842,1999,cs),
(473,1999,o),
(231,1839,o),
(231,1507,cs),
(231,1276,o),
(338,1062,o),
(735,997,cs),
(960,960,ls),
(1202,921,o),
(1422,822,o),
(1422,496,cs),
(1422,186,o),
(1214,23,o),
(856,23,cs),
(535,23,o),
(375,144,o),
(237,324,c),
(186,287,l),
(327,101,o),
(510,-34,o),
(856,-34,cs,{
name = hr00;
})
);
}
);
};
layerId = "25B7444F-5DD7-4B56-A5E8-0C9CF4D46D9E";
name = "25. März 24, 23:11";
shapes = (
{
closed = 1;
nodes = (
(1249,-34,o),
(1494,146,o),
(1494,498,cs),
(1494,729,o),
(1395,959,o),
(982,1019,cs),
(726,1056,ls),
(481,1091,o),
(273,1200,o),
(273,1507,cs),
(273,1799,o),
(478,1943,o),
(822,1943,cs),
(1166,1943,o),
(1371,1799,o),
(1371,1507,c),
(1433,1507,l),
(1433,1839,o),
(1191,1999,o),
(822,1999,cs),
(453,1999,o),
(211,1839,o),
(211,1507,cs),
(211,1276,o),
(318,1055,o),
(715,997,cs),
(970,960,ls),
(1212,925,o),
(1432,822,o),
(1432,496,cs),
(1432,186,o),
(1224,23,o),
(846,23,cs),
(478,23,o),
(240,186,o),
(240,496,c),
(178,496,l),
(178,146,o),
(453,-34,o),
(846,-34,cs,{
name = hr00;
})
);
}
);
width = 1690;
},
{
anchors = (
{
name = bottom;
pos = (822,0);
},
{
name = top;
pos = (859,1966);
}
);
associatedMasterId = "586BE664-8D6A-4867-BE1B-390608DE01EA";
background = {
shapes = (
{
closed = 1;
nodes = (
(1307,-34,o),
(1566,237,o),
(1566,605,cs),
(1566,915,o),
(1383,1101,o),
(1067,1157,cs),
(862,1194,ls),
(670,1228,o),
(591,1287,o),
(591,1422,cs),
(591,1577,o),
(687,1656,o),
(876,1656,cs),
(1053,1656,o),
(1200,1585,o),
(1304,1470,c),
(1543,1737,l),
(1405,1898,o),
(1174,1999,o),
(873,1999,cs),
(428,1999,o),
(166,1780,o),
(166,1402,cs),
(166,1115,o),
(315,898,o),
(667,839,cs),
(873,805,ls),
(1064,774,o),
(1138,710,o),
(1138,572,cs),
(1138,403,o),
(1028,310,o),
(828,310,cs),
(653,310,o),
(476,383,o),
(332,541,c),
(87,270,l),
(237,84,o),
(487,-34,o),
(814,-34,cs,{
name = hr00;
})
);
}
);
};
layerId = "A9DAE8BA-78D7-4676-B922-D948AC697FE4";
name = "25. März 24, 23:11";
shapes = (
{
closed = 1;
nodes = (
(1333,-34,o),
(1587,237,o),
(1587,605,cs),
(1587,915,o),
(1407,1119,o),
(1098,1157,cs),
(793,1194,ls),
(608,1216,o),
(532,1287,o),
(532,1423,cs),
(532,1576,o),
(627,1656,o),
(807,1656,cs),
(986,1656,o),
(1082,1577,o),
(1102,1402,c),
(1507,1402,l),
(1507,1800,o),
(1242,1999,o),
(815,1999,cs),
(368,1999,o),
(107,1782,o),
(107,1401,cs),
(107,1115,o),
(254,877,o),
(598,839,cs),
(904,805,ls),
(1086,785,o),
(1159,710,o),
(1159,572,cs),
(1159,403,o),
(1049,310,o),
(844,310,cs),
(640,310,o),
(530,403,o),
(510,592,c),
(102,592,l),
(102,204,o),
(366,-34,o),
(833,-34,cs,{
name = hr00;
})
);
}
);
width = 1690;
},
{
anchors = (
{
name = bottom;
pos = (836,0);
},
{
name = top;
pos = (839,1966);
}
);
associatedMasterId = "9AAD14F8-FE06-4230-ACE0-3E9D6F8A5A9E";
background = {
shapes = (
{
closed = 1;
nodes = (
(1276,-34,o),
(1526,186,o),
(1526,549,cs),
(1526,805,o),
(1400,1019,o),
(1014,1087,cs),
(803,1124,ls),
(524,1171,o),
(434,1284,o),
(434,1459,cs),
(434,1681,o),
(583,1797,o),
(848,1797,cs),
(1093,1797,o),
(1233,1698,o),
(1343,1554,c),
(1509,1698,l),
(1377,1887,o),
(1163,1999,o),
(850,1999,cs),
(451,1999,o),
(194,1814,o),
(194,1453,cs),
(194,1205,o),
(315,983,o),
(701,918,cs),
(921,881,ls),
(1188,836,o),
(1287,735,o),
(1287,543,cs),
(1287,307,o),
(1132,169,o),
(848,169,cs),
(611,169,o),
(451,262,o),
(298,453,c),
(127,313,l),
(273,110,o),
(487,-34,o),
(839,-34,cs,{
name = hr00;
})
);
}
);
};
layerId = "740CF81E-43BF-4DAC-96B7-0C75BB294825";
name = "25. März 24, 23:24";
shapes = (
{
closed = 1;
nodes = (
(1295,-34,o),
(1536,148,o),
(1536,535,cs),
(1536,812,o),
(1412,1022,o),
(1044,1084,cs),
(753,1133,ls),
(515,1173,o),
(434,1285,o),
(434,1473,cs),
(434,1711,o),
(576,1797,o),
(834,1797,cs),
(1078,1797,o),
(1217,1729,o),
(1236,1509,c),
(1466,1509,l),
(1466,1864,o),
(1208,1999,o),
(833,1999,cs),
(442,1999,o),
(194,1842,o),
(194,1467,cs),
(194,1204,o),
(309,982,o),
(651,927,cs),
(951,879,ls),
(1222,836,o),
(1297,737,o),
(1297,538,cs),
(1297,252,o),
(1141,169,o),
(844,169,cs),
(532,169,o),
(400,261,o),
(381,489,c),
(152,489,l),
(152,135,o),
(393,-34,o),
(836,-34,cs,{
name = hr00;
})
);
}
);
width = 1690;
},
{
anchors = (
{
name = bottom;
pos = (836,0);
},
{
name = top;
pos = (839,1966);
}
);
associatedMasterId = "9AAD14F8-FE06-4230-ACE0-3E9D6F8A5A9E";
background = {
shapes = (
{
closed = 1;
nodes = (
(1276,-34,o),
(1526,186,o),
(1526,549,cs),
(1526,805,o),
(1400,1019,o),
(1014,1087,cs),
(803,1124,ls),
(524,1171,o),
(434,1284,o),
(434,1459,cs),
(434,1681,o),
(583,1797,o),
(848,1797,cs),
(1093,1797,o),
(1233,1698,o),
(1343,1554,c),
(1509,1698,l),
(1377,1887,o),
(1163,1999,o),
(850,1999,cs),
(451,1999,o),
(194,1814,o),
(194,1453,cs),
(194,1205,o),
(315,983,o),
(701,918,cs),
(921,881,ls),
(1188,836,o),
(1287,735,o),
(1287,543,cs),
(1287,307,o),
(1132,169,o),
(848,169,cs),
(611,169,o),
(451,262,o),
(298,453,c),
(127,313,l),
(273,110,o),
(487,-34,o),
(839,-34,cs,{
name = hr00;
})
);
}
);
};
layerId = "ED31D21A-F2C7-4E0E-BE75-C1C5794A8C67";
name = "9. Apr. 24, 01:01";
shapes = (
{
closed = 1;
nodes = (
(1295,-34,o),
(1536,186,o),
(1536,547,cs),
(1536,806,o),
(1412,1022,o),
(1024,1087,cs),
(803,1124,ls),
(523,1171,o),
(434,1284,o),
(434,1460,cs),
(434,1683,o),
(576,1797,o),
(852,1797,cs),
(1078,1797,o),
(1220,1720,o),
(1236,1509,c),
(1466,1509,l),
(1466,1864,o),
(1200,1999,o),
(851,1999,cs),
(442,1999,o),
(194,1814,o),
(194,1455,cs),
(194,1204,o),
(315,980,o),
(701,918,cs),
(931,881,ls),
(1198,838,o),
(1297,737,o),
(1297,541,cs),
(1297,294,o),
(1141,169,o),
(822,169,cs),
(547,169,o),
(396,262,o),
(381,489,c),
(152,489,l),
(152,135,o),
(401,-34,o),
(819,-34,cs,{
name = hr00;
})
);
}
);
width = 1690;
},
{
anchors = (
{
name = bottom;
pos = (714,0);
},
{
name = top;
pos = (1046,1966);
}
);
background = {
shapes = (
{
ref = O;
}
);
};
layerId = "9AAD14F8-FE06-4230-ACE0-3E9D6F8A5A9E";
name = Regular;
shapes = (
{
closed = 1;
nodes = (
(1193,-34,o),
(1444,178,o),
(1505,543,cs),
(1549,807,o),
(1461,1022,o),
(1084,1087,cs),
(840,1129,ls),
(597,1171,o),
(527,1285,o),
(557,1459,cs),
(594,1683,o),
(760,1797,o),
(1017,1797,cs),
(1255,1797,o),
(1380,1700,o),
(1360,1469,c),
(1590,1469,l),
(1651,1834,o),
(1399,1999,o),
(1030,1999,cs),
(640,1999,o),
(376,1814,o),
(316,1453,cs),
(274,1204,o),
(357,980,o),
(733,918,cs),
(957,881,ls),
(1217,838,o),
(1299,739,o),
(1265,537,cs),
(1224,291,o),
(1056,169,o),
(751,169,cs),
(454,169,o),
(321,285,o),
(346,519,c),
(117,519,l),
(56,155,o),
(299,-34,o),
(733,-34,cs,{
name = hr00;
})
);
}
);
width = 1690;
},
{
anchors = (
{
name = bottom;
pos = (836,0);
},
{
name = top;
pos = (839,1966);
}
);
associatedMasterId = "9AAD14F8-FE06-4230-ACE0-3E9D6F8A5A9E";
background = {
shapes = (
{
closed = 1;
nodes = (
(1276,-34,o),
(1526,186,o),
(1526,549,cs),
(1526,805,o),
(1400,1019,o),
(1014,1087,cs),
(803,1124,ls),
(524,1171,o),
(434,1284,o),
(434,1459,cs),
(434,1681,o),
(583,1797,o),
(848,1797,cs),
(1093,1797,o),
(1233,1698,o),
(1343,1554,c),
(1509,1698,l),
(1377,1887,o),
(1163,1999,o),
(850,1999,cs),
(451,1999,o),
(194,1814,o),
(194,1453,cs),
(194,1205,o),
(315,983,o),
(701,918,cs),
(921,881,ls),
(1188,836,o),
(1287,735,o),
(1287,543,cs),
(1287,307,o),
(1132,169,o),
(848,169,cs),
(611,169,o),
(451,262,o),
(298,453,c),
(127,313,l),
(273,110,o),
(487,-34,o),
(839,-34,cs,{
name = hr00;
})
);
}
);
};
layerId = "CF5478B5-B369-4182-87A4-74506BF2C46F";
name = "26. Apr. 24, 11:38";
shapes = (
{
closed = 1;
nodes = (
(1300,-34,o),
(1536,178,o),
(1536,543,cs),
(1536,807,o),
(1412,1022,o),
(1024,1087,cs),
(773,1129,ls),
(523,1171,o),
(434,1285,o),
(434,1459,cs),
(434,1683,o),
(581,1797,o),
(838,1797,cs),
(1076,1797,o),
(1217,1700,o),
(1236,1469,c),
(1466,1469,l),
(1466,1834,o),
(1206,1999,o),
(837,1999,cs),
(447,1999,o),
(194,1814,o),
(194,1453,cs),
(194,1204,o),
(315,980,o),
(701,918,cs),
(931,881,ls),
(1198,838,o),
(1297,739,o),
(1297,537,cs),
(1297,291,o),
(1149,169,o),
(844,169,cs),
(547,169,o),
(395,285,o),
(381,519,c),
(152,519,l),
(152,155,o),
(406,-34,o),
(840,-34,cs,{
name = hr00;
})
);
}
);
width = 1690;
},
{
anchors = (
{
name = bottom;
pos = (700,0);
},
{
name = top;
pos = (1066,1966);
}
);
associatedMasterId = "586BE664-8D6A-4867-BE1B-390608DE01EA";
background = {
shapes = (
{
closed = 1;
nodes = (
(1307,-34,o),
(1566,237,o),
(1566,605,cs),
(1566,915,o),
(1383,1101,o),
(1067,1157,cs),
(862,1194,ls),
(670,1228,o),
(591,1287,o),
(591,1422,cs),
(591,1577,o),
(687,1656,o),
(876,1656,cs),
(1053,1656,o),
(1200,1585,o),
(1304,1470,c),
(1543,1737,l),
(1405,1898,o),
(1174,1999,o),
(873,1999,cs),
(428,1999,o),
(166,1780,o),
(166,1402,cs),
(166,1115,o),
(315,898,o),
(667,839,cs),
(873,805,ls),
(1064,774,o),
(1138,710,o),
(1138,572,cs),
(1138,403,o),
(1028,310,o),
(828,310,cs),
(653,310,o),
(476,383,o),
(332,541,c),
(87,270,l),
(237,84,o),
(487,-34,o),
(814,-34,cs,{
name = hr00;
})
);
}
);
};
layerId = "42AC3D9E-3BF4-4FC6-93BB-BA16309D3626";
name = "30. Apr. 24, 19:48";
shapes = (
{
closed = 1;
nodes = (
(1214,-34,o),
(1505,237,o),
(1566,602,cs),
(1617,905,o),
(1478,1092,o),
(1179,1149,cs),
(883,1205,ls),
(703,1239,o),
(636,1286,o),
(659,1427,cs),
(686,1587,o),
(795,1656,o),
(984,1656,cs),
(1152,1656,o),
(1241,1582,o),
(1237,1412,c),
(1632,1412,l),
(1699,1812,o),
(1458,1999,o),
(1047,1999,cs),
(581,1999,o),
(294,1785,o),
(231,1410,cs),
(182,1114,o),
(304,906,o),
(638,848,cs),
(926,798,ls),
(1105,767,o),
(1155,701,o),
(1132,563,cs),
(1099,367,o),
(965,310,o),
(779,310,cs),
(573,310,o),
(466,377,o),
(474,572,c),
(76,572,l),
(8,164,o),
(248,-34,o),
(687,-34,cs,{
name = hr00;
})
);
}
);
width = 1690;
},
{
anchors = (
{
name = bottom;
pos = (714,0);
},
{
name = top;
pos = (1046,1966);
}
);
associatedMasterId = "9AAD14F8-FE06-4230-ACE0-3E9D6F8A5A9E";
background = {
shapes = (
{
ref = O;
}
);
};
layerId = "2347B419-0E58-43BA-9CBF-EF1DC4ED65C6";
name = "30. Apr. 24, 19:49";
shapes = (
{
closed = 1;
nodes = (
(1173,-34,o),
(1444,178,o),
(1505,543,cs),
(1549,807,o),
(1461,1022,o),
(1084,1087,cs),
(840,1129,ls),
(597,1171,o),
(527,1285,o),
(557,1459,cs),
(594,1683,o),
(760,1797,o),
(1017,1797,cs),
(1255,1797,o),
(1380,1700,o),
(1360,1469,c),
(1590,1469,l),
(1651,1834,o),
(1419,1999,o),
(1050,1999,cs),
(660,1999,o),
(376,1814,o),
(316,1453,cs),
(274,1204,o),
(357,980,o),
(733,918,cs),
(957,881,ls),
(1217,838,o),
(1299,739,o),
(1265,537,cs),
(1224,291,o),
(1056,169,o),
(751,169,cs),
(454,169,o),
(321,285,o),
(346,519,c),
(117,519,l),
(56,155,o),
(279,-34,o),
(713,-34,cs,{
name = hr00;
})
);
}
);
width = 1690;
}
);
unicode = 83;
}
{
glyphname = T;
layers = (
{
anchors = (
{
name = bottom;
pos = (529,0);
},
{
name = top;
pos = (764,1430);
}
);
guides = (
{
angle = 80.5;
pos = (515,0);
}
);
layerId = "586BE664-8D6A-4867-BE1B-390608DE01EA";
shapes = (
{
closed = 1;
nodes = (
(678,0,l),
(874,1180,l),
(1288,1180,l,{
name = hr00;
}),
(1329,1430,l),
(199,1430,l),
(158,1180,l),
(572,1180,l),
(375,0,l)
);
}
);
width = 1229;
},
{
anchors = (
{
name = bottom;
pos = (529,0);
},
{
name = top;
pos = (753,1430);
}
);
guides = (
{
angle = 80.5;
pos = (608,0);
}
);
layerId = "9AAD14F8-FE06-4230-ACE0-3E9D6F8A5A9E";
shapes = (
{
closed = 1;
nodes = (
(610,0,l),
(825,1282,l),
(1305,1282,l,{
name = hr00;
}),
(1329,1430,l),
(203,1430,l),
(178,1282,l),
(657,1282,l),
(442,0,l)
);
}
);
width = 1229;
},
{
anchors = (
{
name = bottom;
pos = (527,0);
},
{
name = top;
pos = (764,1430);
}
);
guides = (
{
angle = 80.5;
pos = (693,0);
}
);
layerId = "B042A474-670A-4404-9662-903C467C1F9E";
shapes = (
{
closed = 1;
nodes = (
(549,0,l),
(781,1388,l),
(1288,1388,l,{
name = hr00;
}),
(1295,1430,l),
(233,1430,l),
(228,1388,l),
(736,1388,l),
(504,0,l)
);
}
);
width = 1229;
}
);
unicode = 84;
}
{
glyphname = U;
layers = (
{
anchors = (
{
name = bottom;
pos = (752,0);
},
{
name = bottomright;
pos = (1138,0);
},
{
name = top;
pos = (1045,1966);
}
);
background = {
shapes = (
{
closed = 1;
nodes = (
(169,819,ls),
(149,701,o),
(138,591,o),
(138,496,cs),
(138,175,o),
(290,-34,o),
(758,-34,cs),
(1324,-34,o),
(1453,242,o),
(1540,766,cs),
(1740,1966,l),
(1326,1966,l),
(1118,718,ls),
(1076,465,o),
(1031,304,o),
(780,304,cs),
(608,304,o),
(546,383,o),
(546,524,cs),
(546,563,o),
(552,631,o),
(569,732,cs),
(774,1966,l),
(360,1966,l,{
name = hr00;
})
);
}
);
};
layerId = "586BE664-8D6A-4867-BE1B-390608DE01EA";
shapes = (
{
closed = 1;
nodes = (
(139,637,ls),
(74,249,o),
(146,-34,o),
(718,-34,cs),
(1289,-34,o),
(1455,249,o),
(1520,637,cs),
(1742,1966,l),
(1319,1966,l),
(1099,651,ls),
(1064,440,o),
(1023,307,o),
(775,307,cs),
(527,307,o),
(529,440,o),
(564,651,cs),
(784,1966,l),
(361,1966,l,{
name = hr00;
})
);
}
);
width = 1690;
},
{
anchors = (
{
name = bottom;
pos = (721,0);
},
{
name = bottomright;
pos = (1025,0);
},
{
name = top;
pos = (1033,1966);
}
);
background = {
shapes = (
{
closed = 1;
nodes = (
(256,910,ls),
(231,758,o),
(206,589,o),
(206,467,cs),
(206,146,o),
(355,-34,o),
(758,-34,cs),
(1273,-34,o),
(1377,237,o),
(1476,819,cs),
(1667,1966,l),
(1436,1966,l),
(1236,772,ls),
(1171,386,o),
(1121,169,o),
(749,169,cs),
(498,169,o),
(434,293,o),
(434,487,cs),
(434,558,o),
(442,636,o),
(476,839,cs),
(665,1966,l),
(434,1966,l,{
name = hr00;
})
);
}
);
};
layerId = "9AAD14F8-FE06-4230-ACE0-3E9D6F8A5A9E";
shapes = (
{
closed = 1;
nodes = (
(211,642,ls),
(143,239,o),
(183,-34,o),
(718,-34,cs),
(1253,-34,o),
(1382,239,o),
(1450,642,cs),
(1671,1966,l),
(1435,1966,l),
(1204,586,ls),
(1171,386,o),
(1121,172,o),
(752,172,cs),
(383,172,o),
(405,386,o),
(438,586,cs),
(669,1966,l),
(432,1966,l,{
name = hr00;
})
);
}
);
width = 1690;
},
{
anchors = (
{
name = bottom;
pos = (721,0);
},
{
name = bottomright;
pos = (980,0);
},
{
name = top;
pos = (1050,1966);
}
);
background = {
shapes = (
{
closed = 1;
nodes = (
(284,777,ls),
(262,642,o),
(245,518,o),
(245,420,cs),
(245,90,o),
(400,-34,o),
(729,-34,cs),
(1160,-34,o),
(1321,161,o),
(1419,760,cs),
(1619,1966,l),
(1557,1966,l),
(1357,763,ls),
(1264,206,o),
(1129,23,o),
(735,23,cs),
(434,23,o),
(304,124,o),
(304,420,cs),
(304,515,o),
(321,622,o),
(344,763,cs),
(543,1966,l),
(482,1966,l,{
name = hr00;
})
);
}
);
};
layerId = "B042A474-670A-4404-9662-903C467C1F9E";
shapes = (
{
closed = 1;
nodes = (
(250,569,ls),
(180,152,o),
(287,-34,o),
(718,-34,cs),
(1149,-34,o),
(1318,152,o),
(1388,569,cs),
(1621,1966,l),
(1559,1966,l),
(1326,569,ls),
(1262,189,o),
(1121,23,o),
(727,23,cs),
(333,23,o),
(248,189,o),
(312,569,cs),
(545,1966,l),
(483,1966,l,{
name = hr00;
})
);
}
);
width = 1690;
}
);
unicode = 85;
}
{
glyphname = V;
layers = (
{
anchors = (
{
name = bottom;
pos = (724,0);
},
{
name = top;
pos = (1053,1966);
}
);
layerId = "586BE664-8D6A-4867-BE1B-390608DE01EA";
shapes = (
{
closed = 1;
nodes = (
(1861,1966,l),
(1405,1966,l),
(1022,977,l),
(803,400,l),
(777,400,l),
(752,977,l),
(684,1966,l),
(239,1966,l),
(428,0,l),
(1022,0,l,{
name = hr00;
})
);
}
);
width = 1690;
},
{
anchors = (
{
name = bottom;
pos = (718,0);
},
{
name = top;
pos = (1000,1966);
}
);
layerId = "9AAD14F8-FE06-4230-ACE0-3E9D6F8A5A9E";
shapes = (
{
closed = 1;
nodes = (
(1788,1966,l),
(1546,1966,l),
(1104,983,l),
(763,228,l),
(749,228,l),
(650,983,l),
(527,1966,l),
(307,1966,l),
(566,0,l),
(881,0,l,{
name = hr00;
})
);
}
);
width = 1690;
},
{
anchors = (
{
name = bottom;
pos = (724,0);
},
{
name = top;
pos = (1053,1966);
}
);
layerId = "B042A474-670A-4404-9662-903C467C1F9E";
shapes = (
{
closed = 1;
nodes = (
(1740,1966,l),
(1673,1966,l),
(1121,850,l),
(738,73,l),
(729,73,l),
(600,884,l),
(425,1966,l),
(360,1966,l),
(681,0,l),
(766,0,l,{
name = hr00;
})
);
}
);
width = 1690;
}
);
unicode = 86;
}
{
glyphname = W;
layers = (
{
anchors = (
{
name = bottom;
pos = (998,0);
},
{
name = top;
pos = (1327,1966);
}
);
layerId = "B042A474-670A-4404-9662-903C467C1F9E";
shapes = (
{
closed = 1;
nodes = (
(504,0,l),
(1307,1861,l),
(1311,1861,l),
(1491,0,l),
(1576,0,l),
(2424,1966,l),
(2363,1966,l),
(1554,88,l),
(1545,88,l),
(1362,1966,l),
(1291,1966,l),
(482,88,l),
(473,88,l),
(290,1966,l),
(229,1966,l),
(419,0,l)
);
}
);
width = 2535;
},
{
anchors = (
{
name = bottom;
pos = (986,0);
},
{
name = top;
pos = (1309,1966);
}
);
layerId = "586BE664-8D6A-4867-BE1B-390608DE01EA";
shapes = (
{
closed = 1;
nodes = (
(749,0,l),
(1179,1212,l),
(1202,1212,l),
(1226,0,l),
(1849,0,l),
(2521,1966,l),
(2105,1966,l,{
name = hr00;
}),
(1613,513,l),
(1588,513,l),
(1519,1966,l),
(1114,1966,l),
(561,513,l),
(535,513,l),
(528,1966,l),
(112,1966,l),
(126,0,l)
);
}
);
width = 2535;
},
{
anchors = (
{
name = bottom;
pos = (997,0);
},
{
name = top;
pos = (1326,1966);
}
);
background = {
shapes = (
{
closed = 1;
nodes = (
(553,0,l),
(862,0,l),
(1381,1966,l),
(1153,1966,l),
(733,358,l),
(710,358,l),
(350,1966,l),
(110,1966,l)
);
}
);
};
layerId = "9AAD14F8-FE06-4230-ACE0-3E9D6F8A5A9E";
shapes = (
{
closed = 1;
nodes = (
(592,0,l),
(1245,1514,l),
(1255,1514,l),
(1402,0,l),
(1711,0,l),
(2483,1966,l),
(2243,1966,l),
(1614,358,l),
(1591,358,l),
(1440,1966,l),
(1212,1966,l),
(523,358,l),
(500,358,l),
(409,1966,l),
(169,1966,l),
(283,0,l)
);
}
);
width = 2535;
}
);
unicode = 87;
}
{
glyphname = X;
layers = (
{
anchors = (
{
name = bottom;
pos = (524,0);
},
{
name = top;
pos = (764,1430);
}
);
layerId = "586BE664-8D6A-4867-BE1B-390608DE01EA";
shapes = (
{
closed = 1;
nodes = (
(1331,1430,l),
(999,1430,l),
(840,1202,l),
(696,973,l),
(680,973,l),
(612,1202,l),
(532,1430,l),
(193,1430,l),
(457,740,l),
(-68,0,l),
(266,0,l),
(465,284,l),
(600,510,l),
(618,510,l),
(688,284,l),
(788,0,l),
(1127,0,l),
(846,735,l,{
name = hr00;
})
);
}
);
width = 1229;
},
{
anchors = (
{
name = bottom;
pos = (535,0);
},
{
name = top;
pos = (772,1430);
}
);
layerId = "9AAD14F8-FE06-4230-ACE0-3E9D6F8A5A9E";
shapes = (
{
closed = 1;
nodes = (
(1317,1430,l),
(1120,1430,l),
(903,1153,l),
(680,871,l),
(672,871,l),
(540,1153,l),
(414,1430,l),
(233,1430,l),
(563,737,l),
(-33,0,l),
(164,0,l),
(391,289,l),
(633,594,l),
(641,594,l),
(780,289,l),
(911,0,l),
(1092,0,l),
(751,723,l,{
name = hr00;
})
);
}
);
width = 1229;
},
{
anchors = (
{
name = bottom;
pos = (529,0);
},
{
name = top;
pos = (766,1430);
}
);
layerId = "B042A474-670A-4404-9662-903C467C1F9E";
shapes = (
{
closed = 1;
nodes = (
(1263,1430,l),
(1207,1430,l),
(934,1100,l),
(660,768,l),
(653,768,l),
(514,1044,l),
(321,1430,l),
(273,1430,l),
(625,729,l),
(17,0,l),
(73,0,l),
(348,332,l),
(645,688,l),
(651,688,l),
(799,391,l),
(996,0,l),
(1044,0,l),
(680,727,l,{
name = hr00;
})
);
}
);
width = 1229;
}
);
unicode = 88;
}
{
glyphname = Y;
layers = (
{
anchors = (
{
name = bottom;
pos = (529,0);
},
{
name = top;
pos = (751,1430);
}
);
layerId = "586BE664-8D6A-4867-BE1B-390608DE01EA";
shapes = (
{
closed = 1;
nodes = (
(680,0,l,{
name = hr00;
}),
(764,510,l),
(1368,1430,l),
(1030,1430,l),
(825,1094,l),
(665,813,l),
(647,813,l),
(584,1094,l),
(484,1430,l),
(160,1430,l),
(461,504,l),
(377,0,l)
);
}
);
width = 1229;
},
{
anchors = (
{
name = bottom;
pos = (530,0);
},
{
name = top;
pos = (745,1430);
}
);
layerId = "9AAD14F8-FE06-4230-ACE0-3E9D6F8A5A9E";
shapes = (
{
closed = 1;
nodes = (
(610,0,l,{
name = hr00;
}),
(707,572,l),
(1343,1430,l),
(1143,1430,l),
(874,1055,l),
(639,725,l),
(631,725,l),
(510,1055,l),
(364,1430,l),
(184,1430,l),
(537,557,l),
(442,0,l)
);
}
);
width = 1229;
},
{
anchors = (
{
name = bottom;
pos = (527,0);
},
{
name = top;
pos = (766,1430);
}
);
layerId = "B042A474-670A-4404-9662-903C467C1F9E";
shapes = (
{
closed = 1;
nodes = (
(549,0,l,{
name = hr00;
}),
(649,602,l),
(1321,1430,l),
(1268,1430,l),
(979,1075,l),
(635,649,l),
(629,649,l),
(385,1155,l),
(254,1430,l),
(207,1430,l),
(604,602,l),
(504,0,l)
);
}
);
width = 1229;
}
);
unicode = 89;
}
{
glyphname = Z;
layers = (
{
anchors = (
{
name = bottom;
pos = (712,0);
},
{
name = top;
pos = (1025,1966);
}
);
layerId = "586BE664-8D6A-4867-BE1B-390608DE01EA";
shapes = (
{
closed = 1;
nodes = (
(574,344,l),
(1664,1599,l),
(1723,1966,l),
(375,1966,l),
(318,1622,l),
(1174,1622,l),
(84,366,l),
(23,0,l),
(1428,0,l),
(1484,344,l,{
name = hr00;
})
);
}
);
width = 1690;
},
{
anchors = (
{
name = bottom;
pos = (724,0);
},
{
name = top;
pos = (1025,1966);
}
);
layerId = "9AAD14F8-FE06-4230-ACE0-3E9D6F8A5A9E";
shapes = (
{
closed = 1;
nodes = (
(313,203,l),
(1681,1757,l),
(1715,1966,l),
(397,1966,l),
(363,1763,l),
(1416,1763,l),
(48,208,l),
(14,0,l),
(1431,0,l),
(1464,203,l,{
name = hr00;
})
);
}
);
width = 1690;
},
{
anchors = (
{
name = bottom;
pos = (724,0);
},
{
name = top;
pos = (1053,1966);
}
);
layerId = "B042A474-670A-4404-9662-903C467C1F9E";
shapes = (
{
closed = 1;
nodes = (
(99,56,l),
(1687,1904,l),
(1698,1966,l),
(406,1966,l),
(397,1909,l),
(1614,1909,l),
(25,62,l),
(14,0,l),
(1433,0,l),
(1442,56,l,{
name = hr00;
})
);
}
);
width = 1690;
}
);
unicode = 90;
}
{
glyphname = bracketleft;
layers = (
{
layerId = "586BE664-8D6A-4867-BE1B-390608DE01EA";
shapes = (
{
closed = 1;
nodes = (
(932,-82,l),
(516,-82,l),
(756,1356,l),
(1172,1356,l),
(1204,1556,l),
(549,1556,l),
(241,-283,l),
(897,-283,l,{
name = hr00;
})
);
}
);
width = 1229;
},
{
layerId = "9AAD14F8-FE06-4230-ACE0-3E9D6F8A5A9E";
shapes = (
{
closed = 1;
nodes = (
(913,-158,l),
(487,-158,l),
(751,1431,l),
(1180,1431,l),
(1200,1556,l),
(635,1556,l),
(328,-283,l),
(893,-283,l,{
name = hr00;
})
);
}
);
width = 1229;
},
{
layerId = "B042A474-670A-4404-9662-903C467C1F9E";
shapes = (
{
closed = 1;
nodes = (
(899,-246,l),
(452,-246,l),
(748,1519,l),
(1194,1519,l),
(1200,1556,l),
(713,1556,l),
(406,-283,l),
(893,-283,l,{
name = hr00;
})
);
}
);
width = 1229;
}
);
unicode = 91;
}
{
glyphname = backslash;
layers = (
{
layerId = "586BE664-8D6A-4867-BE1B-390608DE01EA";
shapes = (
{
closed = 1;
nodes = (
(573,1556,l),
(329,1556,l),
(676,-283,l),
(919,-283,l,{
name = hr00;
})
);
}
);
width = 1229;
},
{
layerId = "9AAD14F8-FE06-4230-ACE0-3E9D6F8A5A9E";
shapes = (
{
closed = 1;
nodes = (
(502,1556,l),
(373,1556,l),
(778,-283,l),
(907,-283,l,{
name = hr00;
})
);
}
);
width = 1229;
},
{
layerId = "B042A474-670A-4404-9662-903C467C1F9E";
shapes = (
{
closed = 1;
nodes = (
(442,1556,l),
(407,1556,l),
(840,-283,l),
(874,-283,l,{
name = hr00;
})
);
}
);
width = 1229;
}
);
unicode = 92;
}
{
glyphname = bracketright;
layers = (
{
layerId = "586BE664-8D6A-4867-BE1B-390608DE01EA";
shapes = (
{
closed = 1;
nodes = (
(336,1356,l),
(751,1356,l),
(512,-82,l),
(96,-82,l),
(63,-283,l),
(719,-283,l),
(1026,1556,l),
(371,1556,l,{
name = hr00;
})
);
}
);
width = 1229;
},
{
layerId = "9AAD14F8-FE06-4230-ACE0-3E9D6F8A5A9E";
shapes = (
{
closed = 1;
nodes = (
(305,1431,l),
(733,1431,l),
(469,-158,l),
(41,-158,l),
(20,-283,l),
(585,-283,l),
(893,1556,l),
(328,1556,l,{
name = hr00;
})
);
}
);
width = 1229;
},
{
layerId = "B042A474-670A-4404-9662-903C467C1F9E";
shapes = (
{
closed = 1;
nodes = (
(364,1519,l),
(811,1519,l),
(516,-246,l),
(70,-246,l),
(63,-283,l),
(551,-283,l),
(858,1556,l),
(371,1556,l,{
name = hr00;
})
);
}
);
width = 1229;
}
);
unicode = 93;
}
{
glyphname = asciicircum;
layers = (
{
layerId = "586BE664-8D6A-4867-BE1B-390608DE01EA";
shapes = (
{
closed = 1;
nodes = (
(1253,1966,l),
(814,1966,l),
(96,856,l),
(406,710,l),
(963,1583,l),
(994,1583,l),
(1293,721,l),
(1628,856,l,{
name = hr00;
})
);
}
);
width = 1690;
},
{
layerId = "9AAD14F8-FE06-4230-ACE0-3E9D6F8A5A9E";
shapes = (
{
closed = 1;
nodes = (
(1188,1966,l),
(941,1966,l),
(183,924,l),
(346,825,l),
(1033,1774,l),
(1045,1774,l),
(1428,825,l),
(1611,901,l,{
name = hr00;
})
);
}
);
width = 1690;
},
{
layerId = "B042A474-670A-4404-9662-903C467C1F9E";
shapes = (
{
closed = 1;
nodes = (
(1081,1966,l),
(1019,1966,l),
(231,935,l),
(276,904,l),
(1042,1904,l),
(1048,1904,l),
(1484,907,l),
(1535,932,l,{
name = hr00;
})
);
}
);
width = 1690;
}
);
unicode = 94;
}
{
glyphname = underscore;
layers = (
{
layerId = "586BE664-8D6A-4867-BE1B-390608DE01EA";
shapes = (
{
closed = 1;
nodes = (
(1360,-203,l),
(23,-203,l),
(-34,-538,l),
(1304,-538,l,{
name = hr00;
})
);
}
);
width = 1690;
},
{
layerId = "9AAD14F8-FE06-4230-ACE0-3E9D6F8A5A9E";
shapes = (
{
closed = 1;
nodes = (
(1377,-268,l),
(39,-268,l),
(6,-470,l),
(1343,-470,l,{
name = hr00;
})
);
}
);
width = 1690;
},
{
layerId = "B042A474-670A-4404-9662-903C467C1F9E";
shapes = (
{
closed = 1;
nodes = (
(1343,-344,l),
(-8,-344,l),
(-17,-397,l),
(1335,-397,l,{
name = hr00;
})
);
}
);
width = 1690;
}
);
unicode = 95;
}
{
color = 1;
glyphname = grave;
layers = (
{
anchors = (
{
name = _top;
pos = (945,1453);
}
);
layerId = "586BE664-8D6A-4867-BE1B-390608DE01EA";
shapes = (
{
closed = 1;
nodes = (
(1148,1726,l),
(949,2273,l),
(478,2273,l),
(900,1726,l,{
name = hr00;
})
);
}
);
width = 1690;
},
{
anchors = (
{
name = _top;
pos = (932,1453);
}
);
layerId = "9AAD14F8-FE06-4230-ACE0-3E9D6F8A5A9E";
shapes = (
{
closed = 1;
nodes = (
(1086,1647,l),
(842,2194,l),
(570,2196,l),
(905,1647,l,{
name = hr00;
})
);
}
);
width = 1690;
},
{
anchors = (
{
name = _top;
pos = (965,1453);
}
);
layerId = "B042A474-670A-4404-9662-903C467C1F9E";
shapes = (
{
closed = 1;
nodes = (
(1085,1681,l),
(832,2143,l),
(753,2143,l),
(1023,1681,l,{
name = hr00;
})
);
}
);
width = 1690;
}
);
unicode = 96;
}
{
glyphname = a;
layers = (
{
anchors = (
{
name = bottom;
pos = (698,0);
},
{
name = bottomright;
pos = (1504,0);
},
{
name = top;
pos = (918,1453);
}
);
layerId = "586BE664-8D6A-4867-BE1B-390608DE01EA";
shapes = (
{
closed = 1;
nodes = (
(766,-34,o),
(876,124,o),
(986,346,c),
(1000,346,l),
(994,310,ls),
(963,107,o),
(1081,0,o),
(1293,0,cs,{
name = hr01;
}),
(1504,0,l),
(1554,301,l),
(1405,301,l),
(1597,1453,l),
(1186,1453,l),
(1140,1183,l),
(1121,1183,l),
(1079,1374,o),
(983,1487,o),
(763,1487,cs,{
name = hr02;
}),
(355,1487,o),
(107,1104,o),
(107,543,cs),
(107,191,o),
(206,-34,o),
(510,-34,cs)
);
},
{
closed = 1;
nodes = (
(563,284,o),
(524,391,o),
(524,527,cs),
(524,577,o),
(529,622,o),
(535,656,cs),
(563,825,ls),
(600,1045,o),
(687,1169,o),
(893,1169,cs),
(1067,1169,o),
(1124,1081,o),
(1098,929,cs),
(1059,696,ls),
(1039,574,o),
(977,473,o),
(935,420,cs),
(870,338,o),
(791,284,o),
(696,284,cs)
);
}
);
width = 1690;
},
{
anchors = (
{
name = bottom;
pos = (676,0);
},
{
name = bottomright;
pos = (1476,0);
},
{
name = top;
pos = (890,1453);
}
);
layerId = "9AAD14F8-FE06-4230-ACE0-3E9D6F8A5A9E";
shapes = (
{
closed = 1;
nodes = (
(850,-34,o),
(991,115,o),
(1104,344,c),
(1112,344,l),
(1095,239,ls),
(1073,107,o),
(1132,0,o),
(1312,0,cs,{
name = hr01;
}),
(1476,0,l),
(1509,197,l),
(1309,197,l),
(1518,1453,l),
(1298,1453,l),
(1256,1200,l),
(1247,1200,l),
(1186,1388,o),
(1042,1487,o),
(834,1487,cs,{
name = hr02;
}),
(329,1487,o),
(158,918,o),
(158,529,cs),
(158,158,o),
(315,-34,o),
(600,-34,cs)
);
},
{
closed = 1;
nodes = (
(482,161,o),
(380,290,o),
(380,507,cs),
(380,543,o),
(383,583,o),
(391,634,cs),
(425,836,ls),
(470,1107,o),
(625,1293,o),
(895,1293,cs),
(1110,1293,o),
(1253,1177,o),
(1219,974,cs),
(1166,653,ls),
(1143,521,o),
(1084,406,o),
(1011,321,cs),
(912,208,o),
(794,161,o),
(676,161,cs)
);
}
);
width = 1690;
},
{
anchors = (
{
name = bottom;
pos = (662,0);
},
{
name = bottomright;
pos = (1456,0);
},
{
name = top;
pos = (904,1453);
}
);
layerId = "B042A474-670A-4404-9662-903C467C1F9E";
shapes = (
{
closed = 1;
nodes = (
(943,-34,o),
(1095,113,o),
(1205,324,c),
(1214,324,l),
(1174,84,ls),
(1166,28,o),
(1183,0,o),
(1239,0,cs,{
name = hr01;
}),
(1456,0,l),
(1467,54,l),
(1228,54,l),
(1462,1453,l),
(1402,1453,l),
(1360,1191,l),
(1352,1191,l),
(1295,1363,o),
(1138,1487,o),
(881,1487,cs,{
name = hr02;
}),
(470,1487,o),
(200,1081,o),
(200,524,cs),
(200,203,o),
(366,-34,o),
(687,-34,cs)
);
},
{
closed = 1;
nodes = (
(380,20,o),
(256,251,o),
(256,524,cs),
(256,572,o),
(259,620,o),
(268,667,cs),
(290,805,ls),
(349,1160,o),
(560,1433,o),
(881,1433,cs),
(1242,1433,o),
(1357,1194,o),
(1326,1000,cs),
(1256,574,ls),
(1225,389,o),
(1118,234,o),
(1008,135,cs),
(915,54,o),
(811,20,o),
(687,20,cs)
);
}
);
width = 1690;
}
);
unicode = 97;
}
{
color = 4;
glyphname = b;
layers = (
{
anchors = (
{
name = bottom;
pos = (895,0);
}
);
background = {
shapes = (
{
closed = 1;
nodes = (
(470,0,l),
(515,270,l),
(535,270,l),
(577,79,o),
(687,-34,o),
(915,-34,cs,{
name = hr01;
}),
(1318,-34,o),
(1583,346,o),
(1583,924,cs),
(1583,1264,o),
(1464,1487,o),
(1157,1487,cs),
(910,1487,o),
(780,1329,o),
(670,1107,c),
(656,1107,l),
(817,2084,l,{
name = hr02;
}),
(406,2084,l),
(59,0,l)
);
},
{
closed = 1;
nodes = (
(605,284,o),
(532,372,o),
(558,524,cs),
(597,758,ls),
(617,879,o),
(684,977,o),
(729,1031,cs),
(797,1115,o),
(873,1169,o),
(974,1169,cs),
(1115,1169,o),
(1163,1062,o),
(1166,924,cs),
(1166,876,o),
(1160,831,o),
(1155,797,cs),
(1126,628,ls),
(1090,408,o),
(986,284,o),
(783,284,cs,{
name = hr03;
})
);
}
);
};
layerId = "586BE664-8D6A-4867-BE1B-390608DE01EA";
shapes = (
{
alignment = -1;
pos = (-414,0);
ref = _stem_minor;
},
{
alignment = -1;
pos = (282,0);
ref = _b;
}
);
width = 1690;
},
{
anchors = (
{
name = bottom;
pos = (795,0);
}
);
background = {
shapes = (
{
closed = 1;
nodes = (
(369,0,l),
(411,253,l),
(420,253,l),
(482,65,o),
(631,-34,o),
(845,-34,cs,{
name = hr01;
}),
(1357,-34,o),
(1532,535,o),
(1532,924,cs),
(1532,1295,o),
(1371,1487,o),
(1079,1487,cs),
(822,1487,o),
(676,1338,o),
(563,1110,c),
(555,1110,l),
(718,2084,l,{
name = hr02;
}),
(498,2084,l),
(149,0,l)
);
},
{
closed = 1;
nodes = (
(560,161,o),
(414,276,o),
(448,479,cs),
(501,800,ls),
(524,935,o),
(589,1050,o),
(662,1132,cs),
(763,1245,o),
(881,1293,o),
(1002,1293,cs),
(1205,1293,o),
(1309,1163,o),
(1309,946,cs),
(1309,910,o),
(1307,870,o),
(1298,819,cs),
(1264,617,ls),
(1219,346,o),
(1056,161,o),
(777,161,cs,{
name = hr03;
})
);
}
);
};
layerId = "9AAD14F8-FE06-4230-ACE0-3E9D6F8A5A9E";
shapes = (
{
alignment = -1;
pos = (-419,0);
ref = _stem_minor;
},
{
alignment = -1;
pos = (222,0);
ref = _b;
}
);
width = 1690;
},
{
anchors = (
{
name = bottom;
pos = (805,0);
}
);
background = {
shapes = (
{
closed = 1;
nodes = (
(284,0,l),
(327,262,l),
(335,262,l),
(391,90,o),
(549,-34,o),
(805,-34,cs,{
name = hr01;
}),
(1217,-34,o),
(1487,372,o),
(1487,929,cs),
(1487,1250,o),
(1321,1487,o),
(1000,1487,cs),
(743,1487,o),
(591,1340,o),
(482,1129,c),
(473,1129,l),
(631,2084,l,{
name = hr02;
}),
(572,2084,l),
(225,0,l)
);
},
{
closed = 1;
nodes = (
(445,20,o),
(329,259,o),
(360,453,cs),
(431,879,ls),
(462,1064,o),
(569,1219,o),
(679,1318,cs),
(772,1400,o),
(876,1433,o),
(1000,1433,cs),
(1307,1433,o),
(1431,1202,o),
(1431,929,cs),
(1431,881,o),
(1428,834,o),
(1419,786,cs),
(1397,648,ls),
(1338,293,o),
(1126,20,o),
(805,20,cs,{
name = hr03;
})
);
}
);
};
layerId = "B042A474-670A-4404-9662-903C467C1F9E";
shapes = (
{
alignment = -1;
pos = (-464,0);
ref = _stem_minor;
},
{
alignment = -1;
pos = (185,0);
ref = _b;
}
);
width = 1690;
}
);
unicode = 98;
}
{
color = 4;
glyphname = c;
layers = (
{
anchors = (
{
name = bottom;
pos = (565,0);
},
{
name = top;
pos = (695,1057);
}
);
layerId = "586BE664-8D6A-4867-BE1B-390608DE01EA";
shapes = (
{
closed = 1;
nodes = (
(875,-25,o),
(1039,143,o),
(1083,401,c),
(812,401,l),
(777,283,o),
(711,201,o),
(577,201,cs),
(463,201,o),
(407,261,o),
(407,372,cs),
(407,409,o),
(407,407,o),
(441,612,cs),
(467,768,o),
(550,856,o),
(687,856,cs),
(805,856,o),
(857,792,o),
(857,696,cs),
(857,683,o),
(855,670,o),
(854,656,c),
(1125,656,l),
(1129,681,o),
(1132,705,o),
(1132,729,cs),
(1132,940,o),
(959,1081,o),
(692,1081,cs),
(196,1081,o),
(106,612,o),
(106,417,cs),
(106,130,o),
(279,-25,o),
(571,-25,cs,{
name = hr00;
})
);
}
);
width = 1229;
},
{
anchors = (
{
name = bottom;
pos = (557,0);
},
{
name = top;
pos = (695,1057);
}
);
layerId = "9AAD14F8-FE06-4230-ACE0-3E9D6F8A5A9E";
shapes = (
{
closed = 1;
nodes = (
(857,-24,o),
(999,150,o),
(1040,352,c),
(875,352,l),
(836,214,o),
(753,117,o),
(559,117,cs),
(397,117,o),
(310,188,o),
(310,345,cs),
(310,391,o),
(311,391,o),
(349,618,cs),
(388,856,o),
(507,940,o),
(699,940,cs),
(871,940,o),
(927,859,o),
(927,737,cs),
(927,729,o),
(927,721,o),
(927,713,c),
(1092,713,l),
(1094,729,o),
(1095,746,o),
(1095,763,cs),
(1095,942,o),
(951,1081,o),
(691,1081,cs),
(196,1081,o),
(145,570,o),
(145,385,cs),
(145,111,o),
(303,-25,o),
(551,-25,c,{
name = hr00;
})
);
}
);
width = 1229;
},
{
anchors = (
{
name = bottom;
pos = (532,0);
},
{
name = top;
pos = (668,1057);
}
);
layerId = "B042A474-670A-4404-9662-903C467C1F9E";
shapes = (
{
closed = 1;
nodes = (
(733,-25,o),
(904,63,o),
(954,319,c),
(911,319,l),
(868,99,o),
(716,15,o),
(517,15,cs),
(308,15,o),
(201,121,o),
(201,336,cs),
(201,393,o),
(204,420,o),
(230,577,cs),
(283,895,o),
(439,1042,o),
(694,1042,cs),
(860,1042,o),
(971,979,o),
(971,804,cs),
(971,784,o),
(969,761,o),
(967,738,c),
(1009,738,l),
(1013,765,o),
(1015,790,o),
(1015,813,cs),
(1015,1015,o),
(873,1081,o),
(690,1081,cs),
(192,1081,o),
(158,524,o),
(158,346,cs),
(158,84,o),
(290,-25,o),
(517,-25,cs,{
name = hr00;
})
);
}
);
width = 1229;
},
{
anchors = (
{
name = bottom;
pos = (557,0);
},
{
name = top;
pos = (695,1057);
}
);
associatedMasterId = "9AAD14F8-FE06-4230-ACE0-3E9D6F8A5A9E";
background = {
shapes = (
{
closed = 1;
nodes = (
(774,-25,o),
(907,90,o),
(1041,305,c),
(926,373,l),
(758,141,o),
(668,115,o),
(573,115,cs),
(420,115,o),
(316,199,o),
(316,379,cs),
(316,406,o),
(317,428,o),
(326,477,cs),
(346,600,ls),
(383,821,o),
(500,942,o),
(680,942,cs),
(811,942,o),
(889,903,o),
(929,774,c),
(1067,828,l),
(1030,967,o),
(921,1081,o),
(698,1081,cs),
(397,1081,o),
(153,825,o),
(153,422,cs),
(153,158,o),
(291,-25,o),
(553,-25,cs,{
name = hr00;
})
);
}
);
};
layerId = "0009567C-689E-4C0D-8AF8-89589BCB0FC7";
name = "1. Mai 24, 17:50";
shapes = (
{
closed = 1;
nodes = (
(836,-24,o),
(999,150,o),
(1040,352,c),
(875,352,l),
(836,214,o),
(753,117,o),
(559,117,cs),
(368,117,o),
(281,215,o),
(319,439,cs),
(349,618,ls),
(388,856,o),
(507,940,o),
(699,940,cs),
(882,940,o),
(934,848,o),
(927,713,c),
(1092,713,l),
(1119,915,o),
(1007,1081,o),
(722,1081,cs),
(424,1081,o),
(223,914,o),
(158,529,cs),
(96,158,o),
(241,-25,o),
(529,-25,c,{
name = hr00;
})
);
}
);
width = 1229;
},
{
anchors = (
{
name = bottom;
pos = (565,0);
},
{
name = top;
pos = (695,1057);
}
);
associatedMasterId = "586BE664-8D6A-4867-BE1B-390608DE01EA";
background = {
shapes = (
{
closed = 1;
nodes = (
(813,-25,o),
(952,98,o),
(1092,319,c),
(905,440,l),
(756,244,o),
(695,215,o),
(608,215,cs),
(473,215,o),
(422,289,o),
(422,397,cs),
(422,430,o),
(426,469,o),
(430,494,cs),
(451,617,ls),
(475,764,o),
(561,841,o),
(678,841,cs),
(796,841,o),
(840,786,o),
(868,698,c),
(1112,813,l),
(1067,973,o),
(944,1081,o),
(703,1081,cs),
(326,1081,o),
(117,783,o),
(117,422,cs),
(117,139,o),
(273,-25,o),
(559,-25,cs,{
name = hr00;
})
);
}
);
};
layerId = "4BAAAC65-EDCA-4070-8815-40BB19061678";
name = "1. Mai 24, 18:01";
shapes = (
{
closed = 1;
nodes = (
(869,-25,o),
(1039,143,o),
(1083,401,c),
(812,401,l),
(777,283,o),
(711,201,o),
(577,201,cs),
(441,201,o),
(388,287,o),
(414,444,cs),
(441,612,ls),
(467,768,o),
(550,856,o),
(687,856,cs),
(820,856,o),
(860,774,o),
(854,656,c),
(1125,656,l),
(1169,908,o),
(988,1081,o),
(692,1081,cs),
(356,1081,o),
(159,857,o),
(114,529,cs),
(65,171,o),
(237,-25,o),
(565,-25,cs,{
name = hr00;
})
);
}
);
width = 1229;
}
);
unicode = 99;
}
{
color = 4;
glyphname = d;
layers = (
{
associatedMasterId = "586BE664-8D6A-4867-BE1B-390608DE01EA";
background = {
shapes = (
{
closed = 1;
nodes = (
(1009,0,l),
(1262,1516,l),
(963,1516,l),
(854,860,l),
(840,860,l),
(809,999,o),
(729,1081,o),
(563,1081,cs),
(271,1081,o),
(78,805,o),
(78,385,cs),
(78,137,o),
(164,-25,o),
(387,-25,cs,{
name = hr01;
}),
(567,-25,o),
(662,90,o),
(741,252,c,{
name = hr02;
}),
(751,252,l),
(711,0,l)
);
},
{
closed = 1;
nodes = (
(417,207,o),
(383,284,o),
(381,385,cs),
(381,420,o),
(385,452,o),
(389,477,cs),
(409,600,ls),
(436,760,o),
(512,850,o),
(660,850,cs),
(788,850,o),
(841,786,o),
(823,676,cs),
(795,506,ls),
(780,417,o),
(731,346,o),
(698,307,cs),
(649,246,o),
(594,207,o),
(520,207,cs,{
name = hr03;
})
);
}
);
};
layerId = "370A3DCC-81BD-48EF-86C0-FBA9D521E4DC";
name = "12. Apr. 24, 23:10";
shapes = (
{
closed = 1;
nodes = (
(1009,0,l),
(1262,1516,l),
(963,1516,l),
(854,860,l),
(840,860,l),
(809,999,o),
(729,1081,o),
(563,1081,cs),
(271,1081,o),
(78,805,o),
(78,385,cs),
(78,137,o),
(164,-25,o),
(387,-25,cs,{
name = hr01;
}),
(567,-25,o),
(662,90,o),
(741,252,c,{
name = hr02;
}),
(751,252,l),
(711,0,l)
);
},
{
closed = 1;
nodes = (
(417,207,o),
(383,284,o),
(381,385,cs),
(381,420,o),
(385,452,o),
(389,477,cs),
(409,600,ls),
(436,760,o),
(512,850,o),
(660,850,cs),
(788,850,o),
(841,786,o),
(823,676,cs),
(795,506,ls),
(780,417,o),
(731,346,o),
(698,307,cs),
(649,246,o),
(594,207,o),
(520,207,cs,{
name = hr03;
})
);
}
);
width = 1229;
},
{
background = {
shapes = (
{
closed = 1;
nodes = (
(1009,0,l),
(1262,1516,l),
(963,1516,l),
(854,860,l),
(840,860,l),
(809,999,o),
(729,1081,o),
(563,1081,cs),
(271,1081,o),
(78,805,o),
(78,385,cs),
(78,137,o),
(164,-25,o),
(387,-25,cs,{
name = hr01;
}),
(567,-25,o),
(662,90,o),
(741,252,c,{
name = hr02;
}),
(751,252,l),
(711,0,l)
);
},
{
closed = 1;
nodes = (
(417,207,o),
(383,284,o),
(381,385,cs),
(381,420,o),
(385,452,o),
(389,477,cs),
(409,600,ls),
(436,760,o),
(512,850,o),
(660,850,cs),
(788,850,o),
(841,786,o),
(823,676,cs),
(795,506,ls),
(780,417,o),
(731,346,o),
(698,307,cs),
(649,246,o),
(594,207,o),
(520,207,cs,{
name = hr03;
})
);
}
);
};
layerId = "586BE664-8D6A-4867-BE1B-390608DE01EA";
name = Bold;
shapes = (
{
ref = _d;
},
{
alignment = -1;
pos = (372,0);
ref = _stem_minor;
}
);
width = 1229;
},
{
associatedMasterId = "9AAD14F8-FE06-4230-ACE0-3E9D6F8A5A9E";
background = {
shapes = (
{
closed = 1;
nodes = (
(944,0,l),
(1198,1516,l),
(1039,1516,l),
(929,873,l),
(924,873,l),
(879,1009,o),
(770,1081,o),
(615,1081,cs),
(241,1081,o),
(115,668,o),
(115,385,cs),
(115,115,o),
(231,-25,o),
(444,-25,cs,{
name = hr01;
}),
(631,-25,o),
(737,84,o),
(819,250,c,{
name = hr02;
}),
(825,250,l),
(785,0,l)
);
},
{
closed = 1;
nodes = (
(352,117,o),
(276,211,o),
(276,369,cs),
(276,395,o),
(279,424,o),
(284,461,cs),
(309,608,ls),
(342,805,o),
(459,940,o),
(662,940,cs),
(819,940,o),
(928,856,o),
(903,708,cs),
(864,475,ls),
(848,377,o),
(801,293,o),
(748,233,cs),
(673,151,o),
(588,117,o),
(500,117,cs,{
name = hr03;
})
);
}
);
};
layerId = "BCD87C52-1D7F-401C-B881-AEEAC8DF215C";
name = "12. Apr. 24, 23:10";
shapes = (
{
closed = 1;
nodes = (
(944,0,l),
(1198,1516,l),
(1039,1516,l),
(929,873,l),
(924,873,l),
(879,1009,o),
(770,1081,o),
(615,1081,cs),
(241,1081,o),
(115,668,o),
(115,385,cs),
(115,115,o),
(231,-25,o),
(444,-25,cs,{
name = hr01;
}),
(631,-25,o),
(737,84,o),
(819,250,c,{
name = hr02;
}),
(825,250,l),
(785,0,l)
);
},
{
closed = 1;
nodes = (
(352,117,o),
(276,211,o),
(276,369,cs),
(276,395,o),
(279,424,o),
(284,461,cs),
(309,608,ls),
(342,805,o),
(459,940,o),
(662,940,cs),
(819,940,o),
(928,856,o),
(903,708,cs),
(864,475,ls),
(848,377,o),
(801,293,o),
(748,233,cs),
(673,151,o),
(588,117,o),
(500,117,cs,{
name = hr03;
})
);
}
);
width = 1229;
},
{
background = {
shapes = (
{
closed = 1;
nodes = (
(944,0,l),
(1198,1516,l),
(1039,1516,l),
(929,873,l),
(924,873,l),
(879,1009,o),
(770,1081,o),
(615,1081,cs),
(241,1081,o),
(115,668,o),
(115,385,cs),
(115,115,o),
(231,-25,o),
(444,-25,cs,{
name = hr01;
}),
(631,-25,o),
(737,84,o),
(819,250,c,{
name = hr02;
}),
(825,250,l),
(785,0,l)
);
},
{
closed = 1;
nodes = (
(352,117,o),
(276,211,o),
(276,369,cs),
(276,395,o),
(279,424,o),
(284,461,cs),
(309,608,ls),
(342,805,o),
(459,940,o),
(662,940,cs),
(819,940,o),
(928,856,o),
(903,708,cs),
(864,475,ls),
(848,377,o),
(801,293,o),
(748,233,cs),
(673,151,o),
(588,117,o),
(500,117,cs,{
name = hr03;
})
);
}
);
};
layerId = "9AAD14F8-FE06-4230-ACE0-3E9D6F8A5A9E";
name = Regular;
shapes = (
{
ref = _d;
},
{
alignment = -1;
pos = (366,0);
ref = _stem_minor;
}
);
width = 1229;
},
{
associatedMasterId = "B042A474-670A-4404-9662-903C467C1F9E";
background = {
shapes = (
{
closed = 1;
nodes = (
(887,0,l),
(1139,1516,l),
(1096,1516,l),
(989,866,l),
(983,866,l),
(942,991,o),
(828,1081,o),
(641,1081,cs),
(342,1081,o),
(145,786,o),
(145,381,cs),
(145,148,o),
(266,-25,o),
(500,-25,cs,{
name = hr01;
}),
(686,-25,o),
(796,82,o),
(876,236,c,{
name = hr02;
}),
(883,236,l),
(844,0,l)
);
},
{
closed = 1;
nodes = (
(276,15,o),
(186,183,o),
(186,381,cs),
(186,416,o),
(188,451,o),
(195,485,cs),
(211,585,ls),
(254,844,o),
(407,1042,o),
(641,1042,cs),
(903,1042,o),
(987,868,o),
(964,727,cs),
(913,417,ls),
(891,283,o),
(813,170,o),
(733,98,cs),
(665,39,o),
(590,15,o),
(500,15,cs,{
name = hr03;
})
);
}
);
};
layerId = "9945C14E-EB9D-4251-8267-DB7DFCA5264C";
name = "12. Apr. 24, 23:10";
shapes = (
{
closed = 1;
nodes = (
(887,0,l),
(1139,1516,l),
(1096,1516,l),
(989,866,l),
(983,866,l),
(942,991,o),
(828,1081,o),
(641,1081,cs),
(342,1081,o),
(145,786,o),
(145,381,cs),
(145,148,o),
(266,-25,o),
(500,-25,cs,{
name = hr01;
}),
(686,-25,o),
(796,82,o),
(876,236,c,{
name = hr02;
}),
(883,236,l),
(844,0,l)
);
},
{
closed = 1;
nodes = (
(276,15,o),
(186,183,o),
(186,381,cs),
(186,416,o),
(188,451,o),
(195,485,cs),
(211,585,ls),
(254,844,o),
(407,1042,o),
(641,1042,cs),
(903,1042,o),
(987,868,o),
(964,727,cs),
(913,417,ls),
(891,283,o),
(813,170,o),
(733,98,cs),
(665,39,o),
(590,15,o),
(500,15,cs,{
name = hr03;
})
);
}
);
width = 1229;
},
{
background = {
shapes = (
{
closed = 1;
nodes = (
(887,0,l),
(1139,1516,l),
(1096,1516,l),
(989,866,l),
(983,866,l),
(942,991,o),
(828,1081,o),
(641,1081,cs),
(342,1081,o),
(145,786,o),
(145,381,cs),
(145,148,o),
(266,-25,o),
(500,-25,cs,{
name = hr01;
}),
(686,-25,o),
(796,82,o),
(876,236,c,{
name = hr02;
}),
(883,236,l),
(844,0,l)
);
},
{
closed = 1;
nodes = (
(276,15,o),
(186,183,o),
(186,381,cs),
(186,416,o),
(188,451,o),
(195,485,cs),
(211,585,ls),
(254,844,o),
(407,1042,o),
(641,1042,cs),
(903,1042,o),
(987,868,o),
(964,727,cs),
(913,417,ls),
(891,283,o),
(813,170,o),
(733,98,cs),
(665,39,o),
(590,15,o),
(500,15,cs,{
name = hr03;
})
);
}
);
};
layerId = "B042A474-670A-4404-9662-903C467C1F9E";
name = Thin;
shapes = (
{
ref = _d;
},
{
alignment = -1;
pos = (336,0);
ref = _stem_minor;
}
);
width = 1229;
}
);
unicode = 100;
}
{
color = 1;
glyphname = e;
layers = (
{
anchors = (
{
name = bottom;
pos = (788,0);
},
{
name = bottomright;
pos = (1119,21);
},
{
name = top;
pos = (966,1453);
}
);
background = {
shapes = (
{
closed = 1;
nodes = (
(1163,-34,o),
(1349,146,o),
(1501,363,c),
(1245,529,l),
(1095,338,o),
(1005,282,o),
(845,282,cs),
(648,282,o),
(566,369,o),
(566,524,cs),
(566,538,o),
(566,549,o),
(569,572,c),
(1397,603,o),
(1549,853,o),
(1549,1087,cs),
(1549,1354,o),
(1307,1487,o),
(1014,1487,cs),
(498,1487,o),
(158,1126,o),
(158,586,cs),
(158,200,o),
(363,-34,o),
(791,-34,cs,{
name = hr00;
})
);
},
{
closed = 1;
nodes = (
(1095,1197,o),
(1152,1143,o),
(1152,1050,cs),
(1152,957,o),
(1118,836,o),
(597,808,c),
(605,848,ls),
(659,1098,o),
(794,1197,o),
(972,1197,cs)
);
}
);
};
layerId = "586BE664-8D6A-4867-BE1B-390608DE01EA";
shapes = (
{
closed = 1;
nodes = (
(1163,-34,o),
(1443,141,o),
(1529,511,c),
(1185,509,l),
(1105,338,o),
(1005,282,o),
(845,282,cs),
(648,282,o),
(566,369,o),
(566,524,cs),
(566,538,o),
(566,549,o),
(569,572,c),
(1397,603,o),
(1549,853,o),
(1549,1087,cs),
(1549,1354,o),
(1307,1487,o),
(1014,1487,cs),
(498,1487,o),
(158,1126,o),
(158,586,cs),
(158,200,o),
(363,-34,o),
(791,-34,cs,{
name = hr00;
})
);
},
{
closed = 1;
nodes = (
(1095,1197,o),
(1152,1143,o),
(1152,1050,cs),
(1152,957,o),
(1118,836,o),
(597,808,c),
(605,848,ls),
(659,1098,o),
(794,1197,o),
(972,1197,cs)
);
}
);
width = 1690;
},
{
anchors = (
{
name = bottom;
pos = (791,0);
},
{
name = bottomright;
pos = (1014,-1);
},
{
name = top;
pos = (997,1453);
}
);
background = {
shapes = (
{
closed = 1;
nodes = (
(1087,-34,o),
(1284,113,o),
(1447,380,c),
(1293,476,l),
(1129,245,o),
(1008,155,o),
(800,155,cs),
(496,155,o),
(436,344,o),
(436,546,cs),
(436,552,o),
(436,583,o),
(439,611,c),
(1366,636,o),
(1498,890,o),
(1498,1095,cs),
(1498,1349,o),
(1290,1487,o),
(1005,1487,cs),
(538,1487,o),
(206,1115,o),
(206,589,cs),
(206,172,o),
(414,-34,o),
(780,-34,cs,{
name = hr00;
})
);
},
{
closed = 1;
nodes = (
(1197,1304,o),
(1273,1205,o),
(1273,1087,cs),
(1273,946,o),
(1166,786,o),
(456,763,c),
(459,791,ls),
(501,1121,o),
(693,1304,o),
(986,1304,cs)
);
}
);
};
layerId = "9AAD14F8-FE06-4230-ACE0-3E9D6F8A5A9E";
shapes = (
{
closed = 1;
nodes = (
(1097,-34,o),
(1361,125,o),
(1447,476,c),
(1223,476,l),
(1136,245,o),
(1008,155,o),
(800,155,cs),
(496,155,o),
(436,344,o),
(436,546,cs),
(436,552,o),
(436,583,o),
(439,611,c),
(1366,636,o),
(1498,890,o),
(1498,1095,cs),
(1498,1349,o),
(1290,1487,o),
(1005,1487,cs),
(538,1487,o),
(206,1116,o),
(206,587,cs),
(206,172,o),
(411,-34,o),
(776,-34,cs,{
name = hr00;
})
);
},
{
closed = 1;
nodes = (
(1197,1304,o),
(1273,1205,o),
(1273,1087,cs),
(1273,946,o),
(1166,786,o),
(456,763,c),
(459,791,ls),
(493,1109,o),
(691,1304,o),
(986,1304,cs)
);
}
);
width = 1690;
},
{
anchors = (
{
name = bottom;
pos = (763,0);
},
{
name = bottomright;
pos = (974,0);
},
{
name = top;
pos = (960,1453);
}
);
background = {
shapes = (
{
closed = 1;
nodes = (
(1028,-34,o),
(1219,101,o),
(1374,397,c),
(1324,422,l),
(1200,172,o),
(1019,20,o),
(769,20,cs),
(420,20,o),
(290,268,o),
(290,577,cs),
(290,580,o),
(290,620,o),
(293,650,c),
(1298,670,o),
(1422,952,o),
(1422,1140,cs),
(1422,1354,o),
(1250,1487,o),
(966,1487,cs),
(532,1487,o),
(234,1076,o),
(234,597,cs),
(234,186,o),
(420,-34,o),
(769,-34,cs,{
name = hr00;
})
);
},
{
closed = 1;
nodes = (
(1247,1433,o),
(1360,1307,o),
(1360,1140,cs),
(1360,935,o),
(1188,718,o),
(298,704,c),
(313,791,ls),
(377,1197,o),
(656,1433,o),
(960,1433,cs)
);
}
);
};
layerId = "B042A474-670A-4404-9662-903C467C1F9E";
shapes = (
{
closed = 1;
nodes = (
(1030,-34,o),
(1272,101,o),
(1383,502,c),
(1321,502,l),
(1215,165,o),
(1019,20,o),
(761,20,cs),
(424,20,o),
(290,268,o),
(290,577,cs),
(290,580,o),
(290,620,o),
(293,650,c),
(1295,670,o),
(1422,952,o),
(1422,1136,cs),
(1422,1354,o),
(1245,1487,o),
(982,1487,cs),
(520,1487,o),
(234,1076,o),
(234,587,cs),
(234,188,o),
(424,-34,o),
(764,-34,cs,{
name = hr00;
})
);
},
{
closed = 1;
nodes = (
(1236,1433,o),
(1360,1307,o),
(1360,1137,cs),
(1360,935,o),
(1185,718,o),
(298,704,c),
(312,791,ls),
(377,1195,o),
(641,1433,o),
(985,1433,cs)
);
}
);
width = 1690;
}
);
unicode = 101;
}
{
glyphname = f;
layers = (
{
layerId = "586BE664-8D6A-4867-BE1B-390608DE01EA";
shapes = (
{
closed = 1;
nodes = (
(724,-597,o),
(887,-465,o),
(941,-149,cs),
(1155,1132,l),
(1681,1132,l),
(1735,1453,l),
(1211,1453,l),
(1262,1763,l),
(1785,1763,l),
(1839,2084,l),
(1338,2084,ls),
(1036,2084,o),
(876,1915,o),
(836,1673,cs),
(800,1453,l),
(341,1453,l),
(287,1132,l),
(746,1132,l),
(515,-259,l),
(482,-273,l),
(191,110,l),
(-90,-84,l),
(25,-251,ls),
(172,-459,o),
(282,-597,o),
(487,-597,cs,{
name = hr00;
})
);
}
);
width = 1690;
},
{
layerId = "9AAD14F8-FE06-4230-ACE0-3E9D6F8A5A9E";
shapes = (
{
closed = 1;
nodes = (
(721,-597,o),
(797,-459,o),
(822,-301,cs),
(1084,1264,l),
(1673,1264,l),
(1704,1453,l),
(1115,1453,l),
(1188,1895,l),
(1774,1895,l),
(1805,2084,l),
(1318,2084,ls),
(1101,2084,o),
(977,1946,o),
(946,1754,cs),
(895,1453,l),
(377,1453,l),
(346,1264,l),
(865,1264,l),
(589,-389,l),
(538,-400,l),
(104,62,l),
(-45,-73,l),
(127,-262,ls),
(352,-507,o),
(434,-597,o),
(552,-597,cs,{
name = hr00;
})
);
}
);
width = 1690;
},
{
layerId = "B042A474-670A-4404-9662-903C467C1F9E";
shapes = (
{
closed = 1;
nodes = (
(634,-597,o),
(650,-566,o),
(662,-501,cs),
(980,1400,l),
(1614,1400,l),
(1622,1453,l),
(988,1453,l),
(1084,2030,l),
(1718,2030,l),
(1726,2084,l),
(1110,2084,ls),
(1053,2084,o),
(1028,2061,o),
(1019,2002,cs),
(929,1453,l),
(386,1453,l),
(377,1400,l),
(921,1400,l),
(597,-538,l),
(580,-543,l),
(11,-34,l),
(-28,-73,l),
(501,-549,ls),
(538,-580,o),
(560,-597,o),
(589,-597,cs,{
name = hr00;
})
);
}
);
width = 1690;
}
);
unicode = 102;
}
{
glyphname = g;
layers = (
{
anchors = (
{
name = top;
pos = (932,1453);
}
);
background = {
shapes = (
{
closed = 1;
nodes = (
(1062,-597,o),
(1332,-369,o),
(1411,101,cs),
(1636,1453,l),
(1225,1453,l),
(1180,1183,l),
(1157,1183,l),
(1118,1374,o),
(1008,1487,o),
(774,1487,cs,{
name = hr01;
}),
(366,1487,o),
(115,1115,o),
(115,586,cs),
(115,262,o),
(239,23,o),
(552,23,cs),
(803,23,o),
(929,180,o),
(1036,403,c),
(1053,403,l),
(1011,152,ls),
(952,-203,o),
(828,-279,o),
(620,-279,cs),
(490,-279,o),
(372,-239,o),
(282,-130,c),
(37,-383,l),
(183,-555,o),
(360,-597,o),
(631,-597,cs)
);
},
{
closed = 1;
nodes = (
(591,344,o),
(538,445,o),
(538,569,cs),
(538,628,o),
(543,673,o),
(549,707,cs),
(569,825,ls),
(603,1028,o),
(707,1169,o),
(915,1169,cs),
(1098,1169,o),
(1163,1073,o),
(1140,938,cs),
(1110,749,ls),
(1087,614,o),
(1017,527,o),
(972,473,cs),
(904,394,o),
(834,344,o),
(732,344,cs)
);
}
);
};
layerId = "586BE664-8D6A-4867-BE1B-390608DE01EA";
shapes = (
{
closed = 1;
nodes = (
(1093,-597,o),
(1331,-421,o),
(1393,-51,cs),
(1645,1453,l),
(1229,1453,l),
(1184,1188,l),
(1164,1188,l),
(1112,1383,o),
(1016,1487,o),
(758,1487,cs,{
name = hr01;
}),
(442,1487,o),
(211,1330,o),
(113,743,cs),
(15,158,o),
(192,0,o),
(509,0,cs),
(767,0,o),
(898,104,o),
(1015,299,c,{
name = hr02;
}),
(1035,299,l),
(980,-34,ls),
(950,-214,o),
(855,-296,o),
(637,-296,cs),
(441,-296,o),
(393,-230,o),
(397,-128,c),
(22,-128,l),
(-25,-504,o),
(279,-597,o),
(653,-597,cs)
);
},
{
closed = 1;
nodes = (
(573,324,o),
(486,376,o),
(527,628,cs),
(564,853,ls),
(605,1100,o),
(713,1163,o),
(895,1163,cs),
(1082,1163,o),
(1169,1096,o),
(1143,941,cs),
(1077,547,ls),
(1051,391,o),
(946,324,o),
(748,324,cs,{
name = hr03;
})
);
}
);
width = 1690;
},
{
anchors = (
{
name = top;
pos = (924,1453);
}
);
background = {
shapes = (
{
closed = 1;
nodes = (
(960,-597,o),
(1225,-428,o),
(1298,0,cs),
(1540,1453,l),
(1321,1453,l),
(1278,1200,l),
(1270,1200,l),
(1208,1388,o),
(1059,1487,o),
(845,1487,cs,{
name = hr01;
}),
(344,1487,o),
(161,941,o),
(161,566,cs),
(161,211,o),
(318,14,o),
(617,14,cs),
(873,14,o),
(1025,158,o),
(1135,391,c),
(1146,391,l),
(1087,42,ls),
(1033,-279,o),
(876,-403,o),
(611,-403,cs),
(434,-403,o),
(315,-346,o),
(239,-251,c),
(87,-397,l),
(191,-527,o),
(363,-597,o),
(597,-597,cs)
);
},
{
closed = 1;
nodes = (
(490,208,o),
(386,335,o),
(386,566,cs),
(386,605,o),
(391,639,o),
(400,690,cs),
(425,842,ls),
(470,1112,o),
(636,1293,o),
(910,1293,cs),
(1126,1293,o),
(1276,1177,o),
(1242,974,cs),
(1197,698,ls),
(1171,541,o),
(1090,428,o),
(1036,369,cs),
(932,253,o),
(814,208,o),
(693,208,cs)
);
}
);
};
layerId = "9AAD14F8-FE06-4230-ACE0-3E9D6F8A5A9E";
shapes = (
{
closed = 1;
nodes = (
(967,-595,o),
(1235,-423,o),
(1284,-127,cs),
(1549,1454,l),
(1324,1454,l),
(1284,1218,l),
(1273,1218,l),
(1210,1395,o),
(1092,1488,o),
(852,1488,cs,{
name = hr01;
}),
(515,1488,o),
(271,1304,o),
(177,744,cs),
(83,184,o),
(266,0,o),
(603,0,cs),
(843,0,o),
(992,93,o),
(1115,271,c,{
name = hr02;
}),
(1126,271,l),
(1064,-99,ls),
(1026,-323,o),
(855,-405,o),
(634,-405,cs),
(402,-405,o),
(282,-343,o),
(290,-153,c),
(73,-156,l),
(31,-443,o),
(267,-595,o),
(626,-595,cs)
);
},
{
closed = 1;
nodes = (
(480,200,o),
(342,283,o),
(401,638,cs),
(440,867,ls),
(496,1205,o),
(662,1288,o),
(885,1288,cs),
(1134,1288,o),
(1279,1184,o),
(1245,985,cs),
(1164,499,ls),
(1131,304,o),
(952,200,o),
(703,200,cs,{
name = hr03;
})
);
}
);
width = 1690;
},
{
anchors = (
{
name = top;
pos = (904,1453);
}
);
background = {
shapes = (
{
closed = 1;
nodes = (
(929,-597,o),
(1149,-422,o),
(1211,-51,cs),
(1462,1453,l),
(1402,1453,l),
(1360,1191,l),
(1352,1191,l),
(1295,1363,o),
(1138,1487,o),
(881,1487,cs,{
name = hr01;
}),
(470,1487,o),
(200,1081,o),
(200,524,cs),
(200,203,o),
(366,-34,o),
(687,-34,cs),
(943,-34,o),
(1095,113,o),
(1205,324,c),
(1214,324,l),
(1155,-37,ls),
(1095,-394,o),
(893,-543,o),
(583,-543,cs),
(386,-543,o),
(265,-476,o),
(183,-369,c),
(138,-408,l),
(231,-524,o),
(372,-597,o),
(583,-597,cs)
);
},
{
closed = 1;
nodes = (
(380,20,o),
(256,251,o),
(256,524,cs),
(256,572,o),
(259,620,o),
(268,667,cs),
(290,805,ls),
(349,1160,o),
(560,1433,o),
(881,1433,cs),
(1242,1433,o),
(1357,1194,o),
(1326,1000,cs),
(1256,574,ls),
(1225,389,o),
(1118,234,o),
(1008,135,cs),
(915,54,o),
(811,20,o),
(687,20,cs)
);
}
);
};
layerId = "B042A474-670A-4404-9662-903C467C1F9E";
shapes = (
{
closed = 1;
nodes = (
(939,-598,o),
(1138,-466,o),
(1186,-182,cs),
(1460,1453,l),
(1400,1453,l),
(1363,1233,l),
(1355,1233,l),
(1315,1361,o),
(1207,1487,o),
(915,1487,cs,{
name = hr01;
}),
(520,1487,o),
(314,1256,o),
(225,727,cs),
(136,197,o),
(266,-34,o),
(661,-34,cs),
(953,-34,o),
(1103,92,o),
(1185,220,c,{
name = hr02;
}),
(1193,220,l),
(1129,-166,ls),
(1083,-440,o),
(904,-544,o),
(616,-544,cs),
(330,-544,o),
(161,-474,o),
(208,-192,c),
(149,-192,l),
(99,-492,o),
(279,-598,o),
(619,-598,cs)
);
},
{
closed = 1;
nodes = (
(309,20,o),
(209,242,o),
(279,659,cs),
(301,794,ls),
(371,1211,o),
(545,1433,o),
(902,1433,cs),
(1201,1433,o),
(1370,1278,o),
(1332,1050,cs),
(1224,403,ls),
(1186,175,o),
(965,20,o),
(666,20,cs,{
name = hr03;
})
);
}
);
width = 1690;
}
);
unicode = 103;
}
{
color = 4;
glyphname = h;
layers = (
{
anchors = (
{
name = bottom;
pos = (532,0);
},
{
name = top;
pos = (436,1430);
}
);
background = {
shapes = (
{
closed = 1;
nodes = (
(351,0,l),
(442,551,ls),
(457,637,o),
(508,715,o),
(539,756,cs),
(585,817,o),
(635,852,o),
(705,852,cs),
(796,852,o),
(828,783,o),
(828,727,cs),
(828,676,o),
(819,637,o),
(813,600,cs),
(713,0,l),
(1012,0,l),
(1106,563,ls),
(1122,662,o),
(1129,717,o),
(1129,776,cs),
(1129,940,o),
(1047,1081,o),
(840,1081,cs),
(672,1081,o),
(575,977,o),
(495,805,c),
(485,805,l),
(602,1516,l),
(303,1516,l),
(51,0,l,{
name = hr00;
})
);
}
);
};
layerId = "586BE664-8D6A-4867-BE1B-390608DE01EA";
shapes = (
{
closed = 1;
nodes = (
(602,1516,l,{
name = hr01;
}),
(306,1516,l),
(54,0,l),
(351,0,l)
);
},
{
pos = (439,0);
ref = _n;
}
);
width = 1229;
},
{
anchors = (
{
name = bottom;
pos = (532,0);
},
{
name = top;
pos = (434,1430);
}
);
background = {
shapes = (
{
closed = 1;
nodes = (
(281,0,l),
(379,584,ls),
(399,705,o),
(477,799,o),
(500,825,cs),
(559,895,o),
(631,940,o),
(723,940,cs),
(841,940,o),
(899,863,o),
(899,737,cs),
(899,715,o),
(897,673,o),
(889,625,cs),
(785,0,l),
(944,0,l),
(1051,639,ls),
(1059,686,o),
(1063,735,o),
(1063,776,cs),
(1063,969,o),
(952,1081,o),
(776,1081,cs),
(607,1081,o),
(502,975,o),
(424,807,c),
(416,807,l),
(535,1516,l),
(375,1516,l),
(121,0,l,{
name = hr00;
})
);
}
);
};
layerId = "9AAD14F8-FE06-4230-ACE0-3E9D6F8A5A9E";
shapes = (
{
closed = 1;
nodes = (
(535,1516,l,{
name = hr01;
}),
(373,1516,l),
(119,0,l),
(281,0,l)
);
},
{
pos = (369,0);
ref = _n;
}
);
width = 1229;
},
{
anchors = (
{
name = bottom;
pos = (537,0);
},
{
name = top;
pos = (440,1430);
}
);
background = {
shapes = (
{
closed = 1;
nodes = (
(223,0,l),
(329,639,ls),
(351,758,o),
(414,856,o),
(457,909,cs),
(535,1007,o),
(635,1042,o),
(731,1042,cs),
(891,1042,o),
(977,959,o),
(977,791,cs),
(977,751,o),
(973,708,o),
(967,673,cs),
(854,0,l),
(897,0,l),
(1009,676,ls),
(1016,715,o),
(1020,753,o),
(1020,793,cs),
(1020,975,o),
(919,1081,o),
(737,1081,cs),
(557,1081,o),
(447,983,o),
(367,823,c),
(361,823,l),
(475,1516,l),
(432,1516,l),
(180,0,l,{
name = hr00;
})
);
}
);
};
layerId = "B042A474-670A-4404-9662-903C467C1F9E";
shapes = (
{
closed = 1;
nodes = (
(475,1516,l,{
name = hr01;
}),
(432,1516,l),
(180,0,l),
(223,0,l)
);
},
{
pos = (311,0);
ref = _n;
}
);
width = 1229;
}
);
unicode = 104;
}
{
glyphname = i;
layers = (
{
background = {
shapes = (
{
closed = 1;
nodes = (
(649,-25,o),
(725,25,o),
(918,203,cs),
(1104,375,l),
(1007,465,l),
(604,117,l),
(557,135,l),
(735,1057,l),
(191,1057,l),
(168,919,l),
(549,919,l),
(409,199,ls),
(406,174,o),
(399,143,o),
(399,117,cs),
(399,35,o),
(455,-25,o),
(557,-25,cs)
);
}
);
};
layerId = "9AAD14F8-FE06-4230-ACE0-3E9D6F8A5A9E";
shapes = (
{
ref = dotlessi;
},
{
alignment = 1;
pos = (-55,0);
ref = dotaccentcomb;
}
);
width = 1229;
},
{
background = {
shapes = (
{
closed = 1;
nodes = (
(481,-25,o),
(506,-4,o),
(540,18,cs),
(1039,356,l),
(1016,387,l),
(473,20,l),
(463,27,l),
(663,1057,l),
(193,1057,l),
(186,1018,l),
(612,1018,l),
(432,86,ls),
(422,35,o),
(420,23,o),
(420,15,cs),
(420,-8,o),
(432,-25,o),
(457,-25,cs)
);
}
);
};
layerId = "B042A474-670A-4404-9662-903C467C1F9E";
shapes = (
{
ref = dotlessi;
},
{
alignment = 1;
pos = (-61,0);
ref = dotaccentcomb;
}
);
width = 1229;
},
{
anchors = (
{
name = bottom;
pos = (540,0);
},
{
name = bottomright;
pos = (660,0);
}
);
associatedMasterId = "9AAD14F8-FE06-4230-ACE0-3E9D6F8A5A9E";
layerId = "BD3635ED-603E-4FC9-A8E1-07595200C7D1";
name = "16. Apr. 24, 12:26";
shapes = (
{
closed = 1;
nodes = (
(649,-25,o),
(725,25,o),
(918,203,cs),
(1104,375,l),
(1007,465,l),
(604,117,l),
(557,135,l),
(735,1057,l),
(191,1057,l),
(168,919,l),
(549,919,l),
(409,199,ls),
(406,174,o),
(399,143,o),
(399,117,cs),
(399,35,o),
(455,-25,o),
(557,-25,cs)
);
}
);
width = 1229;
},
{
anchors = (
{
name = bottom;
pos = (455,0);
},
{
name = bottomright;
pos = (512,0);
}
);
associatedMasterId = "B042A474-670A-4404-9662-903C467C1F9E";
layerId = "B49D3F2A-F554-46AC-8306-A66FD6E7683A";
name = "16. Apr. 24, 12:27";
shapes = (
{
closed = 1;
nodes = (
(481,-25,o),
(506,-4,o),
(540,18,cs),
(1039,356,l),
(1016,387,l),
(473,20,l),
(463,27,l),
(663,1057,l),
(193,1057,l),
(186,1018,l),
(612,1018,l),
(432,86,ls),
(422,35,o),
(420,23,o),
(420,15,cs),
(420,-8,o),
(432,-25,o),
(457,-25,cs)
);
}
);
width = 1229;
},
{
anchors = (
{
name = bottom;
pos = (607,0);
},
{
name = bottomright;
pos = (954,0);
}
);
associatedMasterId = "586BE664-8D6A-4867-BE1B-390608DE01EA";
background = {
shapes = (
{
closed = 1;
nodes = (
(751,-25,o),
(866,55,o),
(1004,211,cs),
(1129,354,l),
(964,500,l),
(678,207,l),
(643,217,l,{
name = hr01;
}),
(801,1057,l),
(178,1057,l),
(139,823,l),
(459,823,l),
(377,385,ls),
(361,301,o),
(356,266,o),
(356,221,cs),
(356,72,o),
(442,-25,o),
(610,-25,cs)
);
}
);
};
layerId = "C0501443-241F-4E63-9A53-DA289BF1866C";
name = "16. Apr. 24, 12:28";
shapes = (
{
closed = 1;
nodes = (
(751,-25,o),
(866,44,o),
(1071,284,c),
(1128,601,l),
(678,207,l),
(643,217,l,{
name = hr01;
}),
(801,1057,l),
(178,1057,l),
(139,823,l),
(459,823,l),
(377,385,ls),
(361,301,o),
(356,266,o),
(356,221,cs),
(356,72,o),
(442,-25,o),
(610,-25,cs)
);
}
);
width = 1229;
},
{
layerId = "586BE664-8D6A-4867-BE1B-390608DE01EA";
name = Bold;
shapes = (
{
ref = dotlessi;
},
{
alignment = 1;
pos = (-65,0);
ref = dotaccentcomb;
}
);
width = 1229;
},
{
anchors = (
{
name = bottom;
pos = (607,0);
},
{
name = bottomright;
pos = (954,0);
}
);
associatedMasterId = "586BE664-8D6A-4867-BE1B-390608DE01EA";
layerId = "80430EA9-EA1E-4843-A6BC-74BFE77FB02C";
name = "16. Apr. 24, 12:28";
shapes = (
{
closed = 1;
nodes = (
(982,-25,l),
(1051,207,l),
(751,207,l),
(716,217,l,{
name = hr01;
}),
(873,1057,l),
(251,1057,l),
(212,823,l),
(532,823,l),
(449,385,ls),
(433,301,o),
(429,266,o),
(429,221,cs),
(429,72,o),
(515,-25,o),
(683,-25,c)
);
}
);
width = 1229;
}
);
unicode = 105;
}
{
glyphname = j;
layers = (
{
layerId = "586BE664-8D6A-4867-BE1B-390608DE01EA";
shapes = (
{
closed = 1;
nodes = (
(879,-597,o),
(1028,-456,o),
(1087,-104,cs),
(1346,1453,l),
(403,1453,l),
(349,1132,l),
(881,1132,l),
(648,-270,l),
(611,-284,l),
(293,152,l),
(11,-42,l),
(101,-183,ls),
(273,-451,o),
(386,-597,o),
(608,-597,cs,{
name = hr00;
})
);
},
{
closed = 1;
nodes = (
(1357,1645,o),
(1433,1712,o),
(1453,1830,cs),
(1464,1898,o),
(1467,1923,o),
(1467,1943,cs),
(1467,2042,o),
(1405,2115,o),
(1236,2115,cs),
(1067,2115,o),
(991,2047,o),
(972,1929,cs),
(960,1861,o),
(957,1836,o),
(957,1816,cs),
(957,1718,o),
(1019,1645,o),
(1188,1645,cs)
);
}
);
width = 1690;
},
{
layerId = "9AAD14F8-FE06-4230-ACE0-3E9D6F8A5A9E";
shapes = (
{
closed = 1;
nodes = (
(941,-597,o),
(1017,-456,o),
(1042,-301,cs),
(1335,1453,l),
(515,1453,l),
(484,1264,l),
(1084,1264,l),
(808,-389,l),
(758,-400,l),
(313,73,l),
(163,-62,l),
(346,-262,ls),
(589,-527,o),
(659,-597,o),
(774,-597,cs,{
name = hr00;
})
);
},
{
closed = 1;
nodes = (
(1400,1777,o),
(1459,1828,o),
(1473,1912,cs),
(1478,1946,o),
(1484,1971,o),
(1484,1994,cs),
(1484,2053,o),
(1442,2106,o),
(1321,2106,cs),
(1208,2106,o),
(1149,2056,o),
(1135,1971,cs),
(1129,1937,o),
(1124,1912,o),
(1124,1890,cs),
(1124,1830,o),
(1166,1777,o),
(1287,1777,cs)
);
}
);
width = 1690;
},
{
layerId = "B042A474-670A-4404-9662-903C467C1F9E";
shapes = (
{
closed = 1;
nodes = (
(972,-597,o),
(988,-566,o),
(1000,-501,cs),
(1324,1453,l),
(391,1453,l),
(383,1400,l),
(1256,1400,l),
(935,-535,l),
(918,-541,l),
(349,-34,l),
(310,-73,l),
(839,-549,ls),
(876,-580,o),
(898,-597,o),
(926,-597,cs,{
name = hr00;
})
);
},
{
closed = 1;
nodes = (
(1422,1946,o),
(1447,1968,o),
(1456,2008,cs),
(1459,2025,o),
(1462,2036,o),
(1462,2047,cs),
(1462,2073,o),
(1445,2098,o),
(1388,2098,cs),
(1338,2098,o),
(1312,2075,o),
(1304,2036,cs),
(1301,2019,o),
(1298,2008,o),
(1298,1997,cs),
(1298,1971,o),
(1315,1946,o),
(1371,1946,cs)
);
}
);
width = 1690;
}
);
unicode = 106;
}
{
glyphname = k;
layers = (
{
anchors = (
{
name = bottom;
pos = (508,0);
}
);
layerId = "586BE664-8D6A-4867-BE1B-390608DE01EA";
shapes = (
{
closed = 1;
nodes = (
(348,0,l),
(440,551,ls),
(457,649,o),
(494,708,o),
(535,760,cs),
(596,838,o),
(647,858,o),
(698,858,cs),
(786,858,o),
(836,809,o),
(836,740,cs),
(836,608,o),
(705,537,o),
(461,465,c),
(563,184,ls),
(610,53,o),
(678,-25,o),
(807,-25,cs,{
name = hr01;
}),
(916,-25,o),
(1006,28,o),
(1094,123,cs),
(1200,238,l),
(1057,379,l),
(889,215,l),
(858,221,l),
(772,447,l),
(1007,518,o),
(1135,637,o),
(1135,831,cs),
(1135,971,o),
(1034,1081,o),
(860,1081,cs),
(680,1081,o),
(567,963,o),
(495,805,c),
(484,805,l),
(600,1516,l,{
name = hr02;
}),
(301,1516,l),
(49,0,l)
);
}
);
width = 1229;
},
{
anchors = (
{
name = bottom;
pos = (514,0);
}
);
layerId = "9AAD14F8-FE06-4230-ACE0-3E9D6F8A5A9E";
shapes = (
{
closed = 1;
nodes = (
(281,0,l),
(379,584,ls),
(393,672,o),
(436,750,o),
(495,823,cs),
(553,893,o),
(623,944,o),
(727,944,cs),
(838,944,o),
(899,887,o),
(899,791,cs),
(899,665,o),
(795,549,o),
(452,465,c),
(618,105,ls),
(662,10,o),
(707,-25,o),
(776,-25,cs,{
name = hr01;
}),
(854,-25,o),
(916,20,o),
(1022,127,cs),
(1167,273,l),
(1079,364,l),
(807,115,l),
(780,119,l),
(635,436,l),
(993,524,o),
(1063,695,o),
(1063,821,cs),
(1063,979,o),
(954,1081,o),
(786,1081,cs),
(610,1081,o),
(500,969,o),
(424,807,c),
(416,807,l),
(535,1516,l,{
name = hr02;
}),
(375,1516,l),
(121,0,l)
);
}
);
width = 1229;
},
{
anchors = (
{
name = bottom;
pos = (477,0);
}
);
layerId = "B042A474-670A-4404-9662-903C467C1F9E";
shapes = (
{
closed = 1;
nodes = (
(205,0,l),
(311,639,ls),
(332,756,o),
(391,871,o),
(485,951,cs),
(559,1014,o),
(653,1042,o),
(753,1042,cs),
(926,1042,o),
(991,961,o),
(991,841,cs),
(991,696,o),
(879,567,o),
(473,473,c),
(727,27,ls),
(748,-8,o),
(758,-25,o),
(783,-25,cs,{
name = hr01;
}),
(809,-25,o),
(825,-6,o),
(889,53,cs),
(1175,324,l),
(1151,351,l),
(791,18,l),
(780,18,l),
(530,455,l),
(942,549,o),
(1036,705,o),
(1036,841,cs),
(1036,979,o),
(951,1081,o),
(756,1081,cs),
(596,1081,o),
(447,1012,o),
(348,823,c),
(342,823,l),
(457,1516,l,{
name = hr02;
}),
(414,1516,l),
(161,0,l)
);
}
);
width = 1229;
}
);
unicode = 107;
}
{
glyphname = l;
layers = (
{
anchors = (
{
name = bottom;
pos = (553,0);
},
{
name = top;
pos = (668,1430);
},
{
name = topright;
pos = (963,1516);
}
);
guides = (
{
angle = 80.5;
pos = (353,0);
}
);
layerId = "586BE664-8D6A-4867-BE1B-390608DE01EA";
shapes = (
{
closed = 1;
nodes = (
(695,-25,o),
(809,55,o),
(946,211,cs),
(1071,354,l),
(907,500,l),
(620,207,l),
(590,217,l),
(829,1516,l),
(217,1516,l),
(178,1282,l),
(489,1282,l),
(324,385,ls),
(307,301,o),
(303,266,o),
(303,221,cs),
(303,72,o),
(385,-25,o),
(553,-25,cs,{
name = hr00;
})
);
}
);
width = 1229;
},
{
anchors = (
{
name = bottom;
pos = (508,0);
},
{
name = top;
pos = (680,1430);
},
{
name = topright;
pos = (954,1516);
}
);
guides = (
{
angle = 80.5;
pos = (453,0);
}
);
layerId = "9AAD14F8-FE06-4230-ACE0-3E9D6F8A5A9E";
shapes = (
{
closed = 1;
nodes = (
(592,-25,o),
(665,10,o),
(864,191,cs),
(1077,383,l),
(985,473,l),
(565,117,l),
(514,133,l),
(780,1516,l),
(241,1516,l),
(219,1378,l),
(592,1378,l),
(362,186,ls),
(359,168,o),
(356,139,o),
(356,121,cs),
(356,37,o),
(399,-25,o),
(510,-25,cs,{
name = hr00;
})
);
}
);
width = 1229;
},
{
anchors = (
{
name = bottom;
pos = (442,0);
},
{
name = top;
pos = (695,1430);
},
{
name = topright;
pos = (946,1516);
}
);
guides = (
{
angle = 80.5;
pos = (545,0);
}
);
layerId = "B042A474-670A-4404-9662-903C467C1F9E";
shapes = (
{
closed = 1;
nodes = (
(463,-25,o),
(487,-6,o),
(522,18,cs),
(1020,356,l),
(997,387,l),
(455,20,l),
(444,27,l),
(733,1516,l),
(262,1516,l),
(256,1476,l),
(682,1476,l),
(412,86,ls),
(404,43,o),
(401,23,o),
(401,15,cs),
(401,-8,o),
(414,-25,o),
(439,-25,cs,{
name = hr00;
})
);
}
);
width = 1229;
}
);
unicode = 108;
}
{
color = 4;
glyphname = m;
layers = (
{
anchors = (
{
name = bottom;
pos = (527,0);
},
{
name = top;
pos = (727,1057);
}
);
layerId = "586BE664-8D6A-4867-BE1B-390608DE01EA";
shapes = (
{
closed = 1;
nodes = (
(464,695,l),
(482,803,o),
(550,863,o),
(664,863,cs),
(738,863,o),
(788,852,o),
(788,764,cs),
(788,748,o),
(786,729,o),
(783,706,cs),
(668,0,l),
(972,0,l),
(1090,706,ls),
(1097,745,o),
(1100,780,o),
(1100,812,cs),
(1100,1009,o),
(984,1081,o),
(841,1081,cs),
(682,1081,o),
(579,993,o),
(505,864,c),
(481,864,l)
);
},
{
closed = 1;
nodes = (
(1090,706,l),
(1105,797,o),
(1169,863,o),
(1281,863,cs),
(1361,863,o),
(1411,845,o),
(1411,758,cs),
(1411,743,o),
(1409,726,o),
(1407,706,cs),
(1292,0,l),
(1596,0,l),
(1713,699,ls),
(1719,739,o),
(1722,775,o),
(1722,807,cs),
(1722,1017,o),
(1593,1081,o),
(1447,1081,cs),
(1286,1081,o),
(1183,1001,o),
(1104,843,c),
(1092,843,l)
);
},
{
closed = 1;
nodes = (
(525,1057,l,{
name = hr01;
}),
(222,1057,l),
(44,0,l),
(348,0,l)
);
}
);
width = 1844;
},
{
anchors = (
{
name = bottom;
pos = (527,0);
},
{
name = top;
pos = (721,1057);
}
);
layerId = "9AAD14F8-FE06-4230-ACE0-3E9D6F8A5A9E";
shapes = (
{
closed = 1;
nodes = (
(399,733,l),
(422,873,o),
(535,953,o),
(684,953,cs),
(824,953,o),
(871,908,o),
(871,802,cs),
(871,770,o),
(867,732,o),
(860,689,cs),
(744,0,l),
(908,0,l),
(1028,716,ls),
(1035,756,o),
(1039,793,o),
(1039,827,cs),
(1039,996,o),
(951,1081,o),
(751,1081,cs),
(577,1081,o),
(498,994,o),
(433,885,c),
(412,885,l)
);
},
{
closed = 1;
nodes = (
(1028,716,l),
(1055,873,o),
(1151,953,o),
(1316,953,cs),
(1457,953,o),
(1504,908,o),
(1504,801,cs),
(1504,769,o),
(1500,732,o),
(1492,689,cs),
(1377,0,l),
(1541,0,l),
(1658,700,ls),
(1665,744,o),
(1669,784,o),
(1669,821,cs),
(1669,996,o),
(1582,1081,o),
(1385,1081,cs),
(1188,1081,o),
(1112,990,o),
(1044,879,c),
(1036,879,l)
);
},
{
closed = 1;
nodes = (
(453,1057,l,{
name = hr01;
}),
(289,1057,l),
(112,0,l),
(276,0,l)
);
}
);
width = 1844;
},
{
anchors = (
{
name = bottom;
pos = (551,0);
},
{
name = top;
pos = (735,1057);
}
);
guides = (
{
pos = (1060,1194);
}
);
layerId = "B042A474-670A-4404-9662-903C467C1F9E";
shapes = (
{
closed = 1;
nodes = (
(336,726,l),
(373,924,o),
(529,1042,o),
(730,1042,cs),
(881,1042,o),
(954,975,o),
(954,833,cs),
(954,805,o),
(951,775,o),
(945,740,cs),
(821,0,l),
(864,0,l),
(989,746,ls),
(995,782,o),
(998,814,o),
(998,843,cs),
(998,1017,o),
(895,1081,o),
(734,1081,cs),
(527,1081,o),
(425,983,o),
(367,869,c),
(350,869,l)
);
},
{
closed = 1;
nodes = (
(989,746,l),
(1025,946,o),
(1161,1042,o),
(1359,1042,cs),
(1497,1042,o),
(1593,995,o),
(1593,830,cs),
(1593,801,o),
(1590,769,o),
(1584,733,cs),
(1461,0,l),
(1504,0,l),
(1628,739,ls),
(1633,775,o),
(1636,809,o),
(1636,839,cs),
(1636,1015,o),
(1533,1081,o),
(1362,1081,cs),
(1151,1081,o),
(1043,981,o),
(1001,868,c),
(996,868,l)
);
},
{
closed = 1;
nodes = (
(392,1057,l,{
name = hr01;
}),
(349,1057,l),
(172,0,l),
(215,0,l)
);
}
);
width = 1844;
}
);
unicode = 109;
}
{
glyphname = o;
layers = (
{
anchors = (
{
name = bottom;
pos = (729,0);
},
{
name = top;
pos = (966,1453);
}
);
background = {
shapes = (
{
closed = 1;
nodes = (
(1233,-34,o),
(1569,307,o),
(1569,862,cs),
(1569,1245,o),
(1338,1487,o),
(943,1487,cs),
(456,1487,o),
(121,1146,o),
(121,591,cs),
(121,208,o),
(352,-34,o),
(746,-34,cs,{
name = hr00;
})
);
},
{
closed = 1;
nodes = (
(625,273,o),
(529,358,o),
(529,529,cs),
(529,563,o),
(538,611,o),
(543,645,cs),
(580,865,ls),
(614,1067,o),
(732,1180,o),
(912,1180,cs),
(1064,1180,o),
(1160,1095,o),
(1160,924,cs),
(1160,890,o),
(1152,842,o),
(1146,808,cs),
(1110,589,ls),
(1076,386,o),
(957,273,o),
(777,273,cs)
);
}
);
};
layerId = "586BE664-8D6A-4867-BE1B-390608DE01EA";
shapes = (
{
closed = 1;
nodes = (
(1171,-34,o),
(1489,216,o),
(1574,727,cs),
(1659,1237,o),
(1425,1487,o),
(972,1487,cs),
(518,1487,o),
(200,1237,o),
(115,727,cs),
(30,216,o),
(264,-34,o),
(718,-34,cs,{
name = hr00;
})
);
},
{
closed = 1;
nodes = (
(584,276,o),
(484,357,o),
(527,611,cs),
(565,842,l),
(608,1096,o),
(734,1177,o),
(920,1177,cs),
(1106,1177,o),
(1205,1096,o),
(1162,842,cs),
(1124,611,ls),
(1081,357,o),
(956,276,o),
(770,276,cs)
);
}
);
width = 1690;
},
{
anchors = (
{
name = bottom;
pos = (724,0);
},
{
name = top;
pos = (966,1453);
}
);
background = {
shapes = (
{
closed = 1;
nodes = (
(1174,-34,o),
(1509,318,o),
(1509,873,cs),
(1509,1236,o),
(1318,1487,o),
(941,1487,cs),
(515,1487,o),
(180,1135,o),
(180,580,cs),
(180,217,o),
(375,-34,o),
(746,-34,cs,{
name = hr00;
})
);
},
{
closed = 1;
nodes = (
(541,158,o),
(403,270,o),
(403,515,cs),
(403,549,o),
(406,591,o),
(417,659,cs),
(445,828,ls),
(493,1115,o),
(659,1295,o),
(932,1295,cs),
(1149,1295,o),
(1287,1183,o),
(1287,938,cs),
(1287,904,o),
(1284,862,o),
(1273,794,cs),
(1245,625,ls),
(1197,338,o),
(1031,158,o),
(758,158,cs)
);
}
);
};
layerId = "9AAD14F8-FE06-4230-ACE0-3E9D6F8A5A9E";
shapes = (
{
closed = 1;
nodes = (
(1176,-34,o),
(1427,265,o),
(1504,727,cs),
(1581,1188,o),
(1430,1487,o),
(972,1487,cs),
(513,1487,o),
(263,1188,o),
(186,727,cs),
(109,265,o),
(259,-34,o),
(718,-34,cs,{
name = hr00;
})
);
},
{
closed = 1;
nodes = (
(449,161,o),
(355,310,o),
(408,622,cs),
(442,831,ls),
(495,1143,o),
(639,1293,o),
(940,1293,cs),
(1240,1293,o),
(1334,1143,o),
(1281,831,cs),
(1247,622,ls),
(1194,310,o),
(1050,161,o),
(750,161,cs)
);
}
);
width = 1690;
},
{
anchors = (
{
name = bottom;
pos = (749,0);
},
{
name = top;
pos = (938,1453);
}
);
background = {
shapes = (
{
closed = 1;
nodes = (
(1183,-34,o),
(1459,332,o),
(1459,943,cs),
(1459,1253,o),
(1276,1487,o),
(941,1487,cs),
(507,1487,o),
(231,1121,o),
(231,510,cs),
(231,200,o),
(414,-34,o),
(749,-34,cs,{
name = hr00;
})
);
},
{
closed = 1;
nodes = (
(425,20,o),
(287,242,o),
(287,515,cs),
(287,586,o),
(290,614,o),
(298,667,cs),
(321,805,ls),
(386,1197,o),
(600,1433,o),
(935,1433,cs),
(1264,1433,o),
(1402,1211,o),
(1402,938,cs),
(1402,867,o),
(1400,839,o),
(1391,786,cs),
(1369,648,ls),
(1304,256,o),
(1090,20,o),
(755,20,cs)
);
}
);
};
layerId = "B042A474-670A-4404-9662-903C467C1F9E";
shapes = (
{
closed = 1;
nodes = (
(1130,-34,o),
(1352,222,o),
(1436,727,cs),
(1520,1231,o),
(1384,1487,o),
(972,1487,cs),
(560,1487,o),
(337,1231,o),
(253,727,cs),
(169,222,o),
(306,-34,o),
(718,-34,cs,{
name = hr00;
})
);
},
{
closed = 1;
nodes = (
(349,20,o),
(241,265,o),
(307,659,cs),
(329,794,ls),
(395,1188,o),
(585,1433,o),
(963,1433,cs),
(1341,1433,o),
(1448,1188,o),
(1382,794,cs),
(1360,659,ls),
(1294,265,o),
(1105,20,o),
(727,20,cs)
);
}
);
width = 1690;
}
);
unicode = 111;
}
{
color = 4;
glyphname = p;
layers = (
{
anchors = (
{
name = top;
pos = (825,1057);
}
);
background = {
shapes = (
{
closed = 1;
nodes = (
(273,-409,l),
(375,196,l),
(389,196,l),
(420,57,o),
(500,-25,o),
(665,-25,cs),
(959,-25,o),
(1151,252,o),
(1151,672,cs),
(1151,919,o),
(1065,1081,o),
(841,1081,cs),
(662,1081,o),
(567,967,o),
(487,805,c),
(477,805,l),
(518,1057,l,{
name = hr01;
}),
(219,1057,l),
(-27,-409,l)
);
},
{
closed = 1;
nodes = (
(440,207,o),
(387,271,o),
(406,381,c),
(434,551,l),
(449,639,o),
(497,711,o),
(530,750,cs),
(580,811,o),
(635,850,o),
(708,850,cs,{
name = hr02;
}),
(811,850,o),
(846,772,o),
(848,672,cs),
(848,637,o),
(844,604,o),
(840,580,cs),
(819,457,ls),
(793,297,o),
(717,207,o),
(569,207,cs)
);
}
);
};
layerId = "586BE664-8D6A-4867-BE1B-390608DE01EA";
shapes = (
{
closed = 1;
nodes = (
(273,-409,l),
(518,1057,l,{
name = hr01;
}),
(219,1057,l),
(-27,-409,l)
);
},
{
alignment = -1;
pos = (204,0);
ref = _b;
}
);
width = 1229;
},
{
anchors = (
{
name = top;
pos = (783,1057);
}
);
background = {
shapes = (
{
closed = 1;
nodes = (
(169,-409,l),
(270,184,l),
(276,184,l),
(321,47,o),
(430,-25,o),
(585,-25,cs),
(958,-25,o),
(1085,389,o),
(1085,672,cs),
(1085,942,o),
(968,1081,o),
(756,1081,cs),
(569,1081,o),
(463,973,o),
(380,807,c),
(375,807,l),
(415,1057,l,{
name = hr01;
}),
(255,1057,l),
(10,-409,l)
);
},
{
closed = 1;
nodes = (
(380,117,o),
(272,201,o),
(297,348,cs),
(335,582,ls),
(352,680,o),
(399,764,o),
(452,823,cs),
(526,905,o),
(612,940,o),
(700,940,cs,{
name = hr02;
}),
(847,940,o),
(923,846,o),
(923,688,cs),
(923,662,o),
(921,633,o),
(915,596,cs),
(890,449,ls),
(857,252,o),
(741,117,o),
(538,117,cs)
);
}
);
};
guides = (
{
pos = (-216,-563);
}
);
layerId = "9AAD14F8-FE06-4230-ACE0-3E9D6F8A5A9E";
shapes = (
{
closed = 1;
nodes = (
(184,-409,l),
(430,1057,l),
(270,1057,l),
(25,-409,l)
);
},
{
alignment = -1;
pos = (145,0);
ref = _b;
}
);
width = 1229;
},
{
anchors = (
{
name = top;
pos = (727,1057);
}
);
background = {
shapes = (
{
closed = 1;
nodes = (
(139,-409,l),
(238,191,l),
(244,191,l),
(284,65,o),
(399,-25,o),
(585,-25,cs),
(885,-25,o),
(1081,271,o),
(1081,676,cs),
(1081,909,o),
(961,1081,o),
(727,1081,cs),
(540,1081,o),
(430,975,o),
(351,821,c),
(344,821,l),
(383,1057,l,{
name = hr01;
}),
(340,1057,l),
(96,-409,l)
);
},
{
closed = 1;
nodes = (
(324,15,o),
(239,188,o),
(262,329,cs),
(313,639,ls),
(336,774,o),
(414,887,o),
(494,959,cs),
(561,1018,o),
(637,1042,o),
(727,1042,cs,{
name = hr02;
}),
(951,1042,o),
(1041,874,o),
(1041,676,cs),
(1041,641,o),
(1039,607,o),
(1032,572,cs),
(1016,471,ls),
(973,213,o),
(819,15,o),
(585,15,cs)
);
}
);
};
layerId = "B042A474-670A-4404-9662-903C467C1F9E";
shapes = (
{
closed = 1;
nodes = (
(139,-409,l),
(383,1057,l,{
name = hr01;
}),
(340,1057,l),
(96,-409,l)
);
},
{
alignment = -1;
pos = (132,0);
ref = _b;
}
);
width = 1229;
},
{
anchors = (
{
name = top;
pos = (727,1057);
}
);
associatedMasterId = "B042A474-670A-4404-9662-903C467C1F9E";
layerId = "4AC46C7F-547E-42BE-A627-8A949D3FABFB";
name = "12. Apr. 24, 23:05";
shapes = (
{
closed = 1;
nodes = (
(139,-409,l),
(238,191,l),
(244,191,l),
(284,65,o),
(399,-25,o),
(585,-25,cs),
(885,-25,o),
(1081,271,o),
(1081,676,cs),
(1081,909,o),
(961,1081,o),
(727,1081,cs),
(540,1081,o),
(430,975,o),
(351,821,c),
(344,821,l),
(383,1057,l,{
name = hr01;
}),
(340,1057,l),
(96,-409,l)
);
},
{
closed = 1;
nodes = (
(324,15,o),
(239,188,o),
(262,329,cs),
(313,639,ls),
(336,774,o),
(414,887,o),
(494,959,cs),
(561,1018,o),
(637,1042,o),
(727,1042,cs,{
name = hr02;
}),
(951,1042,o),
(1041,874,o),
(1041,676,cs),
(1041,641,o),
(1039,607,o),
(1032,572,cs),
(1016,471,ls),
(973,213,o),
(819,15,o),
(585,15,cs)
);
}
);
width = 1229;
},
{
anchors = (
{
name = top;
pos = (768,1057);
}
);
associatedMasterId = "9AAD14F8-FE06-4230-ACE0-3E9D6F8A5A9E";
layerId = "C1A165DD-DA7F-4B69-9ECF-896D683B54D4";
name = "12. Apr. 24, 23:05";
shapes = (
{
closed = 1;
nodes = (
(199,-409,l),
(299,184,l),
(305,184,l),
(351,47,o),
(459,-25,o),
(615,-25,cs),
(987,-25,o),
(1114,389,o),
(1114,672,cs),
(1114,942,o),
(997,1081,o),
(785,1081,cs),
(598,1081,o),
(492,973,o),
(409,807,c),
(404,807,l),
(444,1057,l,{
name = hr01;
}),
(284,1057,l),
(39,-409,l)
);
},
{
closed = 1;
nodes = (
(409,117,o),
(301,201,o),
(326,348,cs),
(364,582,ls),
(381,680,o),
(428,764,o),
(481,823,cs),
(555,905,o),
(641,940,o),
(729,940,cs,{
name = hr02;
}),
(876,940,o),
(952,846,o),
(952,688,cs),
(952,662,o),
(951,633,o),
(944,596,cs),
(919,449,ls),
(887,252,o),
(770,117,o),
(567,117,cs)
);
}
);
width = 1229;
},
{
anchors = (
{
name = top;
pos = (825,1057);
}
);
associatedMasterId = "586BE664-8D6A-4867-BE1B-390608DE01EA";
layerId = "FAA2F30B-CD7A-47D6-8A80-0526C423DA58";
name = "12. Apr. 24, 23:05";
shapes = (
{
closed = 1;
nodes = (
(273,-409,l),
(375,196,l),
(389,196,l),
(420,57,o),
(500,-25,o),
(665,-25,cs),
(959,-25,o),
(1151,252,o),
(1151,672,cs),
(1151,919,o),
(1065,1081,o),
(841,1081,cs),
(662,1081,o),
(567,967,o),
(487,805,c),
(477,805,l),
(518,1057,l,{
name = hr01;
}),
(219,1057,l),
(-27,-409,l)
);
},
{
closed = 1;
nodes = (
(440,207,o),
(387,271,o),
(406,381,c),
(434,551,l),
(449,639,o),
(497,711,o),
(530,750,cs),
(580,811,o),
(635,850,o),
(708,850,cs,{
name = hr02;
}),
(811,850,o),
(846,772,o),
(848,672,cs),
(848,637,o),
(844,604,o),
(840,580,cs),
(819,457,ls),
(793,297,o),
(717,207,o),
(569,207,cs)
);
}
);
width = 1229;
}
);
unicode = 112;
}
{
color = 4;
glyphname = q;
layers = (
{
anchors = (
{
name = top;
pos = (577,1057);
}
);
guides = (
{
angle = 80.5;
pos = (1498,603);
}
);
layerId = "586BE664-8D6A-4867-BE1B-390608DE01EA";
shapes = (
{
ref = _d;
},
{
closed = 1;
nodes = (
(948,-409,l),
(1193,1057,l,{
name = hr01;
}),
(894,1057,l),
(648,-409,l)
);
}
);
width = 1229;
},
{
anchors = (
{
name = top;
pos = (633,1057);
}
);
background = {
shapes = (
{
closed = 1;
nodes = (
(874,-409,l),
(1120,1057,l),
(961,1057,l),
(929,873,l),
(924,873,l),
(879,1009,o),
(770,1081,o),
(615,1081,cs,{
name = hr01;
}),
(241,1081,o),
(115,668,o),
(115,385,cs),
(115,115,o),
(231,-25,o),
(444,-25,cs),
(631,-25,o),
(737,84,o),
(819,250,c),
(825,250,l),
(715,-409,l)
);
},
{
closed = 1;
nodes = (
(352,117,o),
(276,211,o),
(276,369,cs),
(276,395,o),
(279,424,o),
(284,461,cs),
(309,608,ls),
(342,805,o),
(459,940,o),
(662,940,cs),
(819,940,o),
(928,856,o),
(903,708,cs),
(864,475,ls),
(848,377,o),
(801,293,o),
(748,233,cs),
(673,151,o),
(588,117,o),
(500,117,cs)
);
}
);
};
layerId = "9AAD14F8-FE06-4230-ACE0-3E9D6F8A5A9E";
shapes = (
{
ref = _d;
},
{
closed = 1;
nodes = (
(873,-409,l),
(1119,1057,l),
(959,1057,l),
(713,-409,l)
);
}
);
width = 1229;
},
{
anchors = (
{
name = top;
pos = (641,1057);
}
);
guides = (
{
angle = 80.5;
pos = (1318,603);
}
);
layerId = "B042A474-670A-4404-9662-903C467C1F9E";
shapes = (
{
ref = _d;
},
{
closed = 1;
nodes = (
(816,-409,l),
(1061,1057,l,{
name = hr01;
}),
(1017,1057,l),
(773,-409,l)
);
}
);
width = 1229;
},
{
anchors = (
{
name = top;
pos = (641,1057);
}
);
associatedMasterId = "B042A474-670A-4404-9662-903C467C1F9E";
background = {
shapes = (
{
closed = 1;
nodes = (
(819,-409,l),
(1063,1057,l),
(1020,1057,l),
(989,866,l),
(983,866,l),
(942,991,o),
(828,1081,o),
(641,1081,cs,{
name = hr01;
}),
(342,1081,o),
(145,786,o),
(145,381,cs),
(145,148,o),
(266,-25,o),
(500,-25,cs),
(686,-25,o),
(796,82,o),
(876,236,c),
(883,236,l),
(776,-409,l)
);
},
{
closed = 1;
nodes = (
(276,15,o),
(186,183,o),
(186,381,cs),
(186,416,o),
(188,451,o),
(195,485,cs),
(211,585,ls),
(254,844,o),
(407,1042,o),
(641,1042,cs),
(903,1042,o),
(987,868,o),
(964,727,cs),
(913,417,ls),
(891,283,o),
(813,170,o),
(733,98,cs),
(665,39,o),
(590,15,o),
(500,15,cs)
);
}
);
};
layerId = "3D62C6F1-95A3-4B2B-90C2-D3BE4E3AE6FD";
name = "15. Apr. 24, 12:54";
shapes = (
{
ref = _d;
},
{
closed = 1;
nodes = (
(817,-409,l),
(1061,1057,l,{
name = hr01;
}),
(1017,1057,l),
(774,-409,l)
);
}
);
width = 1229;
}
);
unicode = 113;
}
{
glyphname = r;
layers = (
{
anchors = (
{
name = bottom;
pos = (444,0);
},
{
name = top;
pos = (729,1057);
}
);
layerId = "586BE664-8D6A-4867-BE1B-390608DE01EA";
shapes = (
{
closed = 1;
nodes = (
(678,484,ls),
(690,557,o),
(735,633,o),
(762,665,cs),
(811,727,o),
(873,758,o),
(983,758,cs),
(1169,758,l),
(1223,1057,l),
(1153,1057,ls),
(946,1057,o),
(819,938,o),
(731,737,c),
(719,737,l),
(774,1057,l),
(233,1057,l),
(195,823,l,{
name = hr01;
}),
(436,823,l),
(299,0,l),
(598,0,l)
);
}
);
width = 1229;
},
{
anchors = (
{
name = bottom;
pos = (447,0);
},
{
name = top;
pos = (756,1057);
}
);
layerId = "9AAD14F8-FE06-4230-ACE0-3E9D6F8A5A9E";
shapes = (
{
closed = 1;
nodes = (
(617,551,ls),
(637,673,o),
(711,760,o),
(737,791,cs),
(801,864,o),
(876,897,o),
(999,897,cs),
(1180,897,l),
(1207,1057,l),
(1047,1057,ls),
(844,1057,o),
(737,942,o),
(663,774,c),
(653,774,l),
(700,1057,l),
(244,1057,l),
(221,919,l,{
name = hr01;
}),
(518,919,l),
(364,0,l),
(524,0,l)
);
}
);
width = 1229;
},
{
anchors = (
{
name = bottom;
pos = (461,0);
},
{
name = top;
pos = (748,1057);
}
);
layerId = "B042A474-670A-4404-9662-903C467C1F9E";
shapes = (
{
closed = 1;
nodes = (
(607,735,ls),
(623,836,o),
(678,907,o),
(751,954,cs),
(817,997,o),
(897,1018,o),
(977,1018,cs),
(1220,1018,l),
(1227,1057,l),
(983,1057,ls),
(795,1057,o),
(713,989,o),
(635,879,c),
(629,879,l),
(660,1057,l),
(252,1057,l),
(246,1018,l),
(610,1018,l),
(440,0,l),
(484,0,l,{
name = hr00;
})
);
}
);
width = 1229;
}
);
unicode = 114;
}
{
color = 4;
glyphname = s;
layers = (
{
anchors = (
{
name = bottom;
pos = (741,0);
},
{
name = top;
pos = (943,1453);
}
);
layerId = "586BE664-8D6A-4867-BE1B-390608DE01EA";
shapes = (
{
closed = 1;
nodes = (
(1433,-34,o),
(1494,361,o),
(1494,524,cs),
(1494,764,o),
(1313,848,o),
(1072,884,cs),
(828,921,ls),
(727,937,o),
(668,956,o),
(668,1027,cs),
(668,1093,o),
(700,1194,o),
(924,1194,cs),
(1107,1194,o),
(1150,1128,o),
(1156,1030,cs),
(1156,1026,o),
(1156,1022,o),
(1156,1018,c),
(1516,1018,l),
(1518,1039,o),
(1519,1060,o),
(1519,1079,cs),
(1519,1416,o),
(1188,1487,o),
(924,1487,cs),
(319,1487,o),
(249,1112,o),
(249,937,cs),
(249,696,o),
(417,609,o),
(646,575,cs),
(893,538,ls),
(1004,521,o),
(1074,503,o),
(1074,429,cs),
(1074,369,o),
(1040,259,o),
(779,259,cs),
(567,259,o),
(501,328,o),
(496,457,cs),
(496,460,o),
(496,463,o),
(496,466,c),
(134,466,l),
(131,439,o),
(129,414,o),
(129,389,cs),
(129,36,o),
(483,-34,o),
(768,-34,cs,{
name = hr00;
})
);
}
);
width = 1690;
},
{
anchors = (
{
name = bottom;
pos = (766,0);
},
{
name = top;
pos = (946,1453);
}
);
layerId = "9AAD14F8-FE06-4230-ACE0-3E9D6F8A5A9E";
shapes = (
{
closed = 1;
nodes = (
(1323,-34,o),
(1430,300,o),
(1430,487,cs),
(1430,754,o),
(1174,794,o),
(993,822,cs),
(771,856,ls),
(646,875,o),
(547,911,o),
(547,1031,cs),
(547,1134,o),
(598,1298,o),
(945,1298,cs),
(1177,1298,o),
(1269,1227,o),
(1269,1072,cs),
(1269,1064,o),
(1269,1054,o),
(1268,1045,c),
(1470,1045,l),
(1475,1076,o),
(1478,1105,o),
(1478,1131,cs),
(1478,1420,o),
(1193,1487,o),
(958,1487,cs),
(457,1487,o),
(321,1202,o),
(321,994,cs),
(321,716,o),
(588,675,o),
(756,650,cs),
(979,617,ls),
(1096,600,o),
(1202,564,o),
(1202,444,cs),
(1202,320,o),
(1118,155,o),
(765,155,cs),
(541,155,o),
(410,223,o),
(410,396,cs),
(410,405,o),
(410,414,o),
(411,423,c),
(189,423,l),
(184,392,o),
(181,364,o),
(181,337,cs),
(181,42,o),
(487,-34,o),
(756,-34,cs,{
name = hr00;
})
);
}
);
width = 1690;
},
{
anchors = (
{
name = bottom;
pos = (774,0);
},
{
name = top;
pos = (941,1453);
}
);
layerId = "B042A474-670A-4404-9662-903C467C1F9E";
shapes = (
{
closed = 1;
nodes = (
(1262,-34,o),
(1402,218,o),
(1402,448,cs),
(1402,667,o),
(1237,725,o),
(1010,757,cs),
(790,788,ls),
(576,818,o),
(441,863,o),
(441,1038,cs),
(441,1182,o),
(496,1433,o),
(963,1433,cs),
(1232,1433,o),
(1384,1355,o),
(1384,1169,cs),
(1384,1148,o),
(1382,1125,o),
(1378,1101,c),
(1437,1101,l),
(1441,1127,o),
(1443,1152,o),
(1443,1175,cs),
(1443,1404,o),
(1239,1487,o),
(963,1487,cs),
(479,1487,o),
(381,1222,o),
(381,1027,cs),
(381,816,o),
(551,763,o),
(775,732,cs),
(996,701,ls),
(1208,671,o),
(1342,621,o),
(1342,436,cs),
(1342,245,o),
(1234,20,o),
(754,20,cs),
(463,20,o),
(286,108,o),
(286,317,cs),
(286,340,o),
(289,365,o),
(293,391,c),
(234,391,l),
(229,363,o),
(227,337,o),
(227,312,cs),
(227,65,o),
(449,-34,o),
(755,-34,cs,{
name = hr00;
})
);
}
);
width = 1690;
}
);
unicode = 115;
}
{
glyphname = t;
layers = (
{
anchors = (
{
name = bottom;
pos = (791,0);
},
{
name = topright;
pos = (1312,2196);
}
);
layerId = "586BE664-8D6A-4867-BE1B-390608DE01EA";
shapes = (
{
closed = 1;
nodes = (
(983,-34,o),
(1118,65,o),
(1357,270,cs),
(1526,417,l),
(1324,648,l),
(884,301,l),
(828,321,l),
(963,1132,l),
(1532,1132,l),
(1585,1453,l),
(1017,1453,l),
(1101,1966,l),
(718,1966,l),
(662,1622,ls),
(642,1495,o),
(586,1453,o),
(465,1453,cs),
(231,1453,l),
(177,1132,l),
(549,1132,l),
(445,513,ls),
(431,428,o),
(425,377,o),
(425,327,cs),
(425,110,o),
(535,-34,o),
(783,-34,cs,{
name = hr00;
})
);
}
);
width = 1690;
},
{
anchors = (
{
name = bottom;
pos = (656,0);
},
{
name = topright;
pos = (1278,2140);
}
);
layerId = "9AAD14F8-FE06-4230-ACE0-3E9D6F8A5A9E";
shapes = (
{
closed = 1;
nodes = (
(788,-34,o),
(901,25,o),
(1163,211,cs),
(1481,436,l),
(1371,577,l),
(738,155,l),
(681,189,l),
(862,1264,l),
(1462,1264,l),
(1492,1453,l),
(893,1453,l),
(980,1966,l),
(772,1966,l),
(707,1585,ls),
(690,1487,o),
(645,1453,o),
(549,1453,cs),
(253,1453,l),
(222,1264,l),
(642,1264,l),
(473,284,ls),
(467,253,o),
(465,200,o),
(465,175,cs),
(465,39,o),
(541,-34,o),
(673,-34,cs,{
name = hr00;
})
);
}
);
width = 1690;
},
{
anchors = (
{
name = bottom;
pos = (600,0);
},
{
name = topright;
pos = (1332,2140);
}
);
layerId = "B042A474-670A-4404-9662-903C467C1F9E";
shapes = (
{
closed = 1;
nodes = (
(636,-34,o),
(670,-6,o),
(721,25,cs),
(1442,470,l),
(1414,515,l),
(622,28,l),
(608,37,l),
(839,1400,l),
(1583,1400,l),
(1591,1453,l),
(848,1453,l),
(932,1966,l),
(873,1966,l),
(803,1535,ls),
(794,1478,o),
(763,1453,o),
(707,1453,cs),
(222,1453,l),
(214,1400,l),
(780,1400,l),
(563,118,ls),
(552,51,o),
(549,31,o),
(549,17,cs),
(549,-11,o),
(566,-34,o),
(600,-34,cs,{
name = hr00;
})
);
}
);
width = 1690;
}
);
unicode = 116;
}
{
color = 4;
glyphname = u;
layers = (
{
anchors = (
{
name = bottom;
pos = (547,0);
},
{
name = bottomright;
pos = (999,0);
},
{
name = top;
pos = (685,1057);
}
);
background = {
shapes = (
{
closed = 1;
nodes = (
(999,0,l),
(1175,1057,l),
(876,1057,l),
(785,506,ls),
(770,420,o),
(719,342,o),
(688,301,cs),
(641,239,o),
(592,205,o),
(522,205,cs,{
name = hr01;
}),
(430,205,o),
(399,274,o),
(399,329,cs),
(399,381,o),
(407,422,o),
(414,459,cs),
(514,1057,l),
(215,1057,l),
(121,494,ls),
(105,395,o),
(98,340,o),
(98,281,cs),
(98,117,o),
(180,-25,o),
(387,-25,cs),
(555,-25,o),
(651,80,o),
(731,252,c,{
name = hr02;
}),
(741,252,l),
(700,0,l)
);
}
);
};
layerId = "586BE664-8D6A-4867-BE1B-390608DE01EA";
shapes = (
{
angle = 180;
pos = (1229,1057);
ref = n;
}
);
width = 1229;
},
{
anchors = (
{
name = bottom;
pos = (535,0);
},
{
name = bottomright;
pos = (936,0);
},
{
name = top;
pos = (682,1057);
}
);
background = {
shapes = (
{
closed = 1;
nodes = (
(936,0,l),
(1112,1057,l),
(952,1057,l),
(854,473,ls),
(833,352,o),
(756,258,o),
(733,231,cs),
(673,161,o),
(602,117,o),
(510,117,cs,{
name = hr01;
}),
(391,117,o),
(334,195,o),
(334,319,cs),
(334,342,o),
(336,383,o),
(344,432,cs),
(449,1057,l),
(289,1057,l),
(183,417,ls),
(174,371,o),
(170,321,o),
(170,281,cs),
(170,88,o),
(281,-25,o),
(457,-25,cs),
(627,-25,o),
(731,82,o),
(809,250,c,{
name = hr02;
}),
(817,250,l),
(776,0,l)
);
}
);
};
layerId = "9AAD14F8-FE06-4230-ACE0-3E9D6F8A5A9E";
shapes = (
{
angle = 180;
pos = (1229,1057);
ref = n;
}
);
width = 1229;
},
{
anchors = (
{
name = bottom;
pos = (516,0);
},
{
name = bottomright;
pos = (873,0);
},
{
name = top;
pos = (649,1057);
}
);
background = {
shapes = (
{
closed = 1;
nodes = (
(873,0,l),
(1049,1057,l),
(1006,1057,l),
(899,417,ls),
(879,299,o),
(815,201,o),
(772,148,cs),
(695,49,o),
(594,15,o),
(497,15,cs,{
name = hr01;
}),
(338,15,o),
(252,98,o),
(252,266,cs),
(252,305,o),
(256,348,o),
(262,383,cs),
(375,1057,l),
(332,1057,l),
(219,381,ls),
(213,342,o),
(209,303,o),
(209,264,cs),
(209,82,o),
(309,-25,o),
(492,-25,cs),
(672,-25,o),
(783,73,o),
(863,233,c,{
name = hr02;
}),
(868,233,l),
(829,0,l)
);
}
);
};
layerId = "B042A474-670A-4404-9662-903C467C1F9E";
shapes = (
{
angle = 180;
pos = (1229,1057);
ref = n;
}
);
width = 1229;
}
);
unicode = 117;
}
{
glyphname = v;
layers = (
{
anchors = (
{
name = bottom;
pos = (487,0);
},
{
name = top;
pos = (695,1057);
}
);
layerId = "586BE664-8D6A-4867-BE1B-390608DE01EA";
shapes = (
{
closed = 1;
nodes = (
(73,823,l),
(256,823,l),
(184,352,ls),
(176,301,o),
(172,273,o),
(172,228,cs),
(172,73,o),
(258,-25,o),
(432,-25,cs),
(788,-25,o),
(1132,299,o),
(1132,717,cs),
(1132,866,o),
(1097,996,o),
(1028,1081,c),
(762,983,l),
(805,903,o),
(831,809,o),
(831,717,cs),
(831,495,o),
(737,273,o),
(477,180,c),
(452,196,l),
(585,1057,l),
(113,1057,l,{
name = hr00;
})
);
}
);
width = 1229;
},
{
anchors = (
{
name = bottom;
pos = (504,0);
},
{
name = top;
pos = (688,1057);
}
);
layerId = "9AAD14F8-FE06-4230-ACE0-3E9D6F8A5A9E";
shapes = (
{
closed = 1;
nodes = (
(135,919,l),
(361,919,l),
(254,207,ls),
(250,183,o),
(246,151,o),
(246,131,cs),
(246,39,o),
(297,-17,o),
(404,-17,cs),
(785,-17,o),
(1108,342,o),
(1108,772,cs),
(1108,883,o),
(1084,987,o),
(1041,1069,c),
(887,1024,l),
(926,948,o),
(944,856,o),
(944,764,cs),
(944,459,o),
(766,153,o),
(426,108,c),
(399,127,l),
(539,1057,l),
(158,1057,l,{
name = hr00;
})
);
}
);
width = 1229;
},
{
anchors = (
{
name = bottom;
pos = (495,0);
},
{
name = top;
pos = (690,1057);
}
);
layerId = "B042A474-670A-4404-9662-903C467C1F9E";
shapes = (
{
closed = 1;
nodes = (
(172,1018,l),
(432,1018,l),
(299,86,ls),
(295,60,o),
(293,45,o),
(293,35,cs),
(293,8,o),
(316,-8,o),
(361,-8,cs),
(762,-8,o),
(1085,377,o),
(1085,831,cs),
(1085,903,o),
(1073,999,o),
(1049,1065,c),
(1007,1049,l),
(1030,989,o),
(1044,911,o),
(1044,831,cs),
(1044,420,o),
(758,27,o),
(348,27,c),
(334,39,l),
(479,1057,l),
(178,1057,l,{
name = hr00;
})
);
}
);
width = 1229;
}
);
unicode = 118;
}
{
color = 4;
glyphname = w;
layers = (
{
anchors = (
{
name = bottom;
pos = (786,0);
},
{
name = top;
pos = (1013,1057);
}
);
layerId = "586BE664-8D6A-4867-BE1B-390608DE01EA";
shapes = (
{
closed = 1;
nodes = (
(564,-25,o),
(685,21,o),
(791,229,c),
(801,229,l),
(801,172,o),
(809,127,o),
(824,91,cs),
(862,-1,o),
(942,-25,o),
(1028,-25,cs),
(1385,-25,o),
(1729,299,o),
(1729,717,cs),
(1729,866,o),
(1694,996,o),
(1625,1081,c),
(1359,983,l),
(1401,903,o),
(1428,809,o),
(1428,717,cs),
(1428,495,o),
(1334,273,o),
(1073,180,c),
(1049,196,l),
(1182,1057,l),
(826,1057,l),
(826,652,l),
(796,452,o),
(712,264,o),
(477,180,c),
(452,196,l),
(585,1057,l),
(113,1057,l,{
name = hr00;
}),
(73,823,l),
(256,823,l),
(184,352,ls),
(176,301,o),
(172,273,o),
(172,228,cs),
(172,73,o),
(258,-25,o),
(432,-25,cs)
);
}
);
width = 1844;
},
{
anchors = (
{
name = bottom;
pos = (889,0);
},
{
name = top;
pos = (1069,1057);
}
);
layerId = "9AAD14F8-FE06-4230-ACE0-3E9D6F8A5A9E";
shapes = (
{
closed = 1;
nodes = (
(592,-17,o),
(763,61,o),
(881,300,c),
(889,295,l),
(868,170,o),
(865,151,o),
(865,127,cs),
(865,31,o),
(916,-17,o),
(1043,-17,cs),
(1392,-17,o),
(1727,342,o),
(1727,769,cs),
(1727,884,o),
(1703,987,o),
(1660,1069,c),
(1506,1024,l),
(1546,946,o),
(1564,856,o),
(1564,761,cs),
(1564,459,o),
(1384,153,o),
(1046,108,c),
(1019,127,l),
(1159,1057,l),
(969,1057,l),
(969,843,l),
(913,459,o),
(766,153,o),
(426,108,c),
(399,127,l),
(539,1057,l),
(158,1057,l,{
name = hr00;
}),
(135,919,l),
(361,919,l),
(254,207,ls),
(250,183,o),
(246,153,o),
(246,125,cs),
(246,31,o),
(297,-17,o),
(427,-17,cs)
);
}
);
width = 1844;
},
{
anchors = (
{
name = bottom;
pos = (563,0);
},
{
name = top;
pos = (1082,1057);
}
);
background = {
shapes = (
{
closed = 1;
nodes = (
(1409,-8,o),
(1732,377,o),
(1732,831,cs),
(1732,903,o),
(1721,999,o),
(1696,1065,c),
(1655,1049,l),
(1677,989,o),
(1692,911,o),
(1692,831,cs),
(1692,420,o),
(1405,27,o),
(996,27,c),
(981,39,l),
(1127,1057,l),
(1085,1057,l),
(946,86,ls),
(943,60,o),
(940,45,o),
(940,35,cs),
(940,8,o),
(963,-8,o),
(1008,-8,cs)
);
}
);
};
layerId = "B042A474-670A-4404-9662-903C467C1F9E";
shapes = (
{
closed = 1;
nodes = (
(659,-8,o),
(881,208,o),
(1004,495,c),
(1007,495,l),
(949,121,o),
(940,54,o),
(940,35,cs),
(940,8,o),
(963,-8,o),
(1008,-8,cs),
(1409,-8,o),
(1732,377,o),
(1732,831,cs),
(1732,903,o),
(1721,999,o),
(1696,1065,c),
(1655,1049,l),
(1677,989,o),
(1692,911,o),
(1692,831,cs),
(1692,420,o),
(1405,27,o),
(996,27,c),
(981,39,l),
(1127,1057,l),
(1068,1056,l),
(1041,749,ls),
(993,420,o),
(737,27,o),
(348,27,c),
(334,39,l),
(479,1057,l),
(178,1057,l,{
name = hr00;
}),
(172,1018,l),
(432,1018,l),
(299,86,ls),
(295,60,o),
(293,45,o),
(293,35,cs),
(293,8,o),
(316,-8,o),
(361,-8,cs)
);
}
);
width = 1844;
}
);
unicode = 119;
}
{
glyphname = x;
layers = (
{
anchors = (
{
name = bottom;
pos = (492,0);
},
{
name = top;
pos = (723,1057);
}
);
layerId = "586BE664-8D6A-4867-BE1B-390608DE01EA";
shapes = (
{
closed = 1;
nodes = (
(352,-25,o),
(447,61,o),
(504,284,c),
(518,284,l),
(518,68,o),
(604,-25,o),
(735,-25,cs),
(836,-25,o),
(944,23,o),
(1069,133,cs),
(1174,225,l),
(1049,383,l),
(774,193,l),
(750,205,l),
(748,236,o),
(745,268,o),
(745,305,cs),
(745,512,o),
(785,864,o),
(924,864,cs),
(979,864,o),
(999,811,o),
(999,707,cs),
(999,696,o),
(999,684,o),
(999,673,c),
(1237,703,l),
(1239,725,o),
(1239,758,o),
(1239,799,cs),
(1239,967,o),
(1151,1081,o),
(1018,1081,cs),
(885,1081,o),
(796,993,o),
(737,768,c),
(723,768,l),
(723,778,o),
(723,788,o),
(723,799,cs),
(723,979,o),
(653,1081,o),
(506,1081,cs),
(406,1081,o),
(317,1030,o),
(213,952,cs),
(68,844,l),
(193,678,l),
(461,864,l),
(485,854,l),
(487,825,o),
(489,796,o),
(489,764,cs),
(489,577,o),
(444,193,o),
(307,193,cs),
(250,193,o),
(233,244,o),
(233,361,cs),
(233,369,o),
(233,375,o),
(233,383,c),
(-4,354,l),
(-6,329,o),
(-8,313,o),
(-8,264,cs),
(-8,76,o),
(80,-25,o),
(217,-25,cs,{
name = hr00;
})
);
}
);
width = 1229;
},
{
anchors = (
{
name = bottom;
pos = (516,0);
},
{
name = top;
pos = (713,1057);
}
);
layerId = "9AAD14F8-FE06-4230-ACE0-3E9D6F8A5A9E";
shapes = (
{
closed = 1;
nodes = (
(379,-25,o),
(494,82,o),
(549,340,c),
(563,338,l),
(563,161,o),
(565,-25,o),
(729,-25,cs),
(793,-25,o),
(876,4,o),
(1026,133,cs),
(1129,221,l),
(1061,316,l),
(758,103,l),
(727,117,l),
(696,178,o),
(690,309,o),
(690,367,cs),
(690,584,o),
(785,954,o),
(973,954,cs),
(1039,954,o),
(1063,907,o),
(1063,805,cs),
(1063,776,o),
(1061,735,o),
(1055,688,c),
(1204,700,l),
(1215,772,o),
(1215,813,o),
(1215,838,cs),
(1215,1001,o),
(1149,1081,o),
(1012,1081,cs),
(850,1081,o),
(735,975,o),
(680,717,c),
(665,719,l),
(665,727,o),
(665,737,o),
(665,745,cs),
(665,909,o),
(655,1081,o),
(504,1081,cs),
(420,1081,o),
(326,1028,o),
(223,952,cs),
(88,852,l),
(151,756,l),
(475,954,l),
(506,940,l),
(532,881,o),
(539,745,o),
(539,690,cs),
(539,473,o),
(444,103,o),
(256,103,cs),
(191,103,o),
(166,150,o),
(166,252,cs),
(166,281,o),
(168,321,o),
(174,369,c),
(25,356,l),
(15,283,o),
(15,244,o),
(15,219,cs),
(15,55,o),
(80,-25,o),
(217,-25,cs,{
name = hr00;
})
);
}
);
width = 1229;
},
{
anchors = (
{
name = bottom;
pos = (535,0);
},
{
name = top;
pos = (705,1057);
}
);
layerId = "B042A474-670A-4404-9662-903C467C1F9E";
shapes = (
{
closed = 1;
nodes = (
(387,-25,o),
(520,106,o),
(585,367,c),
(592,367,l),
(602,117,o),
(700,-25,o),
(758,-25,cs),
(780,-25,o),
(791,-20,o),
(821,-4,cs),
(1137,161,l),
(1119,193,l),
(766,10,l),
(751,15,l),
(692,65,o),
(633,207,o),
(633,383,cs),
(633,567,o),
(741,1042,o),
(993,1042,cs),
(1085,1042,o),
(1151,979,o),
(1151,848,cs),
(1151,815,o),
(1147,756,o),
(1137,705,c),
(1180,707,l),
(1190,756,o),
(1194,813,o),
(1194,848,cs),
(1194,999,o),
(1112,1081,o),
(999,1081,cs),
(856,1081,o),
(723,951,o),
(657,690,c),
(651,690,l),
(651,703,o),
(649,717,o),
(649,729,cs),
(631,954,o),
(543,1081,o),
(487,1081,cs),
(469,1081,o),
(452,1079,o),
(414,1061,cs),
(98,913,l),
(115,883,l),
(477,1047,l),
(492,1042,l),
(551,991,o),
(610,848,o),
(610,680,cs),
(610,487,o),
(502,15,o),
(246,15,cs),
(158,15,o),
(92,78,o),
(92,209,cs),
(92,241,o),
(96,301,o),
(106,352,c),
(63,351,l),
(53,301,o),
(49,244,o),
(49,209,cs),
(49,57,o),
(131,-25,o),
(244,-25,cs,{
name = hr00;
})
);
}
);
width = 1229;
}
);
unicode = 120;
}
